<svg xmlns="http://www.w3.org/2000/svg" xmlns:xlink="http://www.w3.org/1999/xlink" version="1.1" width="2834.65pt" height="2834.65pt" viewBox="0 0 2834.65 2834.65">
<defs>
<clipPath id="clip_0">
<path transform="matrix(1,0,0,-1,0,2834.65)" d="M0 2834.646H2834.646V0H0Z"/>
</clipPath>
</defs>
<g id="layer_1" data-name="">
<path transform="matrix(1,0,0,-1,0,2834.65)" d="M.688 .667H2834.646V2834.625H.688Z" fill="#ffffff"/>
<path transform="matrix(1,0,0,-1,0,2834.65)" d="M977.915 2639.179H1075.638V2541.456H977.915Z" fill="#231f20"/>
<path transform="matrix(1,0,0,-1,0,2834.65)" d="M1173.36 2639.179H1271.083V2541.456H1173.36Z" fill="#231f20"/>
<path transform="matrix(1,0,0,-1,0,2834.65)" d="M1564.251 2639.179H1661.974V2541.456H1564.251Z" fill="#231f20"/>
<path transform="matrix(1,0,0,-1,0,2834.65)" d="M977.915 2541.457H1075.638V2443.7342H977.915Z" fill="#231f20"/>
<path transform="matrix(1,0,0,-1,0,2834.65)" d="M1173.36 2541.457H1271.083V2443.7342H1173.36Z" fill="#231f20"/>
<path transform="matrix(1,0,0,-1,0,2834.65)" d="M1271.083 2541.457H1368.806V2443.7342H1271.083Z" fill="#231f20"/>
<path transform="matrix(1,0,0,-1,0,2834.65)" d="M1368.805 2541.457H1466.5281V2443.7342H1368.805Z" fill="#231f20"/>
<path transform="matrix(1,0,0,-1,0,2834.65)" d="M977.915 2443.734H1075.638V2346.011H977.915Z" fill="#231f20"/>
<path transform="matrix(1,0,0,-1,0,2834.65)" d="M1271.083 2443.734H1368.806V2346.011H1271.083Z" fill="#231f20"/>
<path transform="matrix(1,0,0,-1,0,2834.65)" d="M1368.805 2443.734H1466.5281V2346.011H1368.805Z" fill="#231f20"/>
<path transform="matrix(1,0,0,-1,0,2834.65)" d="M1466.528 2443.734H1564.251V2346.011H1466.528Z" fill="#231f20"/>
<path transform="matrix(1,0,0,-1,0,2834.65)" d="M1564.251 2443.734H1661.974V2346.011H1564.251Z" fill="#231f20"/>
<path transform="matrix(1,0,0,-1,0,2834.65)" d="M1661.974 2443.734H1759.697V2346.011H1661.974Z" fill="#231f20"/>
<path transform="matrix(1,0,0,-1,0,2834.65)" d="M1271.083 2346.011H1368.806V2248.288H1271.083Z" fill="#231f20"/>
<path transform="matrix(1,0,0,-1,0,2834.65)" d="M1368.805 2346.011H1466.5281V2248.288H1368.805Z" fill="#231f20"/>
<path transform="matrix(1,0,0,-1,0,2834.65)" d="M1466.528 2346.011H1564.251V2248.288H1466.528Z" fill="#231f20"/>
<path transform="matrix(1,0,0,-1,0,2834.65)" d="M1564.251 2346.011H1661.974V2248.288H1564.251Z" fill="#231f20"/>
<path transform="matrix(1,0,0,-1,0,2834.65)" d="M977.915 2248.289H1075.638V2150.5662H977.915Z" fill="#231f20"/>
<path transform="matrix(1,0,0,-1,0,2834.65)" d="M1075.637 2248.289H1173.36V2150.5662H1075.637Z" fill="#231f20"/>
<path transform="matrix(1,0,0,-1,0,2834.65)" d="M1368.805 2248.289H1466.5281V2150.5662H1368.805Z" fill="#231f20"/>
<path transform="matrix(1,0,0,-1,0,2834.65)" d="M1466.528 2248.289H1564.251V2150.5662H1466.528Z" fill="#231f20"/>
<path transform="matrix(1,0,0,-1,0,2834.65)" d="M1564.251 2248.289H1661.974V2150.5662H1564.251Z" fill="#231f20"/>
<path transform="matrix(1,0,0,-1,0,2834.65)" d="M1759.696 2248.289H1857.4191V2150.5662H1759.696Z" fill="#231f20"/>
<path transform="matrix(1,0,0,-1,0,2834.65)" d="M1075.637 2150.566H1173.36V2052.843H1075.637Z" fill="#231f20"/>
<path transform="matrix(1,0,0,-1,0,2834.65)" d="M1173.36 2150.566H1271.083V2052.843H1173.36Z" fill="#231f20"/>
<path transform="matrix(1,0,0,-1,0,2834.65)" d="M1271.083 2150.566H1368.806V2052.843H1271.083Z" fill="#231f20"/>
<path transform="matrix(1,0,0,-1,0,2834.65)" d="M1466.528 2150.566H1564.251V2052.843H1466.528Z" fill="#231f20"/>
<path transform="matrix(1,0,0,-1,0,2834.65)" d="M1564.251 2150.566H1661.974V2052.843H1564.251Z" fill="#231f20"/>
<path transform="matrix(1,0,0,-1,0,2834.65)" d="M1759.696 2150.566H1857.4191V2052.843H1759.696Z" fill="#231f20"/>
<path transform="matrix(1,0,0,-1,0,2834.65)" d="M977.915 2052.843H1075.638V1955.12H977.915Z" fill="#231f20"/>
<path transform="matrix(1,0,0,-1,0,2834.65)" d="M1173.36 2052.843H1271.083V1955.12H1173.36Z" fill="#231f20"/>
<path transform="matrix(1,0,0,-1,0,2834.65)" d="M1368.805 2052.843H1466.5281V1955.12H1368.805Z" fill="#231f20"/>
<path transform="matrix(1,0,0,-1,0,2834.65)" d="M1564.251 2052.843H1661.974V1955.12H1564.251Z" fill="#231f20"/>
<path transform="matrix(1,0,0,-1,0,2834.65)" d="M1759.696 2052.843H1857.4191V1955.12H1759.696Z" fill="#231f20"/>
<path transform="matrix(1,0,0,-1,0,2834.65)" d="M1075.637 1955.12H1173.36V1857.397H1075.637Z" fill="#231f20"/>
<path transform="matrix(1,0,0,-1,0,2834.65)" d="M1173.36 1955.12H1271.083V1857.397H1173.36Z" fill="#231f20"/>
<path transform="matrix(1,0,0,-1,0,2834.65)" d="M1466.528 1955.12H1564.251V1857.397H1466.528Z" fill="#231f20"/>
<path transform="matrix(1,0,0,-1,0,2834.65)" d="M1661.974 1955.12H1759.697V1857.397H1661.974Z" fill="#231f20"/>
<path transform="matrix(1,0,0,-1,0,2834.65)" d="M1759.696 1955.12H1857.4191V1857.397H1759.696Z" fill="#231f20"/>
<path transform="matrix(1,0,0,-1,0,2834.65)" d="M196.133 1857.398H293.856V1759.6749H196.133Z" fill="#231f20"/>
<path transform="matrix(1,0,0,-1,0,2834.65)" d="M489.301 1857.398H587.024V1759.6749H489.301Z" fill="#231f20"/>
<path transform="matrix(1,0,0,-1,0,2834.65)" d="M587.024 1857.398H684.747V1759.6749H587.024Z" fill="#231f20"/>
<path transform="matrix(1,0,0,-1,0,2834.65)" d="M684.747 1857.398H782.47006V1759.6749H684.747Z" fill="#231f20"/>
<path transform="matrix(1,0,0,-1,0,2834.65)" d="M782.469 1857.398H880.192V1759.6749H782.469Z" fill="#231f20"/>
<path transform="matrix(1,0,0,-1,0,2834.65)" d="M880.192 1857.398H977.91506V1759.6749H880.192Z" fill="#231f20"/>
<path transform="matrix(1,0,0,-1,0,2834.65)" d="M977.915 1857.398H1075.638V1759.6749H977.915Z" fill="#231f20"/>
<path transform="matrix(1,0,0,-1,0,2834.65)" d="M1368.805 1857.398H1466.5281V1759.6749H1368.805Z" fill="#231f20"/>
<path transform="matrix(1,0,0,-1,0,2834.65)" d="M1759.696 1857.398H1857.4191V1759.6749H1759.696Z" fill="#231f20"/>
<path transform="matrix(1,0,0,-1,0,2834.65)" d="M1857.419 1857.398H1955.142V1759.6749H1857.419Z" fill="#231f20"/>
<path transform="matrix(1,0,0,-1,0,2834.65)" d="M2150.587 1857.398H2248.3099V1759.6749H2150.587Z" fill="#231f20"/>
<path transform="matrix(1,0,0,-1,0,2834.65)" d="M2346.032 1857.398H2443.755V1759.6749H2346.032Z" fill="#231f20"/>
<path transform="matrix(1,0,0,-1,0,2834.65)" d="M2443.755 1857.398H2541.4779V1759.6749H2443.755Z" fill="#231f20"/>
<path transform="matrix(1,0,0,-1,0,2834.65)" d="M2541.478 1857.398H2639.201V1759.6749H2541.478Z" fill="#231f20"/>
<path transform="matrix(1,0,0,-1,0,2834.65)" d="M196.133 1759.675H293.856V1661.952H196.133Z" fill="#231f20"/>
<path transform="matrix(1,0,0,-1,0,2834.65)" d="M293.856 1759.675H391.57899V1661.952H293.856Z" fill="#231f20"/>
<path transform="matrix(1,0,0,-1,0,2834.65)" d="M391.579 1759.675H489.302V1661.952H391.579Z" fill="#231f20"/>
<path transform="matrix(1,0,0,-1,0,2834.65)" d="M489.301 1759.675H587.024V1661.952H489.301Z" fill="#231f20"/>
<path transform="matrix(1,0,0,-1,0,2834.65)" d="M587.024 1759.675H684.747V1661.952H587.024Z" fill="#231f20"/>
<path transform="matrix(1,0,0,-1,0,2834.65)" d="M684.747 1759.675H782.47006V1661.952H684.747Z" fill="#231f20"/>
<path transform="matrix(1,0,0,-1,0,2834.65)" d="M977.915 1759.675H1075.638V1661.952H977.915Z" fill="#231f20"/>
<path transform="matrix(1,0,0,-1,0,2834.65)" d="M1075.637 1759.675H1173.36V1661.952H1075.637Z" fill="#231f20"/>
<path transform="matrix(1,0,0,-1,0,2834.65)" d="M1271.083 1759.675H1368.806V1661.952H1271.083Z" fill="#231f20"/>
<path transform="matrix(1,0,0,-1,0,2834.65)" d="M1368.805 1759.675H1466.5281V1661.952H1368.805Z" fill="#231f20"/>
<path transform="matrix(1,0,0,-1,0,2834.65)" d="M1661.974 1759.675H1759.697V1661.952H1661.974Z" fill="#231f20"/>
<path transform="matrix(1,0,0,-1,0,2834.65)" d="M1759.696 1759.675H1857.4191V1661.952H1759.696Z" fill="#231f20"/>
<path transform="matrix(1,0,0,-1,0,2834.65)" d="M2052.864 1759.675H2150.587V1661.952H2052.864Z" fill="#231f20"/>
<path transform="matrix(1,0,0,-1,0,2834.65)" d="M2150.587 1759.675H2248.3099V1661.952H2150.587Z" fill="#231f20"/>
<path transform="matrix(1,0,0,-1,0,2834.65)" d="M2248.31 1759.675H2346.032V1661.952H2248.31Z" fill="#231f20"/>
<path transform="matrix(1,0,0,-1,0,2834.65)" d="M2346.032 1759.675H2443.755V1661.952H2346.032Z" fill="#231f20"/>
<path transform="matrix(1,0,0,-1,0,2834.65)" d="M2443.755 1759.675H2541.4779V1661.952H2443.755Z" fill="#231f20"/>
<path transform="matrix(1,0,0,-1,0,2834.65)" d="M196.133 1661.952H293.856V1564.229H196.133Z" fill="#231f20"/>
<path transform="matrix(1,0,0,-1,0,2834.65)" d="M293.856 1661.952H391.57899V1564.229H293.856Z" fill="#231f20"/>
<path transform="matrix(1,0,0,-1,0,2834.65)" d="M391.579 1661.952H489.302V1564.229H391.579Z" fill="#231f20"/>
<path transform="matrix(1,0,0,-1,0,2834.65)" d="M489.301 1661.952H587.024V1564.229H489.301Z" fill="#231f20"/>
<path transform="matrix(1,0,0,-1,0,2834.65)" d="M782.469 1661.952H880.192V1564.229H782.469Z" fill="#231f20"/>
<path transform="matrix(1,0,0,-1,0,2834.65)" d="M880.192 1661.952H977.91506V1564.229H880.192Z" fill="#231f20"/>
<path transform="matrix(1,0,0,-1,0,2834.65)" d="M1075.637 1661.952H1173.36V1564.229H1075.637Z" fill="#231f20"/>
<path transform="matrix(1,0,0,-1,0,2834.65)" d="M1271.083 1661.952H1368.806V1564.229H1271.083Z" fill="#231f20"/>
<path transform="matrix(1,0,0,-1,0,2834.65)" d="M1466.528 1661.952H1564.251V1564.229H1466.528Z" fill="#231f20"/>
<path transform="matrix(1,0,0,-1,0,2834.65)" d="M1564.251 1661.952H1661.974V1564.229H1564.251Z" fill="#231f20"/>
<path transform="matrix(1,0,0,-1,0,2834.65)" d="M1661.974 1661.952H1759.697V1564.229H1661.974Z" fill="#231f20"/>
<path transform="matrix(1,0,0,-1,0,2834.65)" d="M1759.696 1661.952H1857.4191V1564.229H1759.696Z" fill="#231f20"/>
<path transform="matrix(1,0,0,-1,0,2834.65)" d="M2052.864 1661.952H2150.587V1564.229H2052.864Z" fill="#231f20"/>
<path transform="matrix(1,0,0,-1,0,2834.65)" d="M2248.31 1661.952H2346.032V1564.229H2248.31Z" fill="#231f20"/>
<path transform="matrix(1,0,0,-1,0,2834.65)" d="M2541.478 1661.952H2639.201V1564.229H2541.478Z" fill="#231f20"/>
<path transform="matrix(1,0,0,-1,0,2834.65)" d="M293.856 1564.23H391.57899V1466.507H293.856Z" fill="#231f20"/>
<path transform="matrix(1,0,0,-1,0,2834.65)" d="M391.579 1564.23H489.302V1466.507H391.579Z" fill="#231f20"/>
<path transform="matrix(1,0,0,-1,0,2834.65)" d="M587.024 1564.23H684.747V1466.507H587.024Z" fill="#231f20"/>
<path transform="matrix(1,0,0,-1,0,2834.65)" d="M684.747 1564.23H782.47006V1466.507H684.747Z" fill="#231f20"/>
<path transform="matrix(1,0,0,-1,0,2834.65)" d="M880.192 1564.23H977.91506V1466.507H880.192Z" fill="#231f20"/>
<path transform="matrix(1,0,0,-1,0,2834.65)" d="M1271.083 1564.23H1368.806V1466.507H1271.083Z" fill="#231f20"/>
<path transform="matrix(1,0,0,-1,0,2834.65)" d="M1368.805 1564.23H1466.5281V1466.507H1368.805Z" fill="#231f20"/>
<path transform="matrix(1,0,0,-1,0,2834.65)" d="M1564.251 1564.23H1661.974V1466.507H1564.251Z" fill="#231f20"/>
<path transform="matrix(1,0,0,-1,0,2834.65)" d="M1661.974 1564.23H1759.697V1466.507H1661.974Z" fill="#231f20"/>
<path transform="matrix(1,0,0,-1,0,2834.65)" d="M1759.696 1564.23H1857.4191V1466.507H1759.696Z" fill="#231f20"/>
<path transform="matrix(1,0,0,-1,0,2834.65)" d="M1857.419 1564.23H1955.142V1466.507H1857.419Z" fill="#231f20"/>
<path transform="matrix(1,0,0,-1,0,2834.65)" d="M2052.864 1564.23H2150.587V1466.507H2052.864Z" fill="#231f20"/>
<path transform="matrix(1,0,0,-1,0,2834.65)" d="M2150.587 1564.23H2248.3099V1466.507H2150.587Z" fill="#231f20"/>
<path transform="matrix(1,0,0,-1,0,2834.65)" d="M2248.31 1564.23H2346.032V1466.507H2248.31Z" fill="#231f20"/>
<path transform="matrix(1,0,0,-1,0,2834.65)" d="M2346.032 1564.23H2443.755V1466.507H2346.032Z" fill="#231f20"/>
<path transform="matrix(1,0,0,-1,0,2834.65)" d="M2443.755 1564.23H2541.4779V1466.507H2443.755Z" fill="#231f20"/>
<path transform="matrix(1,0,0,-1,0,2834.65)" d="M2541.478 1564.23H2639.201V1466.507H2541.478Z" fill="#231f20"/>
<path transform="matrix(1,0,0,-1,0,2834.65)" d="M293.856 1466.507H391.57899V1368.7839H293.856Z" fill="#231f20"/>
<path transform="matrix(1,0,0,-1,0,2834.65)" d="M391.579 1466.507H489.302V1368.7839H391.579Z" fill="#231f20"/>
<path transform="matrix(1,0,0,-1,0,2834.65)" d="M489.301 1466.507H587.024V1368.7839H489.301Z" fill="#231f20"/>
<path transform="matrix(1,0,0,-1,0,2834.65)" d="M684.747 1466.507H782.47006V1368.7839H684.747Z" fill="#231f20"/>
<path transform="matrix(1,0,0,-1,0,2834.65)" d="M782.469 1466.507H880.192V1368.7839H782.469Z" fill="#231f20"/>
<path transform="matrix(1,0,0,-1,0,2834.65)" d="M880.192 1466.507H977.91506V1368.7839H880.192Z" fill="#231f20"/>
<path transform="matrix(1,0,0,-1,0,2834.65)" d="M1173.36 1466.507H1271.083V1368.7839H1173.36Z" fill="#231f20"/>
<path transform="matrix(1,0,0,-1,0,2834.65)" d="M1271.083 1466.507H1368.806V1368.7839H1271.083Z" fill="#231f20"/>
<path transform="matrix(1,0,0,-1,0,2834.65)" d="M1368.805 1466.507H1466.5281V1368.7839H1368.805Z" fill="#231f20"/>
<path transform="matrix(1,0,0,-1,0,2834.65)" d="M1564.251 1466.507H1661.974V1368.7839H1564.251Z" fill="#231f20"/>
<path transform="matrix(1,0,0,-1,0,2834.65)" d="M1759.696 1466.507H1857.4191V1368.7839H1759.696Z" fill="#231f20"/>
<path transform="matrix(1,0,0,-1,0,2834.65)" d="M1955.141 1466.507H2052.864V1368.7839H1955.141Z" fill="#231f20"/>
<path transform="matrix(1,0,0,-1,0,2834.65)" d="M2052.864 1466.507H2150.587V1368.7839H2052.864Z" fill="#231f20"/>
<path transform="matrix(1,0,0,-1,0,2834.65)" d="M2541.478 1466.507H2639.201V1368.7839H2541.478Z" fill="#231f20"/>
<path transform="matrix(1,0,0,-1,0,2834.65)" d="M196.133 1368.784H293.856V1271.061H196.133Z" fill="#231f20"/>
<path transform="matrix(1,0,0,-1,0,2834.65)" d="M293.856 1368.784H391.57899V1271.061H293.856Z" fill="#231f20"/>
<path transform="matrix(1,0,0,-1,0,2834.65)" d="M587.024 1368.784H684.747V1271.061H587.024Z" fill="#231f20"/>
<path transform="matrix(1,0,0,-1,0,2834.65)" d="M684.747 1368.784H782.47006V1271.061H684.747Z" fill="#231f20"/>
<path transform="matrix(1,0,0,-1,0,2834.65)" d="M1075.637 1368.784H1173.36V1271.061H1075.637Z" fill="#231f20"/>
<path transform="matrix(1,0,0,-1,0,2834.65)" d="M1173.36 1368.784H1271.083V1271.061H1173.36Z" fill="#231f20"/>
<path transform="matrix(1,0,0,-1,0,2834.65)" d="M1466.528 1368.784H1564.251V1271.061H1466.528Z" fill="#231f20"/>
<path transform="matrix(1,0,0,-1,0,2834.65)" d="M1661.974 1368.784H1759.697V1271.061H1661.974Z" fill="#231f20"/>
<path transform="matrix(1,0,0,-1,0,2834.65)" d="M1759.696 1368.784H1857.4191V1271.061H1759.696Z" fill="#231f20"/>
<path transform="matrix(1,0,0,-1,0,2834.65)" d="M2150.587 1368.784H2248.3099V1271.061H2150.587Z" fill="#231f20"/>
<path transform="matrix(1,0,0,-1,0,2834.65)" d="M2443.755 1368.784H2541.4779V1271.061H2443.755Z" fill="#231f20"/>
<path transform="matrix(1,0,0,-1,0,2834.65)" d="M196.133 1271.062H293.856V1173.339H196.133Z" fill="#231f20"/>
<path transform="matrix(1,0,0,-1,0,2834.65)" d="M293.856 1271.062H391.57899V1173.339H293.856Z" fill="#231f20"/>
<path transform="matrix(1,0,0,-1,0,2834.65)" d="M489.301 1271.062H587.024V1173.339H489.301Z" fill="#231f20"/>
<path transform="matrix(1,0,0,-1,0,2834.65)" d="M684.747 1271.062H782.47006V1173.339H684.747Z" fill="#231f20"/>
<path transform="matrix(1,0,0,-1,0,2834.65)" d="M782.469 1271.062H880.192V1173.339H782.469Z" fill="#231f20"/>
<path transform="matrix(1,0,0,-1,0,2834.65)" d="M1271.083 1271.062H1368.806V1173.339H1271.083Z" fill="#231f20"/>
<path transform="matrix(1,0,0,-1,0,2834.65)" d="M1368.805 1271.062H1466.5281V1173.339H1368.805Z" fill="#231f20"/>
<path transform="matrix(1,0,0,-1,0,2834.65)" d="M1564.251 1271.062H1661.974V1173.339H1564.251Z" fill="#231f20"/>
<path transform="matrix(1,0,0,-1,0,2834.65)" d="M1661.974 1271.062H1759.697V1173.339H1661.974Z" fill="#231f20"/>
<path transform="matrix(1,0,0,-1,0,2834.65)" d="M1759.696 1271.062H1857.4191V1173.339H1759.696Z" fill="#231f20"/>
<path transform="matrix(1,0,0,-1,0,2834.65)" d="M1857.419 1271.062H1955.142V1173.339H1857.419Z" fill="#231f20"/>
<path transform="matrix(1,0,0,-1,0,2834.65)" d="M1955.141 1271.062H2052.864V1173.339H1955.141Z" fill="#231f20"/>
<path transform="matrix(1,0,0,-1,0,2834.65)" d="M2150.587 1271.062H2248.3099V1173.339H2150.587Z" fill="#231f20"/>
<path transform="matrix(1,0,0,-1,0,2834.65)" d="M2248.31 1271.062H2346.032V1173.339H2248.31Z" fill="#231f20"/>
<path transform="matrix(1,0,0,-1,0,2834.65)" d="M2346.032 1271.062H2443.755V1173.339H2346.032Z" fill="#231f20"/>
<path transform="matrix(1,0,0,-1,0,2834.65)" d="M2443.755 1271.062H2541.4779V1173.339H2443.755Z" fill="#231f20"/>
<path transform="matrix(1,0,0,-1,0,2834.65)" d="M2541.478 1271.062H2639.201V1173.339H2541.478Z" fill="#231f20"/>
<path transform="matrix(1,0,0,-1,0,2834.65)" d="M196.133 1173.339H293.856V1075.616H196.133Z" fill="#231f20"/>
<path transform="matrix(1,0,0,-1,0,2834.65)" d="M391.579 1173.339H489.302V1075.616H391.579Z" fill="#231f20"/>
<path transform="matrix(1,0,0,-1,0,2834.65)" d="M587.024 1173.339H684.747V1075.616H587.024Z" fill="#231f20"/>
<path transform="matrix(1,0,0,-1,0,2834.65)" d="M880.192 1173.339H977.91506V1075.616H880.192Z" fill="#231f20"/>
<path transform="matrix(1,0,0,-1,0,2834.65)" d="M1075.637 1173.339H1173.36V1075.616H1075.637Z" fill="#231f20"/>
<path transform="matrix(1,0,0,-1,0,2834.65)" d="M1173.36 1173.339H1271.083V1075.616H1173.36Z" fill="#231f20"/>
<path transform="matrix(1,0,0,-1,0,2834.65)" d="M1271.083 1173.339H1368.806V1075.616H1271.083Z" fill="#231f20"/>
<path transform="matrix(1,0,0,-1,0,2834.65)" d="M1564.251 1173.339H1661.974V1075.616H1564.251Z" fill="#231f20"/>
<path transform="matrix(1,0,0,-1,0,2834.65)" d="M1661.974 1173.339H1759.697V1075.616H1661.974Z" fill="#231f20"/>
<path transform="matrix(1,0,0,-1,0,2834.65)" d="M1857.419 1173.339H1955.142V1075.616H1857.419Z" fill="#231f20"/>
<path transform="matrix(1,0,0,-1,0,2834.65)" d="M1955.141 1173.339H2052.864V1075.616H1955.141Z" fill="#231f20"/>
<path transform="matrix(1,0,0,-1,0,2834.65)" d="M2052.864 1173.339H2150.587V1075.616H2052.864Z" fill="#231f20"/>
<path transform="matrix(1,0,0,-1,0,2834.65)" d="M2248.31 1173.339H2346.032V1075.616H2248.31Z" fill="#231f20"/>
<path transform="matrix(1,0,0,-1,0,2834.65)" d="M2346.032 1173.339H2443.755V1075.616H2346.032Z" fill="#231f20"/>
<path transform="matrix(1,0,0,-1,0,2834.65)" d="M2541.478 1173.339H2639.201V1075.616H2541.478Z" fill="#231f20"/>
<path transform="matrix(1,0,0,-1,0,2834.65)" d="M196.133 1075.616H293.856V977.89297H196.133Z" fill="#231f20"/>
<path transform="matrix(1,0,0,-1,0,2834.65)" d="M782.469 1075.616H880.192V977.89297H782.469Z" fill="#231f20"/>
<path transform="matrix(1,0,0,-1,0,2834.65)" d="M880.192 1075.616H977.91506V977.89297H880.192Z" fill="#231f20"/>
<path transform="matrix(1,0,0,-1,0,2834.65)" d="M977.915 1075.616H1075.638V977.89297H977.915Z" fill="#231f20"/>
<path transform="matrix(1,0,0,-1,0,2834.65)" d="M1173.36 1075.616H1271.083V977.89297H1173.36Z" fill="#231f20"/>
<path transform="matrix(1,0,0,-1,0,2834.65)" d="M1368.805 1075.616H1466.5281V977.89297H1368.805Z" fill="#231f20"/>
<path transform="matrix(1,0,0,-1,0,2834.65)" d="M1466.528 1075.616H1564.251V977.89297H1466.528Z" fill="#231f20"/>
<path transform="matrix(1,0,0,-1,0,2834.65)" d="M1759.696 1075.616H1857.4191V977.89297H1759.696Z" fill="#231f20"/>
<path transform="matrix(1,0,0,-1,0,2834.65)" d="M1857.419 1075.616H1955.142V977.89297H1857.419Z" fill="#231f20"/>
<path transform="matrix(1,0,0,-1,0,2834.65)" d="M1955.141 1075.616H2052.864V977.89297H1955.141Z" fill="#231f20"/>
<path transform="matrix(1,0,0,-1,0,2834.65)" d="M2052.864 1075.616H2150.587V977.89297H2052.864Z" fill="#231f20"/>
<path transform="matrix(1,0,0,-1,0,2834.65)" d="M2150.587 1075.616H2248.3099V977.89297H2150.587Z" fill="#231f20"/>
<path transform="matrix(1,0,0,-1,0,2834.65)" d="M2346.032 1075.616H2443.755V977.89297H2346.032Z" fill="#231f20"/>
<path transform="matrix(1,0,0,-1,0,2834.65)" d="M2443.755 1075.616H2541.4779V977.89297H2443.755Z" fill="#231f20"/>
<path transform="matrix(1,0,0,-1,0,2834.65)" d="M977.915 977.893H1075.638V880.17H977.915Z" fill="#231f20"/>
<path transform="matrix(1,0,0,-1,0,2834.65)" d="M1271.083 977.893H1368.806V880.17H1271.083Z" fill="#231f20"/>
<path transform="matrix(1,0,0,-1,0,2834.65)" d="M1368.805 977.893H1466.5281V880.17H1368.805Z" fill="#231f20"/>
<path transform="matrix(1,0,0,-1,0,2834.65)" d="M1564.251 977.893H1661.974V880.17H1564.251Z" fill="#231f20"/>
<path transform="matrix(1,0,0,-1,0,2834.65)" d="M1759.696 977.893H1857.4191V880.17H1759.696Z" fill="#231f20"/>
<path transform="matrix(1,0,0,-1,0,2834.65)" d="M2150.587 977.893H2248.3099V880.17H2150.587Z" fill="#231f20"/>
<path transform="matrix(1,0,0,-1,0,2834.65)" d="M2346.032 977.893H2443.755V880.17H2346.032Z" fill="#231f20"/>
<path transform="matrix(1,0,0,-1,0,2834.65)" d="M2443.755 977.893H2541.4779V880.17H2443.755Z" fill="#231f20"/>
<path transform="matrix(1,0,0,-1,0,2834.65)" d="M977.915 880.171H1075.638V782.448H977.915Z" fill="#231f20"/>
<path transform="matrix(1,0,0,-1,0,2834.65)" d="M1075.637 880.171H1173.36V782.448H1075.637Z" fill="#231f20"/>
<path transform="matrix(1,0,0,-1,0,2834.65)" d="M1271.083 880.171H1368.806V782.448H1271.083Z" fill="#231f20"/>
<path transform="matrix(1,0,0,-1,0,2834.65)" d="M1466.528 880.171H1564.251V782.448H1466.528Z" fill="#231f20"/>
<path transform="matrix(1,0,0,-1,0,2834.65)" d="M1564.251 880.171H1661.974V782.448H1564.251Z" fill="#231f20"/>
<path transform="matrix(1,0,0,-1,0,2834.65)" d="M1759.696 880.171H1857.4191V782.448H1759.696Z" fill="#231f20"/>
<path transform="matrix(1,0,0,-1,0,2834.65)" d="M1955.141 880.171H2052.864V782.448H1955.141Z" fill="#231f20"/>
<path transform="matrix(1,0,0,-1,0,2834.65)" d="M2150.587 880.171H2248.3099V782.448H2150.587Z" fill="#231f20"/>
<path transform="matrix(1,0,0,-1,0,2834.65)" d="M2541.478 880.171H2639.201V782.448H2541.478Z" fill="#231f20"/>
<path transform="matrix(1,0,0,-1,0,2834.65)" d="M977.915 782.448H1075.638V684.725H977.915Z" fill="#231f20"/>
<path transform="matrix(1,0,0,-1,0,2834.65)" d="M1173.36 782.448H1271.083V684.725H1173.36Z" fill="#231f20"/>
<path transform="matrix(1,0,0,-1,0,2834.65)" d="M1368.805 782.448H1466.5281V684.725H1368.805Z" fill="#231f20"/>
<path transform="matrix(1,0,0,-1,0,2834.65)" d="M1466.528 782.448H1564.251V684.725H1466.528Z" fill="#231f20"/>
<path transform="matrix(1,0,0,-1,0,2834.65)" d="M1564.251 782.448H1661.974V684.725H1564.251Z" fill="#231f20"/>
<path transform="matrix(1,0,0,-1,0,2834.65)" d="M1661.974 782.448H1759.697V684.725H1661.974Z" fill="#231f20"/>
<path transform="matrix(1,0,0,-1,0,2834.65)" d="M1759.696 782.448H1857.4191V684.725H1759.696Z" fill="#231f20"/>
<path transform="matrix(1,0,0,-1,0,2834.65)" d="M2150.587 782.448H2248.3099V684.725H2150.587Z" fill="#231f20"/>
<path transform="matrix(1,0,0,-1,0,2834.65)" d="M2443.755 782.448H2541.4779V684.725H2443.755Z" fill="#231f20"/>
<path transform="matrix(1,0,0,-1,0,2834.65)" d="M2541.478 782.448H2639.201V684.725H2541.478Z" fill="#231f20"/>
<path transform="matrix(1,0,0,-1,0,2834.65)" d="M977.915 684.725H1075.638V587.00198H977.915Z" fill="#231f20"/>
<path transform="matrix(1,0,0,-1,0,2834.65)" d="M1173.36 684.725H1271.083V587.00198H1173.36Z" fill="#231f20"/>
<path transform="matrix(1,0,0,-1,0,2834.65)" d="M1271.083 684.725H1368.806V587.00198H1271.083Z" fill="#231f20"/>
<path transform="matrix(1,0,0,-1,0,2834.65)" d="M1661.974 684.725H1759.697V587.00198H1661.974Z" fill="#231f20"/>
<path transform="matrix(1,0,0,-1,0,2834.65)" d="M1759.696 684.725H1857.4191V587.00198H1759.696Z" fill="#231f20"/>
<path transform="matrix(1,0,0,-1,0,2834.65)" d="M1857.419 684.725H1955.142V587.00198H1857.419Z" fill="#231f20"/>
<path transform="matrix(1,0,0,-1,0,2834.65)" d="M1955.141 684.725H2052.864V587.00198H1955.141Z" fill="#231f20"/>
<path transform="matrix(1,0,0,-1,0,2834.65)" d="M2052.864 684.725H2150.587V587.00198H2052.864Z" fill="#231f20"/>
<path transform="matrix(1,0,0,-1,0,2834.65)" d="M2150.587 684.725H2248.3099V587.00198H2150.587Z" fill="#231f20"/>
<path transform="matrix(1,0,0,-1,0,2834.65)" d="M977.915 587.003H1075.638V489.28H977.915Z" fill="#231f20"/>
<path transform="matrix(1,0,0,-1,0,2834.65)" d="M1075.637 587.003H1173.36V489.28H1075.637Z" fill="#231f20"/>
<path transform="matrix(1,0,0,-1,0,2834.65)" d="M1271.083 587.003H1368.806V489.28H1271.083Z" fill="#231f20"/>
<path transform="matrix(1,0,0,-1,0,2834.65)" d="M1368.805 587.003H1466.5281V489.28H1368.805Z" fill="#231f20"/>
<path transform="matrix(1,0,0,-1,0,2834.65)" d="M1661.974 587.003H1759.697V489.28H1661.974Z" fill="#231f20"/>
<path transform="matrix(1,0,0,-1,0,2834.65)" d="M1759.696 587.003H1857.4191V489.28H1759.696Z" fill="#231f20"/>
<path transform="matrix(1,0,0,-1,0,2834.65)" d="M1857.419 587.003H1955.142V489.28H1857.419Z" fill="#231f20"/>
<path transform="matrix(1,0,0,-1,0,2834.65)" d="M1955.141 587.003H2052.864V489.28H1955.141Z" fill="#231f20"/>
<path transform="matrix(1,0,0,-1,0,2834.65)" d="M2443.755 587.003H2541.4779V489.28H2443.755Z" fill="#231f20"/>
<path transform="matrix(1,0,0,-1,0,2834.65)" d="M2541.478 587.003H2639.201V489.28H2541.478Z" fill="#231f20"/>
<path transform="matrix(1,0,0,-1,0,2834.65)" d="M1075.637 489.28H1173.36V391.557H1075.637Z" fill="#231f20"/>
<path transform="matrix(1,0,0,-1,0,2834.65)" d="M1271.083 489.28H1368.806V391.557H1271.083Z" fill="#231f20"/>
<path transform="matrix(1,0,0,-1,0,2834.65)" d="M1466.528 489.28H1564.251V391.557H1466.528Z" fill="#231f20"/>
<path transform="matrix(1,0,0,-1,0,2834.65)" d="M1564.251 489.28H1661.974V391.557H1564.251Z" fill="#231f20"/>
<path transform="matrix(1,0,0,-1,0,2834.65)" d="M1661.974 489.28H1759.697V391.557H1661.974Z" fill="#231f20"/>
<path transform="matrix(1,0,0,-1,0,2834.65)" d="M1759.696 489.28H1857.4191V391.557H1759.696Z" fill="#231f20"/>
<path transform="matrix(1,0,0,-1,0,2834.65)" d="M1857.419 489.28H1955.142V391.557H1857.419Z" fill="#231f20"/>
<path transform="matrix(1,0,0,-1,0,2834.65)" d="M2150.587 489.28H2248.3099V391.557H2150.587Z" fill="#231f20"/>
<path transform="matrix(1,0,0,-1,0,2834.65)" d="M2248.31 489.28H2346.032V391.557H2248.31Z" fill="#231f20"/>
<path transform="matrix(1,0,0,-1,0,2834.65)" d="M2346.032 489.28H2443.755V391.557H2346.032Z" fill="#231f20"/>
<path transform="matrix(1,0,0,-1,0,2834.65)" d="M2443.755 489.28H2541.4779V391.557H2443.755Z" fill="#231f20"/>
<path transform="matrix(1,0,0,-1,0,2834.65)" d="M2541.478 489.28H2639.201V391.557H2541.478Z" fill="#231f20"/>
<path transform="matrix(1,0,0,-1,0,2834.65)" d="M1173.36 391.557H1271.083V293.834H1173.36Z" fill="#231f20"/>
<path transform="matrix(1,0,0,-1,0,2834.65)" d="M1271.083 391.557H1368.806V293.834H1271.083Z" fill="#231f20"/>
<path transform="matrix(1,0,0,-1,0,2834.65)" d="M1368.805 391.557H1466.5281V293.834H1368.805Z" fill="#231f20"/>
<path transform="matrix(1,0,0,-1,0,2834.65)" d="M1564.251 391.557H1661.974V293.834H1564.251Z" fill="#231f20"/>
<path transform="matrix(1,0,0,-1,0,2834.65)" d="M2052.864 391.557H2150.587V293.834H2052.864Z" fill="#231f20"/>
<path transform="matrix(1,0,0,-1,0,2834.65)" d="M2150.587 391.557H2248.3099V293.834H2150.587Z" fill="#231f20"/>
<path transform="matrix(1,0,0,-1,0,2834.65)" d="M2346.032 391.557H2443.755V293.834H2346.032Z" fill="#231f20"/>
<path transform="matrix(1,0,0,-1,0,2834.65)" d="M2443.755 391.557H2541.4779V293.834H2443.755Z" fill="#231f20"/>
<path transform="matrix(1,0,0,-1,0,2834.65)" d="M2541.478 391.557H2639.201V293.834H2541.478Z" fill="#231f20"/>
<path transform="matrix(1,0,0,-1,0,2834.65)" d="M977.915 293.835H1075.638V196.112H977.915Z" fill="#231f20"/>
<path transform="matrix(1,0,0,-1,0,2834.65)" d="M1075.637 293.835H1173.36V196.112H1075.637Z" fill="#231f20"/>
<path transform="matrix(1,0,0,-1,0,2834.65)" d="M1173.36 293.835H1271.083V196.112H1173.36Z" fill="#231f20"/>
<path transform="matrix(1,0,0,-1,0,2834.65)" d="M1271.083 293.835H1368.806V196.112H1271.083Z" fill="#231f20"/>
<path transform="matrix(1,0,0,-1,0,2834.65)" d="M1759.696 293.835H1857.4191V196.112H1759.696Z" fill="#231f20"/>
<path transform="matrix(1,0,0,-1,0,2834.65)" d="M1857.419 293.835H1955.142V196.112H1857.419Z" fill="#231f20"/>
<path transform="matrix(1,0,0,-1,0,2834.65)" d="M1955.141 293.835H2052.864V196.112H1955.141Z" fill="#231f20"/>
<path transform="matrix(1,0,0,-1,0,2834.65)" d="M2248.31 293.835H2346.032V196.112H2248.31Z" fill="#231f20"/>
<path transform="matrix(1,0,0,-1,0,2834.65)" d="M2541.478 293.835H2639.201V196.112H2541.478Z" fill="#231f20"/>
<g clip-path="url(#clip_0)">
<path transform="matrix(1,0,0,-1,777.5831,648.51296)" d="M0 0C0-70.76-58.735-128.331-130.965-128.331L-239.421-128.351-347.877-128.324C-420.107-128.324-478.841-70.755-478.841 0V222.115C-478.841 244.217-473.108 265.027-463.018 283.212-453.303 300.701-439.561 315.747-423.014 327.135-401.738 341.782-375.838 350.376-347.914 350.376H-130.934C-58.735 350.376 0 292.844 0 222.115ZM-130.934 452.985H-347.907C-453.647 452.985-543.232 383.122-571.875 287.639-574.834 277.759-577.148 267.605-578.753 257.227-580.528 245.782-581.45 234.057-581.45 222.115V0C-581.45-127.37-476.652-230.94-347.907-230.94L-239.421-230.96-130.934-230.933C-2.195-230.933 102.609-127.357 102.609 .006V222.115C102.609 349.422-2.189 452.985-130.934 452.985" fill="#231f20"/>
<path transform="matrix(1,0,0,-1,2536.5916,648.51296)" d="M0 0C0-70.76-58.735-128.331-130.965-128.331L-239.421-128.351-347.876-128.324C-420.107-128.324-478.841-70.755-478.841 0V222.115C-478.841 244.217-473.108 265.027-463.018 283.212-453.303 300.701-439.562 315.747-423.014 327.135-401.738 341.782-375.838 350.376-347.914 350.376H-130.934C-58.735 350.376 0 292.844 0 222.115ZM-130.934 452.985H-347.907C-453.647 452.985-543.232 383.122-571.875 287.639-574.834 277.759-577.149 267.605-578.753 257.227-580.528 245.782-581.45 234.057-581.45 222.115V0C-581.45-127.37-476.652-230.94-347.907-230.94L-239.421-230.96-130.934-230.933C-2.196-230.933 102.609-127.357 102.609 .006V222.115C102.609 349.422-2.189 452.985-130.934 452.985" fill="#231f20"/>
<path transform="matrix(1,0,0,-1,777.5831,2407.5216)" d="M0 0C0-70.759-58.735-128.331-130.965-128.331L-239.421-128.35-347.877-128.324C-420.107-128.324-478.841-70.754-478.841 0V222.116C-478.841 244.217-473.108 265.027-463.018 283.212-453.303 300.701-439.561 315.747-423.014 327.135-401.738 341.782-375.838 350.376-347.914 350.376H-130.934C-58.735 350.376 0 292.844 0 222.116ZM-130.934 452.985H-347.907C-453.647 452.985-543.232 383.122-571.875 287.639-574.834 277.759-577.148 267.606-578.753 257.227-580.528 245.782-581.45 234.057-581.45 222.116V0C-581.45-127.37-476.652-230.94-347.907-230.94L-239.421-230.959-130.934-230.933C-2.195-230.933 102.609-127.357 102.609 .007V222.116C102.609 349.422-2.189 452.985-130.934 452.985" fill="#231f20"/>
<path transform="matrix(1,0,0,-1,471.7599,684.084)" d="M0 0C-44.236 0-80.219 35.271-80.219 78.592V214.615C-80.219 228.146-76.701 240.883-70.543 252.03-64.595 262.75-56.178 271.969-46.036 278.923-33.012 287.888-17.132 293.168-.044 293.168H132.843C177.041 293.168 213.024 257.934 213.024 214.62V78.598C213.024 35.278 177.047 0 132.843 0Z" fill="#231f20"/>
<path transform="matrix(1,0,0,-1,2230.7684,684.084)" d="M0 0C-44.236 0-80.219 35.271-80.219 78.592V214.615C-80.219 228.146-76.701 240.883-70.543 252.03-64.595 262.75-56.177 271.969-46.035 278.923-33.012 287.888-17.132 293.168-.044 293.168H132.843C177.041 293.168 213.024 257.934 213.024 214.62V78.598C213.024 35.278 177.048 0 132.843 0Z" fill="#231f20"/>
<path transform="matrix(1,0,0,-1,471.7599,2443.0926)" d="M0 0C-44.236 0-80.219 35.271-80.219 78.592V214.615C-80.219 228.147-76.701 240.883-70.543 252.03-64.595 262.75-56.178 271.969-46.036 278.923-33.012 287.888-17.132 293.168-.044 293.168H132.843C177.041 293.168 213.024 257.934 213.024 214.62V78.599C213.024 35.278 177.047 0 132.843 0Z" fill="#231f20"/>
</g>
</g>
</svg>
