<?xml version="1.0" encoding="utf-8"?>
<!-- Generator: Adobe Illustrator 26.2.1, SVG Export Plug-In . SVG Version: 6.00 Build 0)  -->
<svg version="1.1" id="Layer_1" xmlns="http://www.w3.org/2000/svg" xmlns:xlink="http://www.w3.org/1999/xlink" x="0px" y="0px"
	 viewBox="0 0 500 500" style="enable-background:new 0 0 500 500;" xml:space="preserve">
<style type="text/css">
	.st0{display:none;}
	.st1{display:inline;}
	.st2{fill:#014F81;}
	.st3{fill:#FEFFFF;}
	.st4{display:inline;fill:#014F81;}
	.st5{font-family:'Arial-Black';}
	.st6{font-size:70.8019px;}
	.st7{fill:#FDFDFD;}
	.st8{fill:#C51D22;}
	.st9{fill:#891A1C;}
	.st10{enable-background:new    ;}
	.st11{fill:#FFFFFF;}
	.st12{font-size:30.8043px;}
</style>
<g id="Layer_1_00000047771727704889854280000015944181580292242563_" class="st0">
	<g id="p4UHy9.tif" class="st1">
		<g>
			<g>
				<path class="st2" d="M125.62,359.11c1.18-2.47,2.34-4.94,3.55-7.4c14.88-30.13,29.77-60.26,44.66-90.39
					c0.31-0.62,0.53-1.3,1.07-1.87c10.53,0,21.1,0,31.73,0c0.68,1.61,0.83,3.33,1.17,4.99c3.94,19.33,7.86,38.66,11.78,57.99
					c2.48,12.22,4.94,24.45,7.4,36.67c-10.07,0-20.15,0-30.22,0c-0.36-3.98-1.13-7.89-1.72-11.84c-10.78,0-21.4,0-32.07,0
					c-1.63,3.8-3.23,7.54-4.82,11.28c-0.07,0.16-0.02,0.37-0.02,0.56C147.3,359.11,136.46,359.11,125.62,359.11z M186.59,290.6
					c-3.82,7.23-14.89,34.1-15.02,35.66c4.13,0.37,18.78,0.21,20.16-0.23C190.02,314.23,188.31,302.42,186.59,290.6z"/>
				<path class="st2" d="M320.7,359.11c-0.01-0.68,0.41-1.19,0.69-1.75c15.8-32.08,31.61-64.16,47.42-96.24
					c0.28-0.56,0.45-1.2,1-1.66c10.53,0,21.09,0,31.82,0c0.55,2.62,1.11,5.21,1.63,7.81c4.71,23.19,9.41,46.38,14.11,69.58
					c1.4,6.92,2.81,13.84,4.2,20.76c0.1,0.5,0.23,1,0.1,1.51c-10.07,0-20.15,0-30.22,0c-0.39-3.96-0.87-7.91-1.47-11.84
					c-10.8,0-21.41,0-32.02,0c-1.57,3.64-3.1,7.2-4.63,10.76c-0.15,0.34-0.35,0.69-0.13,1.08
					C342.38,359.11,331.54,359.11,320.7,359.11z M386.65,326.29c-1.75-12.08-3.48-23.95-5.2-35.83c-0.11,0-0.22,0-0.33,0
					c-4.99,11.89-9.98,23.77-15.04,35.83C373,326.29,379.67,326.29,386.65,326.29z"/>
				<path class="st2" d="M256.82,359.11c3.72-24.92,7.45-49.84,11.2-74.96c-9.53,0-18.87,0-28.42,0c1.64-8.49,3.23-16.77,4.84-25.11
					c29.13,0,58.11,0,87.28,0c-1.61,8.35-3.2,16.63-4.83,25.09c-9.06,0-18.01,0-27.04,0c-0.45,3-0.88,5.82-1.3,8.65
					c-1.38,9.38-2.76,18.77-4.12,28.15c-1.46,10.02-2.91,20.03-4.35,30.05c-0.39,2.71-0.75,5.42-1.12,8.13
					C278.24,359.11,267.53,359.11,256.82,359.11z"/>
				<path class="st2" d="M73.22,359.11c0.69-3.62,1.36-7.25,2.08-10.86c3.25-16.22,6.51-32.43,9.76-48.64
					c2.59-12.91,5.16-25.82,7.75-38.73c0.09-0.43,0.23-0.86,0.38-1.38c10.75,0,21.49,0,32.39,0c-6.63,33.26-13.23,66.44-19.84,99.61
					C94.89,359.11,84.05,359.11,73.22,359.11z"/>
				<path class="st3" d="M158.13,359.11c0.01-0.19-0.05-0.4,0.02-0.56c1.59-3.74,3.19-7.48,4.82-11.28c10.67,0,21.29,0,32.07,0
					c0.59,3.95,1.36,7.86,1.72,11.84C183.89,359.11,171.01,359.11,158.13,359.11z"/>
				<path class="st3" d="M353.22,359.11c-0.22-0.39-0.01-0.74,0.13-1.08c1.53-3.56,3.06-7.12,4.63-10.76c10.62,0,21.23,0,32.02,0
					c0.6,3.93,1.08,7.88,1.47,11.84C378.72,359.11,365.97,359.11,353.22,359.11z"/>
				<path class="st2" d="M420.43,220.83c0.2,0.4,0.02,0.68-0.13,0.96c-3.78,6.96-8.99,12.47-16.24,15.89
					c-3.34,1.57-6.86,2.24-10.56,2.23c-13.51-0.04-27.03-0.01-40.54-0.01c-13.77,0-27.54-0.13-41.31,0.03
					c-14.65,0.17-29.67-10.88-34.9-24.18c-0.16-0.41-0.27-0.84-0.41-1.26c0.59-0.6,1.36-0.76,2.04-1.06
					c10.91-4.74,21.27-10.42,30.64-17.8c12.1-9.53,21.5-21.12,27.1-35.59c1.4-3.63,2.55-7.33,3.38-11.13
					c0.13-0.61,0.31-1.22,0.49-1.9c50.8,0,101.56,0,152.28,0c0.22,0.44-0.01,0.7-0.17,0.96c-3.05,4.89-6.49,9.45-10.96,13.16
					c-1.48,1.23-3.07,2.27-4.79,3.12c-2.22,1.09-4.56,1.47-7.03,1.47c-35.31-0.03-70.63-0.02-105.94-0.02
					c-1.08,0-2.16-0.04-3.23,0.26c-1.17,0.34-2.15,0.87-2.36,2.19c-0.18,1.08,0.6,2.15,1.94,2.78c0.7,0.32,1.44,0.52,2.22,0.52
					c0.64,0,1.27,0,1.91,0c34.04,0,68.08,0,102.12,0c0.69,0,1.38,0,2.01,0c0.22,0.36,0.12,0.59,0,0.82
					c-2.82,5.36-6.4,10.11-11.16,13.91c-3.65,2.91-7.71,4.4-12.51,4.38c-31.3-0.09-62.6-0.04-93.89-0.06c-1.29,0-2.55,0.05-3.7,0.7
					c-0.87,0.49-1.59,1.1-1.56,2.21c0.03,1.01,0.7,1.61,1.51,2.05c0.97,0.53,2.01,0.74,3.12,0.73c4.53-0.02,9.05-0.01,13.58-0.01
					c26.45,0,52.91,0,79.36,0c0.69,0,1.38,0,2.05,0c0.17,0.7-0.26,1.06-0.51,1.47c-2.9,4.71-6.42,8.87-10.84,12.23
					c-4.71,3.58-9.96,5.42-15.96,5.4c-26.52-0.08-53.03-0.03-79.55-0.03c-1.14,0-2.29-0.08-3.4,0.36c-0.93,0.37-1.79,0.85-1.91,1.93
					c-0.12,1.17,0.69,1.85,1.62,2.37c0.84,0.47,1.74,0.79,2.72,0.79c0.57,0,1.15,0,1.72,0c26.58,0,53.16,0,79.74,0.01
					C419.11,220.74,419.81,220.62,420.43,220.83z"/>
				<path class="st2" d="M51.54,196.2c0.67,0,1.42,0,2.16,0c30.73,0,61.45,0,92.18,0.01c1.09,0,2.17,0,3.19-0.44
					c1.09-0.47,2.13-1.1,2.1-2.44c-0.03-1.33-1.07-1.95-2.18-2.39c-0.77-0.31-1.58-0.43-2.43-0.42c-1.72,0.03-3.44,0.01-5.16,0.01
					c-29.9,0-59.8-0.03-89.69,0.03c-4.07,0.01-7.65-1.1-10.91-3.42c-5.47-3.9-9.41-9.08-12.51-14.96c-0.08-0.16-0.19-0.35,0.13-0.72
					c0.55,0,1.29,0,2.03,0c34.17,0,68.34,0,102.51,0c1.28,0,2.56,0.04,3.73-0.58c1.06-0.57,1.98-1.33,1.85-2.65
					c-0.13-1.31-1.12-1.9-2.3-2.25c-1.06-0.31-2.14-0.28-3.22-0.28c-35.06,0-70.12-0.04-105.19,0.05c-4.73,0.01-8.73-1.4-12.33-4.29
					c-4.83-3.89-8.52-8.74-11.68-14.02c-0.05-0.09-0.01-0.23-0.01-0.44c50.76,0,101.53,0,152.4,0c0.44,1.79,0.84,3.58,1.32,5.36
					c4.25,15.65,12.81,28.59,24.86,39.31c9.32,8.29,19.88,14.62,31.14,19.86c2.01,0.94,4.05,1.82,6.03,2.71
					c0.31,0.62-0.05,1.07-0.24,1.51c-6.1,13.5-16.41,21.58-31.07,23.97c-1.56,0.25-3.18,0.16-4.77,0.16
					c-26.39,0.01-52.78-0.12-79.18,0.08c-8.78,0.07-15.82-3.17-21.84-9.22c-2.39-2.41-4.41-5.11-6.07-8.07
					c-0.31-0.54-0.55-1.12-0.95-1.94c0.88,0,1.55,0,2.22,0c26.84,0,53.68,0,80.51,0.01c1.16,0,2.29-0.04,3.35-0.57
					c0.57-0.29,1.11-0.62,1.52-1.14c0.77-0.99,0.66-2.07-0.33-2.84c-0.67-0.52-1.45-0.8-2.29-0.86c-0.76-0.05-1.53-0.06-2.29-0.06
					c-26.46,0-52.91-0.05-79.37,0.03c-6.22,0.02-11.61-1.91-16.44-5.68c-4.28-3.33-7.67-7.44-10.47-12.06
					C51.66,197.22,51.26,196.88,51.54,196.2z"/>
				<path class="st2" d="M194.4,176.12c-7.78-7.87-13.63-16.79-17.59-26.95c-3.12-8-4.87-16.27-5.3-24.83
					c1.7-0.27,31.73-0.31,33.98-0.05c0.51,6.67,1.31,13.34,2.87,19.9c1.55,6.51,3.66,12.83,6.43,19.18
					C207.43,166.7,200.62,170.86,194.4,176.12z"/>
				<path class="st2" d="M301.75,176.1c-6.13-5.1-12.73-9.27-20.05-12.71c2.66-6.25,4.89-12.57,6.41-19.12
					c1.53-6.57,2.34-13.25,2.59-20.06c11.35,0,22.48,0,33.89,0c-0.13,7.2-1.48,14.13-3.71,20.9
					C316.98,156.93,310.58,167.2,301.75,176.1z"/>
				<path class="st2" d="M194.4,66.87c6.18,5.32,12.97,9.51,20.41,12.86c-5.5,12.42-8.49,25.29-9.26,38.78c-11.36,0-22.6,0-34.04,0
					c0.45-8.71,2.23-17.04,5.4-25.08C180.86,83.41,186.68,74.61,194.4,66.87z"/>
				<path class="st2" d="M290.69,118.52c-0.47-13.46-3.54-26.31-9.01-38.77c7.17-3.44,13.88-7.55,20.08-12.87
					c14.15,14.36,21.96,31.38,22.89,51.65C313.25,118.52,302.07,118.52,290.69,118.52z"/>
				<path class="st2" d="M245.34,156.12c-8.71,0.38-17.15,2.01-25.46,5c-5.42-11.73-8.16-23.94-8.47-36.87c11.36,0,22.6,0,33.93,0"
					/>
				<path class="st2" d="M251.13,124.19c11.24,0,22.31,0,33.65,0c0.05,12.94-3.09,25.05-8.39,36.9c-8.18-2.92-16.56-4.58-25.26-4.96
					C251.13,145.48,251.13,134.92,251.13,124.19z"/>
				<path class="st2" d="M211.42,118.52c0.32-12.84,3.12-24.99,8.45-36.84c8.24,2.85,16.62,4.78,25.44,5.03c0,10.66,0,21.19,0,31.82
					C234.04,118.52,222.81,118.52,211.42,118.52z"/>
				<path class="st2" d="M276.36,81.65c5.26,11.81,8.42,23.88,8.44,36.67c-1.41,0.38-30.64,0.5-33.67,0.14c0-10.52,0-21.04,0-31.74
					C259.77,86.41,268.06,84.6,276.36,81.65z"/>
				<path class="st2" d="M256.42,45.72c15.33,1.88,29.04,7.48,41.04,17.14c-2.26,3.11-12.83,9.93-18.51,11.91
					c-2.95-5.34-6.23-10.54-10.05-15.37C265.07,54.56,260.85,50.07,256.42,45.72z"/>
				<path class="st2" d="M198.57,63.03c12.16-9.79,25.83-15.41,41.1-17.41c-8.88,8.62-16.63,18.05-22.38,29.22
					C210.31,72.07,204.35,67.94,198.57,63.03z"/>
				<path class="st2" d="M239.83,197.21c-15.29-2.06-29.06-7.52-41.27-17.37c5.88-4.54,11.67-8.93,18.71-11.62
					C223.16,179.23,230.76,188.78,239.83,197.21z"/>
				<path class="st2" d="M256.37,197.18c9.11-8.4,16.71-17.95,22.52-28.82c4.22,1.11,14.99,7.64,18.65,11.58
					C285.45,189.59,271.71,195.16,256.37,197.18z"/>
				<path class="st2" d="M222.58,165.98c7.53-2.65,14.96-4.02,22.62-4.08c0.31,1.79,0.32,30.17-0.01,32.15
					C235.66,186.27,228.25,177,222.58,165.98z"/>
				<path class="st2" d="M245.28,81.07c-4.51,0.8-16.81-1.97-22.47-4.34c2.43-7.05,14.92-22.56,22.27-27.67
					c0.06,0.02,0.12,0.04,0.18,0.07c0.05,0.03,0.11,0.08,0.11,0.12c0.03,10.31,0.05,20.61,0.06,30.92
					C245.43,80.49,245.48,80.82,245.28,81.07z"/>
				<path class="st2" d="M251.1,81.18c0-10.79,0-21.45,0-32.48c9.47,7.95,16.96,17.09,22.46,27.87
					C269.75,78.74,257.34,81.65,251.1,81.18z"/>
				<path class="st2" d="M273.67,165.99c-5.69,11.02-13.09,20.29-22.5,28.36c0-10.92,0-21.56,0-32.43
					C258.82,161.96,266.19,163.58,273.67,165.99z"/>
			</g>
		</g>
	</g>
	<text transform="matrix(1 0 0 1 56.2051 431.1055)" class="st4 st5 st6">42213253</text>
</g>
<g id="Layer_2_00000034774408990453675790000013568747992683016870_">
	<g id="NyUo0j_00000006701844279985406380000016429874074990052006_">
		<g>
			<g>
				<path class="st7" d="M181.65,216.92c0.8-0.71,1.6-1.41,2.4-2.12c18.99-19.85,37.98-39.69,55.99-58.51
					c-19.75-20.47-40.8-42.25-61.77-64.09c-2.85-2.97-6.33-2.31-9.71-2.32c-17.65-0.04-35.3-0.01-52.95-0.01
					c-23.82,0-47.64,0-73.1,0c22.82,22.91,44.45,44.61,66.08,66.33c-15.26,16.81-31.9,30.39-45.63,46.81
					c-0.88,0.78-1.75,1.55-2.63,2.33l0.12-0.12c-0.68,0.67-1.35,1.34-2.03,2l0.13-0.13c-0.68,0.67-1.36,1.34-2.03,2.01l0.13-0.13
					c-0.67,0.68-1.35,1.35-2.02,2.03l0.13-0.13c-0.67,0.68-1.35,1.35-2.02,2.03l0.13-0.13c-0.67,0.67-1.35,1.35-2.02,2.02l0.13-0.13
					c-0.67,0.67-1.35,1.35-2.02,2.02l0.08-0.11c-2.21,1.49-4.49,2.93-5.23,6.03c1.28,0.21,2.16,0.48,3.04,0.48
					c41.25,0.04,82.5,0.08,123.75,0.05c2.67,0,5.84,0.88,7.41-2.55l-0.13,0.08c0.7-0.67,1.4-1.34,2.1-2.01l-0.19,0.19
					c0.69-0.69,1.39-1.39,2.08-2.08L181.65,216.92z M418.43,192.49c0.75-0.7,1.5-1.4,2.25-2.1l-0.28,0.3
					c1.92-0.76,3.35-2.05,4.2-3.95l-0.29,0.3c1.94-0.74,3.4-1.99,4.23-3.92l-0.29,0.28c0.75-0.68,1.5-1.36,2.25-2.04l-0.08,0.28
					c2.17-0.75,3.03-2.45,3.29-4.57c9.42-4.6,15.37-13,23.59-19.91c-14.9-13.41-29.02-25.75-42.73-38.52
					c-28.88-26.9-57.4-54.21-86.45-80.92c-5.65-5.2-12.32-9.11-16.81-15.76c-4.09-6.06-10.2-8-17.91-7.94
					c-44.16,0.39-88.33,0.19-132.49,0.19c-3.31,0-6.61,0-12.15,0c52.46,48.74,103.14,95.83,154.28,143.35
					c-21.74,20.15-43.31,39.73-64.41,59.81c-17.5,16.66-35.66,32.58-52.66,49.84c-9.75,9.9-21.29,18.3-31.02,28.49
					c-1.52,0.86-3.32,1.49-3.08,4c0.96,0.15,1.83,0.41,2.69,0.41c47.3,0.03,94.6,0.05,141.9-0.01c2.3,0,5.17,1.19,6.68-1.92
					c16.52-10.64,29.31-25.45,43.45-38.75c0.77-0.88,1.54-1.77,2.31-2.65l-0.15,0.46c0.73-0.69,1.46-1.37,2.19-2.06l-0.15,0.3
					c1.06-0.94,2.12-1.88,3.18-2.82l-0.08,0.07c0.71-0.66,1.42-1.33,2.13-1.99c0.55-0.52,1.1-1.05,1.66-1.57
					c0.76-0.73,1.52-1.45,2.28-2.18c13.62-11.94,27.6-23.51,39.42-37.36c0.83-0.66,1.67-1.33,2.5-1.99l-0.11,0.41
					c1.09-0.92,2.18-1.84,3.26-2.76l-0.04,0.03c1.36-1.27,2.73-2.54,4.09-3.81c0.55-0.51,1.09-1.01,1.64-1.52
					c0.7-0.73,1.4-1.46,2.1-2.19l-0.16,0.16c0.71-0.67,1.42-1.35,2.13-2.02l-0.2,0.21c0.71-0.69,1.43-1.39,2.14-2.08l-0.23,0.23
					c0.74-0.69,1.49-1.37,2.23-2.06C418.7,192.22,418.43,192.49,418.43,192.49z"/>
				<path class="st8" d="M154.93,295.69c9.74-10.19,21.27-18.59,31.02-28.49c17-17.26,35.16-33.18,52.66-49.84
					c21.1-20.08,42.67-39.66,64.41-59.81C251.88,110.04,201.2,62.95,148.74,14.2c5.54,0,8.85,0,12.15,0
					c44.16,0,88.33,0.2,132.49-0.19c7.71-0.07,13.83,1.87,17.91,7.94c4.49,6.66,11.16,10.57,16.81,15.76
					c29.06,26.71,57.57,54.02,86.45,80.92c13.71,12.77,27.83,25.12,42.73,38.52c-8.23,6.91-14.17,15.31-23.59,19.91
					c-2.25,0.69-3.8,1.89-3.29,4.57c0,0,0.08-0.28,0.07-0.28c-1.48-0.12-2.19,0.6-2.25,2.05l0.29-0.28
					c-2.66-0.04-3.98,1.37-4.23,3.92l0.29-0.3c-2.53,0.11-3.87,1.49-4.2,3.95c0,0,0.28-0.3,0.27-0.3c-0.75,0.7-1.5,1.4-2.25,2.1
					l0.27-0.27c-0.74,0.69-1.48,1.37-2.23,2.06l0.23-0.23c-0.71,0.69-1.43,1.39-2.14,2.08l0.2-0.21c-0.71,0.67-1.42,1.35-2.13,2.02
					l0.16-0.16c-0.7,0.73-1.4,1.46-2.1,2.19c-0.55,0.51-1.09,1.01-1.64,1.52c-2.57-0.02-4.02,1.15-4.09,3.81l0.04-0.03
					c-1.71,0.19-3.38,0.42-3.26,2.76l0.11-0.41c-1.36,0-2.12,0.76-2.5,1.99c-11.81,13.85-25.79,25.42-39.42,37.36
					c-0.76,0.73-1.52,1.45-2.28,2.18c-0.55,0.52-1.1,1.05-1.66,1.57c-0.71,0.66-1.42,1.33-2.13,1.99l0.08-0.07
					c-1.76,0.15-3.42,0.41-3.18,2.82c0,0,0.15-0.3,0.14-0.3c-1.5-0.13-2.19,0.6-2.18,2.06c0,0,0.15-0.46,0.14-0.46
					c-1.54,0.21-2.15,1.23-2.31,2.65c-14.14,13.3-26.93,28.12-43.45,38.75c-45.89-0.05-91.78-0.07-137.67-0.21
					C161.88,297.94,157.79,299.39,154.93,295.69z"/>
				<path class="st8" d="M62.95,203.02c13.73-16.41,30.37-30,45.63-46.81C86.95,134.5,65.32,112.79,42.5,89.88
					c25.46,0,49.28,0,73.1,0c17.65,0,35.3-0.03,52.95,0.01c3.39,0.01,6.86-0.65,9.71,2.32c20.97,21.85,42.02,43.62,61.77,64.09
					c-18.01,18.82-37,38.66-55.99,58.51c-0.8,0.71-1.6,1.41-2.4,2.11l0.2-0.18c-0.69,0.7-1.39,1.39-2.08,2.08
					c0,0,0.19-0.19,0.19-0.18c-0.7,0.67-1.4,1.34-2.1,2.01l0.13-0.08c-39.92-0.07-79.83-0.09-119.75-0.27
					c-3.36-0.02-7.96,1.95-9.22-3.72l-0.08,0.11c0.67-0.67,1.35-1.35,2.02-2.02l-0.13,0.13c0.67-0.67,1.35-1.34,2.02-2.02
					l-0.13,0.13c0.67-0.68,1.34-1.35,2.02-2.03l-0.13,0.13c0.67-0.68,1.35-1.35,2.02-2.03l-0.13,0.13c0.68-0.67,1.36-1.34,2.03-2.01
					l-0.13,0.13c0.68-0.67,1.35-1.34,2.03-2l-0.12,0.12C61.2,204.57,62.07,203.79,62.95,203.02z"/>
				<path class="st9" d="M154.93,295.69c2.86,3.71,6.95,2.26,10.52,2.27c45.89,0.15,91.78,0.16,137.67,0.21
					c-1.5,3.11-4.38,1.92-6.67,1.92c-47.3,0.06-94.6,0.04-141.9,0.01c-0.87,0-1.73-0.26-2.69-0.41
					C151.61,297.18,153.41,296.54,154.93,295.69z"/>
				<path class="st9" d="M49.01,216.58c1.26,5.67,5.86,3.71,9.22,3.72c39.92,0.18,79.83,0.21,119.75,0.27
					c-1.57,3.43-4.74,2.55-7.41,2.55c-41.25,0.03-82.5,0-123.75-0.05c-0.88,0-1.76-0.27-3.04-0.48
					C44.53,219.5,46.8,218.06,49.01,216.58z"/>
				<path class="st9" d="M430.42,181.63c-0.51-2.68,1.04-3.88,3.29-4.57C433.45,179.18,432.59,180.87,430.42,181.63z"/>
				<path class="st9" d="M424.31,187.04c0.25-2.56,1.57-3.96,4.23-3.92C427.71,185.04,426.25,186.3,424.31,187.04z"/>
				<path class="st9" d="M420.4,190.69c0.32-2.46,1.66-3.83,4.2-3.95C423.75,188.64,422.32,189.92,420.4,190.69z"/>
				<path class="st9" d="M404.97,205.29c0.08-2.65,1.52-3.83,4.09-3.81C407.7,202.76,406.33,204.03,404.97,205.29z"/>
				<path class="st9" d="M401.74,208.03c-0.12-2.35,1.56-2.57,3.26-2.76C403.92,206.18,402.83,207.1,401.74,208.03z"/>
				<path class="st9" d="M350.77,255.46c-0.25-2.41,1.41-2.68,3.18-2.82C352.89,253.57,351.83,254.51,350.77,255.46z"/>
				<path class="st9" d="M410.7,199.97c0.7-0.73,1.4-1.46,2.1-2.19C412.09,198.5,411.4,199.24,410.7,199.97z"/>
				<path class="st9" d="M54.74,210.88c-0.67,0.68-1.34,1.35-2.02,2.03C53.4,212.23,54.07,211.55,54.74,210.88z"/>
				<path class="st9" d="M52.85,212.78c-0.67,0.67-1.35,1.34-2.02,2.02C51.5,214.12,52.18,213.45,52.85,212.78z"/>
				<path class="st9" d="M412.63,197.94c0.71-0.67,1.42-1.35,2.13-2.02C414.05,196.59,413.34,197.26,412.63,197.94z"/>
				<path class="st9" d="M346.57,259.41c0.15-1.42,0.76-2.44,2.31-2.65C348.11,257.64,347.34,258.53,346.57,259.41z"/>
				<path class="st9" d="M414.56,196.13c0.71-0.69,1.43-1.39,2.14-2.08C415.99,194.74,415.27,195.43,414.56,196.13z"/>
				<path class="st9" d="M348.74,257.22c-0.01-1.47,0.68-2.19,2.18-2.06C350.19,255.85,349.46,256.53,348.74,257.22z"/>
				<path class="st9" d="M416.47,194.28c0.74-0.69,1.48-1.37,2.23-2.06C417.96,192.9,417.21,193.59,416.47,194.28z"/>
				<path class="st9" d="M50.96,214.67c-0.67,0.67-1.35,1.35-2.02,2.02C49.61,216.02,50.28,215.34,50.96,214.67z"/>
				<path class="st9" d="M418.43,192.49c0.75-0.7,1.5-1.4,2.25-2.1C419.93,191.09,419.18,191.79,418.43,192.49z"/>
				<path class="st9" d="M62.95,203.02c-0.88,0.78-1.75,1.55-2.63,2.33C61.2,204.57,62.07,203.79,62.95,203.02z"/>
				<path class="st9" d="M56.64,208.98c-0.67,0.68-1.35,1.35-2.02,2.03C55.29,210.34,55.96,209.66,56.64,208.98z"/>
				<path class="st9" d="M428.25,183.39c0.05-1.44,0.77-2.16,2.25-2.05C429.75,182.03,429,182.71,428.25,183.39z"/>
				<path class="st9" d="M353.87,252.7c0.71-0.66,1.42-1.33,2.13-1.99C355.29,251.38,354.58,252.04,353.87,252.7z"/>
				<path class="st9" d="M60.44,205.23c-0.68,0.67-1.35,1.34-2.03,2C59.09,206.56,59.76,205.89,60.44,205.23z"/>
				<path class="st9" d="M399.36,209.61c0.37-1.23,1.13-1.99,2.5-1.99C401.02,208.28,400.19,208.94,399.36,209.61z"/>
				<path class="st9" d="M357.66,249.14c0.76-0.73,1.52-1.45,2.28-2.18C359.18,247.69,358.42,248.41,357.66,249.14z"/>
				<path class="st9" d="M58.54,207.1c-0.68,0.67-1.36,1.34-2.03,2.01C57.18,208.45,57.86,207.77,58.54,207.1z"/>
				<path class="st9" d="M177.86,220.66c0.7-0.67,1.4-1.34,2.1-2.01C179.26,219.31,178.56,219.98,177.86,220.66z"/>
				<path class="st9" d="M179.77,218.83c0.69-0.69,1.39-1.39,2.08-2.08C181.16,217.44,180.46,218.13,179.77,218.83z"/>
				<path class="st9" d="M181.65,216.92c0.8-0.7,1.6-1.41,2.4-2.11C183.25,215.51,182.45,216.21,181.65,216.92z"/>
			</g>
		</g>
	</g>
	<g class="st10">
		<path class="st11" d="M94.82,415.68l8.66,2.62c-0.58,2.43-1.5,4.46-2.75,6.09c-1.25,1.63-2.8,2.86-4.66,3.69s-4.22,1.24-7.08,1.24
			c-3.48,0-6.32-0.51-8.52-1.52c-2.2-1.01-4.11-2.79-5.71-5.33c-1.6-2.54-2.4-5.8-2.4-9.77c0-5.29,1.41-9.36,4.22-12.2
			c2.81-2.84,6.8-4.26,11.95-4.26c4.03,0,7.2,0.81,9.5,2.44c2.31,1.63,4.02,4.13,5.14,7.51l-8.73,1.94
			c-0.31-0.97-0.63-1.69-0.96-2.14c-0.55-0.76-1.23-1.34-2.03-1.75c-0.8-0.41-1.69-0.61-2.68-0.61c-2.24,0-3.96,0.9-5.15,2.7
			c-0.9,1.34-1.35,3.44-1.35,6.3c0,3.55,0.54,5.98,1.61,7.29c1.08,1.32,2.59,1.97,4.54,1.97c1.89,0,3.32-0.53,4.29-1.59
			C93.68,419.24,94.39,417.7,94.82,415.68z"/>
		<path class="st11" d="M108.02,396.78h8.88v6.04h-8.88V396.78z M108.02,405.6h8.88v23.17h-8.88V405.6z"/>
		<path class="st11" d="M119.96,405.6h9.24l4.5,14.69l4.67-14.69h8.96l-9.85,23.17h-7.88L119.96,405.6z"/>
		<path class="st11" d="M150.21,396.78h8.88v6.04h-8.88V396.78z M150.21,405.6h8.88v23.17h-8.88V405.6z"/>
		<path class="st11" d="M165.07,396.78h8.9v31.99h-8.9V396.78z"/>
		<path class="st11" d="M214.8,423.49h-11.22l-1.56,5.28h-10.09l12.02-31.99h10.78l12.02,31.99h-10.35L214.8,423.49z M212.75,416.57
			l-3.53-11.5l-3.49,11.5H212.75z"/>
		<path class="st11" d="M225.93,405.6h9.24l4.5,14.69l4.67-14.69h8.96l-9.85,23.17h-7.88L225.93,405.6z"/>
		<path class="st11" d="M256.17,396.78h8.88v6.04h-8.88V396.78z M256.17,405.6h8.88v23.17h-8.88V405.6z"/>
		<path class="st11" d="M278.82,413.1l-8.49-0.89c0.32-1.48,0.78-2.65,1.38-3.5c0.6-0.85,1.47-1.59,2.61-2.21
			c0.81-0.45,1.93-0.8,3.36-1.05c1.43-0.25,2.97-0.37,4.63-0.37c2.66,0,4.8,0.15,6.42,0.45c1.61,0.3,2.96,0.92,4.04,1.87
			c0.76,0.66,1.35,1.58,1.79,2.78s0.66,2.35,0.66,3.44v10.23c0,1.09,0.07,1.95,0.21,2.56c0.14,0.62,0.44,1.41,0.91,2.37h-8.34
			c-0.33-0.6-0.55-1.05-0.65-1.36c-0.1-0.31-0.2-0.8-0.31-1.47c-1.16,1.12-2.32,1.92-3.47,2.4c-1.57,0.64-3.4,0.96-5.48,0.96
			c-2.76,0-4.86-0.64-6.29-1.92c-1.43-1.28-2.15-2.86-2.15-4.74c0-1.76,0.52-3.21,1.55-4.34s2.94-1.98,5.72-2.53
			c3.33-0.67,5.49-1.14,6.48-1.41s2.04-0.62,3.14-1.06c0-1.09-0.23-1.85-0.68-2.29s-1.24-0.66-2.38-0.66c-1.46,0-2.55,0.23-3.27,0.7
			C279.63,411.42,279.17,412.1,278.82,413.1z M286.53,417.77c-1.22,0.44-2.5,0.82-3.82,1.16c-1.8,0.48-2.95,0.95-3.43,1.42
			c-0.49,0.48-0.74,1.03-0.74,1.64c0,0.7,0.24,1.27,0.73,1.71c0.49,0.44,1.2,0.67,2.15,0.67c0.99,0,1.91-0.24,2.76-0.72
			c0.85-0.48,1.45-1.07,1.81-1.76c0.36-0.69,0.53-1.59,0.53-2.7V417.77z"/>
		<path class="st11" d="M310.49,396.78v8.82h4.89v6.5h-4.89v8.21c0,0.99,0.09,1.64,0.28,1.96c0.29,0.49,0.8,0.74,1.53,0.74
			c0.66,0,1.57-0.19,2.75-0.57l0.65,6.13c-2.2,0.48-4.25,0.72-6.15,0.72c-2.21,0-3.84-0.28-4.89-0.85
			c-1.05-0.57-1.82-1.43-2.32-2.58s-0.75-3.03-0.75-5.61v-8.15h-3.27v-6.5h3.27v-4.25L310.49,396.78z"/>
		<path class="st11" d="M319.94,396.78h8.88v6.04h-8.88V396.78z M319.94,405.6h8.88v23.17h-8.88V405.6z"/>
		<path class="st11" d="M333.4,417.25c0-3.54,1.19-6.45,3.58-8.74s5.61-3.44,9.67-3.44c4.64,0,8.15,1.35,10.52,4.04
			c1.91,2.17,2.86,4.84,2.86,8.01c0,3.56-1.18,6.49-3.55,8.76c-2.36,2.28-5.63,3.42-9.81,3.42c-3.72,0-6.74-0.95-9.03-2.84
			C334.81,424.12,333.4,421.05,333.4,417.25z M342.3,417.23c0,2.07,0.42,3.59,1.25,4.58c0.84,0.99,1.89,1.48,3.15,1.48
			c1.28,0,2.33-0.49,3.15-1.46s1.23-2.54,1.23-4.69c0-2.01-0.42-3.5-1.24-4.48c-0.83-0.98-1.85-1.47-3.08-1.47
			c-1.29,0-2.36,0.5-3.21,1.5C342.73,413.67,342.3,415.19,342.3,417.23z"/>
		<path class="st11" d="M364.3,405.6h8.27v3.78c1.24-1.54,2.49-2.64,3.75-3.31c1.27-0.66,2.81-0.99,4.63-0.99
			c2.46,0,4.38,0.73,5.77,2.19c1.39,1.46,2.08,3.72,2.08,6.78v14.73h-8.92v-12.74c0-1.45-0.27-2.48-0.81-3.09
			c-0.54-0.6-1.29-0.91-2.27-0.91c-1.08,0-1.95,0.41-2.62,1.22c-0.67,0.82-1,2.28-1,4.39v11.13h-8.88V405.6z"/>
	</g>
	<text transform="matrix(1 0 0 1 149.0732 469.5312)" class="st11 st5 st12">2016/1925</text>
	<g>
		<path class="st11" d="M93.84,371.41c-3.51,0-6.41-0.15-8.7-0.45c-2.29-0.3-4.08-0.84-5.37-1.63c-1.29-0.79-2.21-1.9-2.76-3.33
			s-0.83-3.28-0.83-5.52c0-1.24,0.06-2.48,0.18-3.74c0.12-1.25,0.3-2.49,0.55-3.71c0.25-1.22,0.54-2.35,0.88-3.38l5.82,1
			c-0.4,1.5-0.74,2.97-1.03,4.39c-0.28,1.42-0.43,2.8-0.43,4.14c0,1.17,0.04,2.18,0.13,3.03c0.08,0.85,0.23,1.68,0.43,2.48h14.14
			c2.44,0,4.35-0.08,5.74-0.23c1.39-0.15,2.37-0.42,2.96-0.8c0.58-0.38,0.88-0.93,0.88-1.63v-4.76h5.97v3.06
			c0,2.14-0.28,3.92-0.83,5.34c-0.55,1.42-1.5,2.55-2.86,3.38c-1.35,0.84-3.24,1.44-5.67,1.81
			C100.61,371.23,97.55,371.41,93.84,371.41z M90.53,380.84c-0.43,0-0.93-0.2-1.48-0.6c-0.55-0.4-1.03-0.89-1.43-1.46
			c-0.4-0.57-0.6-1.05-0.6-1.45c0-0.47,0.2-0.97,0.6-1.5c0.4-0.54,0.88-1,1.43-1.4c0.55-0.4,1.04-0.6,1.48-0.6
			c0.43,0,0.92,0.2,1.45,0.6c0.53,0.4,1,0.87,1.4,1.4c0.4,0.53,0.6,1.02,0.6,1.45c0,0.43-0.2,0.93-0.6,1.48
			c-0.4,0.55-0.87,1.04-1.4,1.45C91.45,380.63,90.96,380.84,90.53,380.84z M105.12,357.27c-1.77,0-3.65-0.14-5.64-0.43
			c-1.99-0.28-3.79-0.68-5.39-1.18l0.95-6.37c1.64,0.4,3.16,0.71,4.56,0.93c1.4,0.22,2.77,0.33,4.11,0.33h13.94v6.72H105.12z
			 M98.9,380.84c-0.43,0-0.93-0.2-1.48-0.6c-0.55-0.4-1.03-0.89-1.43-1.46c-0.4-0.57-0.6-1.05-0.6-1.45c0-0.47,0.2-0.97,0.6-1.5
			c0.4-0.54,0.88-1,1.43-1.4c0.55-0.4,1.04-0.6,1.48-0.6c0.43,0,0.92,0.2,1.45,0.6c0.53,0.4,1,0.87,1.4,1.4
			c0.4,0.53,0.6,1.02,0.6,1.45c0,0.43-0.2,0.93-0.6,1.48c-0.4,0.55-0.87,1.04-1.4,1.45C99.82,380.63,99.34,380.84,98.9,380.84z"/>
		<path class="st11" d="M115.65,357.27v-6.72h7.77V333.7h5.97v23.57H115.65z M126.43,327.83c-0.44,0-0.93-0.2-1.48-0.6
			s-1.03-0.89-1.43-1.45s-0.6-1.05-0.6-1.45c0-0.47,0.2-0.97,0.6-1.5c0.4-0.53,0.88-1,1.43-1.4s1.04-0.6,1.48-0.6
			c0.43,0,0.92,0.2,1.45,0.6c0.53,0.4,1,0.87,1.4,1.4c0.4,0.54,0.6,1.02,0.6,1.45c0,0.44-0.2,0.93-0.6,1.48
			c-0.4,0.55-0.87,1.04-1.4,1.45C127.35,327.62,126.87,327.83,126.43,327.83z"/>
		<path class="st11" d="M134.71,357.27v-6.72h15.75c-0.6-2.31-1.16-4.19-1.68-5.64c-0.52-1.45-1.08-2.59-1.68-3.41
			c-0.6-0.82-1.31-1.38-2.13-1.68c-0.82-0.3-1.8-0.45-2.93-0.45c-0.8,0-1.64,0.05-2.51,0.15c-0.87,0.1-1.65,0.25-2.36,0.45
			l-1.65-6.57c0.97-0.23,2.03-0.42,3.18-0.55c1.15-0.13,2.26-0.2,3.33-0.2c1.81,0,3.37,0.14,4.69,0.43
			c1.32,0.29,2.47,0.81,3.46,1.58c0.99,0.77,1.88,1.87,2.68,3.31s1.58,3.3,2.33,5.59c0.75,2.29,1.56,5.12,2.43,8.5v5.21H134.71z
			 M156.12,350.55h4.51v6.72h-4.51V350.55z"/>
		<path class="st11" d="M179.44,333.1c2.34,0,4.23,0.25,5.67,0.75c1.44,0.5,2.49,1.31,3.16,2.43c0.67,1.12,1,2.6,1,4.44v16.55
			h-30.64v-6.72h24.67v-10.38c-0.64-0.13-1.31-0.23-2.03-0.28c-0.72-0.05-1.56-0.08-2.53-0.08c-1.47,0-3.02,0.1-4.64,0.3
			s-3.22,0.52-4.79,0.95l-2.36-5.82c1.2-0.5,2.5-0.91,3.89-1.23c1.39-0.32,2.82-0.55,4.29-0.7
			C176.6,333.17,178.03,333.1,179.44,333.1z M167.6,355.16c-1-1.14-1.66-2.56-1.98-4.26c-0.32-1.7-0.48-3.59-0.48-5.67
			c0-1.77,0.17-3.46,0.5-5.07c0.33-1.6,0.77-3.24,1.3-4.91l6.02,1.4c-0.57,1.64-1.02,3.13-1.35,4.46c-0.33,1.34-0.5,2.71-0.5,4.11
			c0,1.27,0.05,2.39,0.15,3.36c0.1,0.97,0.28,1.86,0.55,2.66s0.63,1.57,1.1,2.31L167.6,355.16z M189.27,350.55h5.32v6.72h-5.32
			V350.55z"/>
		<path class="st11" d="M206.32,357.27h-13.74v-6.72h7.77v-24.87h5.97V357.27z"/>
		<path class="st11" d="M214.89,357.27v-31.59h5.97v31.59H214.89z"/>
		<path class="st11" d="M246.28,362.53h7.87c2.07,0,3.56-0.18,4.46-0.53c0.9-0.35,1.35-1.06,1.35-2.13V333.7h5.97v24.27
			c0,2.24-0.18,4.1-0.53,5.59c-0.35,1.49-1,2.65-1.96,3.48s-2.32,1.42-4.09,1.76c-1.77,0.33-4.08,0.5-6.92,0.5
			c-2.61,0-4.74-0.18-6.39-0.53c-1.66-0.35-2.94-0.96-3.86-1.83c-0.92-0.87-1.55-2.07-1.91-3.61s-0.53-3.49-0.53-5.87
			c0-1.4,0.06-2.82,0.18-4.26c0.12-1.44,0.3-2.84,0.55-4.21c0.25-1.37,0.54-2.66,0.88-3.86l5.62,0.95c-0.4,1.8-0.71,3.55-0.93,5.24
			c-0.22,1.69-0.33,3.33-0.33,4.94c0,1.34,0.04,2.5,0.13,3.49C245.94,360.74,246.08,361.66,246.28,362.53z M252.95,327.83
			c-0.44,0-0.93-0.2-1.48-0.6c-0.55-0.4-1.03-0.89-1.43-1.45c-0.4-0.57-0.6-1.05-0.6-1.45c0-0.47,0.2-0.97,0.6-1.5
			c0.4-0.53,0.88-1,1.43-1.4c0.55-0.4,1.04-0.6,1.48-0.6c0.43,0,0.92,0.2,1.45,0.6s1,0.87,1.4,1.4c0.4,0.54,0.6,1.02,0.6,1.45
			c0,0.44-0.2,0.93-0.6,1.48c-0.4,0.55-0.87,1.04-1.4,1.45C253.87,327.62,253.39,327.83,252.95,327.83z"/>
		<path class="st11" d="M274.52,357.27v-31.59h5.97v31.59H274.52z"/>
		<path class="st11" d="M288.21,370.91l-2.26-5.37c1.3-0.6,2.31-1.25,3.03-1.96c0.72-0.7,1.22-1.6,1.5-2.71
			c0.28-1.1,0.43-2.54,0.43-4.31V333.7h5.97v22.87c0,2.54-0.29,4.71-0.88,6.49c-0.58,1.79-1.5,3.31-2.76,4.56
			C291.99,368.88,290.31,369.97,288.21,370.91z M296.78,350.55h5.32v6.72h-5.32V350.55z"/>
		<path class="st11" d="M313.83,350.55h5.32v6.72h-19.06v-6.72h7.77V333.7h5.97V350.55z M306.56,368.3c-0.43,0-0.93-0.2-1.48-0.6
			c-0.55-0.4-1.03-0.89-1.43-1.45c-0.4-0.57-0.6-1.05-0.6-1.45c0-0.47,0.2-0.97,0.6-1.5c0.4-0.54,0.88-1,1.43-1.4
			c0.55-0.4,1.04-0.6,1.48-0.6s0.92,0.2,1.45,0.6s1,0.87,1.4,1.4c0.4,0.53,0.6,1.02,0.6,1.45s-0.2,0.93-0.6,1.48
			s-0.87,1.04-1.4,1.45S306.99,368.3,306.56,368.3z M314.93,368.3c-0.43,0-0.93-0.2-1.48-0.6s-1.03-0.89-1.43-1.45
			c-0.4-0.57-0.6-1.05-0.6-1.45c0-0.47,0.2-0.97,0.6-1.5c0.4-0.54,0.88-1,1.43-1.4s1.04-0.6,1.48-0.6c0.43,0,0.92,0.2,1.45,0.6
			c0.53,0.4,1,0.87,1.4,1.4c0.4,0.53,0.6,1.02,0.6,1.45s-0.2,0.93-0.6,1.48s-0.87,1.04-1.4,1.45
			C315.85,368.09,315.37,368.3,314.93,368.3z"/>
		<path class="st11" d="M360.87,350.55v6.72h-43.73v-6.72H360.87z M349.58,357.27v-16.8c-1.17-0.37-3.11-0.55-5.82-0.55
			c-4.31,0-7.54,1.07-9.68,3.21c-2.14,2.14-3.21,5.38-3.21,9.73h-5.97v-27.18h5.97v15.85c0.74-1.74,1.85-3.23,3.33-4.46
			c1.49-1.24,3.27-2.19,5.34-2.86c2.07-0.67,4.35-1,6.82-1c2.34,0,4.18,0.23,5.52,0.7c1.34,0.47,2.28,1.26,2.83,2.38
			c0.55,1.12,0.83,2.67,0.83,4.64v16.35H349.58z"/>
		<path class="st11" d="M372.6,357.27h-13.74v-6.72h7.77v-24.87h5.97V357.27z"/>
		<path class="st11" d="M381.18,357.27v-31.59h5.97v31.59H381.18z"/>
	</g>
</g>
</svg>
