<?xml version="1.0" encoding="utf-8"?>
<!-- Generator: Adobe Illustrator 26.2.1, SVG Export Plug-In . SVG Version: 6.00 Build 0)  -->
<svg version="1.1" id="Layer_1" xmlns="http://www.w3.org/2000/svg" xmlns:xlink="http://www.w3.org/1999/xlink" x="0px" y="0px"
	 viewBox="0 0 500 500" style="enable-background:new 0 0 500 500;" xml:space="preserve">
<style type="text/css">
	.st0{fill:#FFFFFF;}
	.st1{font-family:'Arial-Black';}
	.st2{font-size:70.8019px;}
</style>
<g id="p4UHy9.tif">
	<g>
		<g>
			<path class="st0" d="M125.62,359.11c1.18-2.47,2.34-4.94,3.55-7.4c14.88-30.13,29.77-60.26,44.66-90.39
				c0.31-0.62,0.53-1.3,1.07-1.87c10.53,0,21.1,0,31.73,0c0.68,1.61,0.83,3.33,1.17,4.99c3.94,19.33,7.86,38.66,11.78,57.99
				c2.48,12.22,4.94,24.45,7.4,36.67c-10.07,0-20.15,0-30.22,0c-0.36-3.98-1.13-7.89-1.72-11.84c-10.78,0-21.4,0-32.07,0
				c-1.63,3.8-3.23,7.54-4.82,11.28c-0.07,0.16-0.02,0.37-0.02,0.56C147.3,359.11,136.46,359.11,125.62,359.11z M186.59,290.6
				c-3.82,7.23-14.89,34.1-15.02,35.66c4.13,0.37,18.78,0.21,20.16-0.23C190.02,314.23,188.31,302.42,186.59,290.6z"/>
			<path class="st0" d="M320.7,359.11c-0.01-0.68,0.41-1.19,0.69-1.75c15.8-32.08,31.61-64.16,47.42-96.24
				c0.28-0.56,0.45-1.2,1-1.66c10.53,0,21.09,0,31.82,0c0.55,2.62,1.11,5.21,1.63,7.81c4.71,23.19,9.41,46.38,14.11,69.58
				c1.4,6.92,2.81,13.84,4.2,20.76c0.1,0.5,0.23,1,0.1,1.51c-10.07,0-20.15,0-30.22,0c-0.39-3.96-0.87-7.91-1.47-11.84
				c-10.8,0-21.41,0-32.02,0c-1.57,3.64-3.1,7.2-4.63,10.76c-0.15,0.34-0.35,0.69-0.13,1.08
				C342.38,359.11,331.54,359.11,320.7,359.11z M386.65,326.29c-1.75-12.08-3.48-23.95-5.2-35.83c-0.11,0-0.22,0-0.33,0
				c-4.99,11.89-9.98,23.77-15.04,35.83C373,326.29,379.67,326.29,386.65,326.29z"/>
			<path class="st0" d="M256.82,359.11c3.72-24.92,7.45-49.84,11.2-74.96c-9.53,0-18.87,0-28.42,0c1.64-8.49,3.23-16.77,4.84-25.11
				c29.13,0,58.11,0,87.28,0c-1.61,8.35-3.2,16.63-4.83,25.09c-9.06,0-18.01,0-27.04,0c-0.45,3-0.88,5.82-1.3,8.65
				c-1.38,9.38-2.76,18.77-4.12,28.15c-1.46,10.02-2.91,20.03-4.35,30.05c-0.39,2.71-0.75,5.42-1.12,8.13
				C278.24,359.11,267.53,359.11,256.82,359.11z"/>
			<path class="st0" d="M73.22,359.11c0.69-3.62,1.36-7.25,2.08-10.86c3.25-16.22,6.51-32.43,9.76-48.64
				c2.59-12.91,5.16-25.82,7.75-38.73c0.09-0.43,0.23-0.86,0.38-1.38c10.75,0,21.49,0,32.39,0c-6.63,33.26-13.23,66.44-19.84,99.61
				C94.89,359.11,84.05,359.11,73.22,359.11z"/>
			<path class="st0" d="M158.13,359.11c0.01-0.19-0.05-0.4,0.02-0.56c1.59-3.74,3.19-7.48,4.82-11.28c10.67,0,21.29,0,32.07,0
				c0.59,3.95,1.36,7.86,1.72,11.84C183.89,359.11,171.01,359.11,158.13,359.11z"/>
			<path class="st0" d="M353.22,359.11c-0.22-0.39-0.01-0.74,0.13-1.08c1.53-3.56,3.06-7.12,4.63-10.76c10.62,0,21.23,0,32.02,0
				c0.6,3.93,1.08,7.88,1.47,11.84C378.72,359.11,365.97,359.11,353.22,359.11z"/>
			<path class="st0" d="M420.43,220.83c0.2,0.4,0.02,0.68-0.13,0.96c-3.78,6.96-8.99,12.47-16.24,15.89
				c-3.34,1.57-6.86,2.24-10.56,2.23c-13.51-0.04-27.03-0.01-40.54-0.01c-13.77,0-27.54-0.13-41.31,0.03
				c-14.65,0.17-29.67-10.88-34.9-24.18c-0.16-0.41-0.27-0.84-0.41-1.26c0.59-0.6,1.36-0.76,2.04-1.06
				c10.91-4.74,21.27-10.42,30.64-17.8c12.1-9.53,21.5-21.12,27.1-35.59c1.4-3.63,2.55-7.33,3.38-11.13
				c0.13-0.61,0.31-1.22,0.49-1.9c50.8,0,101.56,0,152.28,0c0.22,0.44-0.01,0.7-0.17,0.96c-3.05,4.89-6.49,9.45-10.96,13.16
				c-1.48,1.23-3.07,2.27-4.79,3.12c-2.22,1.09-4.56,1.47-7.03,1.47c-35.31-0.03-70.63-0.02-105.94-0.02
				c-1.08,0-2.16-0.04-3.23,0.26c-1.17,0.34-2.15,0.87-2.36,2.19c-0.18,1.08,0.6,2.15,1.94,2.78c0.7,0.32,1.44,0.52,2.22,0.52
				c0.64,0,1.27,0,1.91,0c34.04,0,68.08,0,102.12,0c0.69,0,1.38,0,2.01,0c0.22,0.36,0.12,0.59,0,0.82
				c-2.82,5.36-6.4,10.11-11.16,13.91c-3.65,2.91-7.71,4.4-12.51,4.38c-31.3-0.09-62.6-0.04-93.89-0.06c-1.29,0-2.55,0.05-3.7,0.7
				c-0.87,0.49-1.59,1.1-1.56,2.21c0.03,1.01,0.7,1.61,1.51,2.05c0.97,0.53,2.01,0.74,3.12,0.73c4.53-0.02,9.05-0.01,13.58-0.01
				c26.45,0,52.91,0,79.36,0c0.69,0,1.38,0,2.05,0c0.17,0.7-0.26,1.06-0.51,1.47c-2.9,4.71-6.42,8.87-10.84,12.23
				c-4.71,3.58-9.96,5.42-15.96,5.4c-26.52-0.08-53.03-0.03-79.55-0.03c-1.14,0-2.29-0.08-3.4,0.36c-0.93,0.37-1.79,0.85-1.91,1.93
				c-0.12,1.17,0.69,1.85,1.62,2.37c0.84,0.47,1.74,0.79,2.72,0.79c0.57,0,1.15,0,1.72,0c26.58,0,53.16,0,79.74,0.01
				C419.11,220.74,419.81,220.62,420.43,220.83z"/>
			<path class="st0" d="M51.54,196.2c0.67,0,1.42,0,2.16,0c30.73,0,61.45,0,92.18,0.01c1.09,0,2.17,0,3.19-0.44
				c1.09-0.47,2.13-1.1,2.1-2.44c-0.03-1.33-1.07-1.95-2.18-2.39c-0.77-0.31-1.58-0.43-2.43-0.42c-1.72,0.03-3.44,0.01-5.16,0.01
				c-29.9,0-59.8-0.03-89.69,0.03c-4.07,0.01-7.65-1.1-10.91-3.42c-5.47-3.9-9.41-9.08-12.51-14.96c-0.08-0.16-0.19-0.35,0.13-0.72
				c0.55,0,1.29,0,2.03,0c34.17,0,68.34,0,102.51,0c1.28,0,2.56,0.04,3.73-0.58c1.06-0.57,1.98-1.33,1.85-2.65
				c-0.13-1.31-1.12-1.9-2.3-2.25c-1.06-0.31-2.14-0.28-3.22-0.28c-35.06,0-70.12-0.04-105.19,0.05c-4.73,0.01-8.73-1.4-12.33-4.29
				c-4.83-3.89-8.52-8.74-11.68-14.02c-0.05-0.09-0.01-0.23-0.01-0.44c50.76,0,101.53,0,152.4,0c0.44,1.79,0.84,3.58,1.32,5.36
				c4.25,15.65,12.81,28.59,24.86,39.31c9.32,8.29,19.88,14.62,31.14,19.86c2.01,0.94,4.05,1.82,6.03,2.71
				c0.31,0.62-0.05,1.07-0.24,1.51c-6.1,13.5-16.41,21.58-31.07,23.97c-1.56,0.25-3.18,0.16-4.77,0.16
				c-26.39,0.01-52.78-0.12-79.18,0.08c-8.78,0.07-15.82-3.17-21.84-9.22c-2.39-2.41-4.41-5.11-6.07-8.07
				c-0.31-0.54-0.55-1.12-0.95-1.94c0.88,0,1.55,0,2.22,0c26.84,0,53.68,0,80.51,0.01c1.16,0,2.29-0.04,3.35-0.57
				c0.57-0.29,1.11-0.62,1.52-1.14c0.77-0.99,0.66-2.07-0.33-2.84c-0.67-0.52-1.45-0.8-2.29-0.86c-0.76-0.05-1.53-0.06-2.29-0.06
				c-26.46,0-52.91-0.05-79.37,0.03c-6.22,0.02-11.61-1.91-16.44-5.68c-4.28-3.33-7.67-7.44-10.47-12.06
				C51.66,197.22,51.26,196.88,51.54,196.2z"/>
			<path class="st0" d="M194.4,176.12c-7.78-7.87-13.63-16.79-17.59-26.95c-3.12-8-4.87-16.27-5.3-24.83
				c1.7-0.27,31.73-0.31,33.98-0.05c0.51,6.67,1.31,13.34,2.87,19.9c1.55,6.51,3.66,12.83,6.43,19.18
				C207.43,166.7,200.62,170.86,194.4,176.12z"/>
			<path class="st0" d="M301.75,176.1c-6.13-5.1-12.73-9.27-20.05-12.71c2.66-6.25,4.89-12.57,6.41-19.12
				c1.53-6.57,2.34-13.25,2.59-20.06c11.35,0,22.48,0,33.89,0c-0.13,7.2-1.48,14.13-3.71,20.9
				C316.98,156.93,310.58,167.2,301.75,176.1z"/>
			<path class="st0" d="M194.4,66.87c6.18,5.32,12.97,9.51,20.41,12.86c-5.5,12.42-8.49,25.29-9.26,38.78c-11.36,0-22.6,0-34.04,0
				c0.45-8.71,2.23-17.04,5.4-25.08C180.86,83.41,186.68,74.61,194.4,66.87z"/>
			<path class="st0" d="M290.69,118.52c-0.47-13.46-3.54-26.31-9.01-38.77c7.17-3.44,13.88-7.55,20.08-12.87
				c14.15,14.36,21.96,31.38,22.89,51.65C313.25,118.52,302.07,118.52,290.69,118.52z"/>
			<path class="st0" d="M245.34,156.12c-8.71,0.38-17.15,2.01-25.46,5c-5.42-11.73-8.16-23.94-8.47-36.87c11.36,0,22.6,0,33.93,0"/>
			<path class="st0" d="M251.13,124.19c11.24,0,22.31,0,33.65,0c0.05,12.94-3.09,25.05-8.39,36.9c-8.18-2.92-16.56-4.58-25.26-4.96
				C251.13,145.48,251.13,134.92,251.13,124.19z"/>
			<path class="st0" d="M211.42,118.52c0.32-12.84,3.12-24.99,8.45-36.84c8.24,2.85,16.62,4.78,25.44,5.03c0,10.66,0,21.19,0,31.82
				C234.04,118.52,222.81,118.52,211.42,118.52z"/>
			<path class="st0" d="M276.36,81.65c5.26,11.81,8.42,23.88,8.44,36.67c-1.41,0.38-30.64,0.5-33.67,0.14c0-10.52,0-21.04,0-31.74
				C259.77,86.41,268.06,84.6,276.36,81.65z"/>
			<path class="st0" d="M256.42,45.72c15.33,1.88,29.04,7.48,41.04,17.14c-2.26,3.11-12.83,9.93-18.51,11.91
				c-2.95-5.34-6.23-10.54-10.05-15.37C265.07,54.56,260.85,50.07,256.42,45.72z"/>
			<path class="st0" d="M198.57,63.03c12.16-9.79,25.83-15.41,41.1-17.41c-8.88,8.62-16.63,18.05-22.38,29.22
				C210.31,72.07,204.35,67.94,198.57,63.03z"/>
			<path class="st0" d="M239.83,197.21c-15.29-2.06-29.06-7.52-41.27-17.37c5.88-4.54,11.67-8.93,18.71-11.62
				C223.16,179.23,230.76,188.78,239.83,197.21z"/>
			<path class="st0" d="M256.37,197.18c9.11-8.4,16.71-17.95,22.52-28.82c4.22,1.11,14.99,7.64,18.65,11.58
				C285.45,189.59,271.71,195.16,256.37,197.18z"/>
			<path class="st0" d="M222.58,165.98c7.53-2.65,14.96-4.02,22.62-4.08c0.31,1.79,0.32,30.17-0.01,32.15
				C235.66,186.27,228.25,177,222.58,165.98z"/>
			<path class="st0" d="M245.28,81.07c-4.51,0.8-16.81-1.97-22.47-4.34c2.43-7.05,14.92-22.56,22.27-27.67
				c0.06,0.02,0.12,0.04,0.18,0.07c0.05,0.03,0.11,0.08,0.11,0.12c0.03,10.31,0.05,20.61,0.06,30.92
				C245.43,80.49,245.48,80.82,245.28,81.07z"/>
			<path class="st0" d="M251.1,81.18c0-10.79,0-21.45,0-32.48c9.47,7.95,16.96,17.09,22.46,27.87
				C269.75,78.74,257.34,81.65,251.1,81.18z"/>
			<path class="st0" d="M273.67,165.99c-5.69,11.02-13.09,20.29-22.5,28.36c0-10.92,0-21.56,0-32.43
				C258.82,161.96,266.19,163.58,273.67,165.99z"/>
		</g>
	</g>
</g>
<text transform="matrix(1 0 0 1 56.2051 431.1055)" class="st0 st1 st2">42213253</text>
</svg>
