<?xml version="1.0" encoding="utf-8"?>
<!-- Generator: Adobe Illustrator 26.2.1, SVG Export Plug-In . SVG Version: 6.00 Build 0)  -->
<svg version="1.1" id="Layer_1" xmlns="http://www.w3.org/2000/svg" xmlns:xlink="http://www.w3.org/1999/xlink" x="0px" y="0px"
	 viewBox="0 0 75.3 18" style="enable-background:new 0 0 75.3 18;" xml:space="preserve">
<style type="text/css">
	.st0{display:none;fill:#5A708C;}
</style>
<path id="amd-logo-1" class="st0" d="M17.7,16.8h-4.2l-1.3-3.1h-7L4,16.8H0L6.3,1.2h4.5L17.7,16.8z M8.6,4.9l-2.3,6h4.8L8.6,4.9z
	 M32.9,1.2h3.4v15.6h-3.9V7l-4.2,4.9h-0.6L23.4,7v9.7h-3.9V1.2h3.4l5,5.8L32.9,1.2z M46.1,1.2c5.7,0,8.6,3.5,8.6,7.8
	c0,4.5-2.8,7.8-9,7.8h-6.4V1.2H46.1z M43.1,13.9h2.5c3.9,0,5.1-2.6,5.1-4.9c0-2.7-1.4-4.9-5.1-4.9h-2.5V13.9z M62.4,4.9L57.5,0h17.8
	v17.8l-4.9-4.9v-8C70.4,4.9,62.4,4.9,62.4,4.9z M62.4,5.9l-5,5V18h7.1l5-5h-7L62.4,5.9z"/>
<g id="BO30aE.tif">
	
		<image style="overflow:visible;enable-background:new    ;" width="2605" height="868" id="Layer_0" xlink:href="4051FA2C0B55591B.png"  transform="matrix(1.901920e-02 0 0 1.962077e-02 11.505 0.4739)">
	</image>
</g>
</svg>
