<?xml version="1.0" encoding="utf-8"?>
<!-- Generator: Adobe Illustrator 26.2.1, SVG Export Plug-In . SVG Version: 6.00 Build 0)  -->
<svg version="1.1" id="Layer_1" xmlns="http://www.w3.org/2000/svg" xmlns:xlink="http://www.w3.org/1999/xlink" x="0px" y="0px"
	 viewBox="0 0 111 33" style="enable-background:new 0 0 111 33;" xml:space="preserve">
<style type="text/css">
	.st0{fill:#FEFEFE;}
	.st1{fill:#38A4E2;}
	.st2{fill:#0D89CA;}
	.st3{fill:#5EB8E7;}
	.st4{fill:#B3DEF3;}
	.st5{fill:#818BAF;}
	.st6{fill:#273976;}
	.st7{fill:#1F5596;}
	.st8{fill:#3D80CA;}
</style>
<g id="jazeera_logo">
	<g>
		<g>
			<path class="st0" d="M84,8.46c0-1.38,0-2.75,0-4.14c-0.69,0-1.36,0-2.05,0c0,0.08,0,0.15,0,0.22c0,1.68,0,3.35,0,5.03
				c0,0.27-0.01,0.53-0.08,0.79c-0.14,0.5-0.48,0.8-1.01,0.86c-0.13,0.02-0.27,0.03-0.41,0.04c0,0.57,0,1.14,0,1.72
				c0.35,0.01,0.69,0,1.03-0.05c1.16-0.18,2-0.77,2.36-1.93c0.09-0.29,0.12-0.58,0.16-0.88c0.32,0.01,0.65,0.04,0.97,0.04
				c2.07,0,4.13,0,6.2,0c0.3,0,0.61-0.02,0.91-0.07c1.05-0.18,1.84-0.71,2.22-1.74c0.18-0.49,0.23-0.99,0.23-1.51
				c0-1.86,0-3.73,0-5.59c0-0.06,0.02-0.13-0.02-0.2c-0.67,0-1.34,0-2.02,0c0,0.08,0,0.15,0,0.22c0,1.85,0,3.7,0,5.55
				c0,0.2-0.01,0.4-0.04,0.6c-0.1,0.74-0.68,1.2-1.39,1.09c0-0.07,0-0.14,0-0.21c0-0.52,0.01-1.05-0.01-1.57
				c-0.04-1.36-0.78-2.2-2.1-2.44c-0.69-0.12-1.39-0.08-2.09-0.05c-0.43,0.02-0.86,0.1-1.28,0.22c-0.14,0.04-0.2,0.1-0.19,0.25
				c0.01,0.41,0,0.83,0.01,1.24c0,0.05-0.02,0.12,0.05,0.17c0.35-0.13,0.73-0.18,1.11-0.19c0.38-0.02,0.76-0.01,1.15-0.01
				c0.34,0.01,0.67,0.06,0.98,0.21c0.34,0.17,0.52,0.44,0.51,0.82c0,0.17,0,0.35,0,0.52c0,0.34,0,0.68,0,1.03c-0.05,0-0.09,0-0.12,0
				c-1.35,0-2.7,0-4.04,0C84.68,8.53,84.34,8.51,84,8.46z M36.62,27.69c-0.01-0.08,0.03-0.11,0.06-0.14
				c0.44-0.64,0.91-1.26,1.38-1.88c1.82-2.36,3.79-4.58,5.79-6.78c0.08-0.09,0.12-0.18,0.12-0.31c-0.01-0.86,0-1.72,0-2.58
				c0-0.06,0.02-0.13-0.02-0.19c-4.11,0-8.23,0-12.34,0c0,1.22,0,2.43,0,3.65c2.2,0,4.39,0,6.6,0c-0.05,0.07-0.09,0.12-0.12,0.16
				c-1.11,1.33-2.2,2.67-3.26,4.03c-1.24,1.6-2.46,3.2-3.5,4.94c-0.06,0.1-0.09,0.21-0.09,0.33c0,0.74,0,1.48,0,2.21
				c0,0.06-0.02,0.13,0.02,0.2c4.28,0,8.56,0,12.84,0c0-1.22,0-2.43,0-3.64C41.6,27.69,39.12,27.69,36.62,27.69z M85.63,19.69
				c0-0.09,0-0.16,0-0.22c0-1.07,0-2.14,0-3.2c0-0.17-0.06-0.24-0.21-0.28c-0.75-0.23-1.51-0.34-2.29-0.43
				c-1.32-0.15-2.63-0.09-3.93,0.11c-1.19,0.19-2.35,0.51-3.5,0.88c-0.18,0.06-0.22,0.13-0.22,0.31c0.01,4.74,0,9.49,0.01,14.23
				c0,0.08-0.02,0.15,0.02,0.23c1.46,0,2.92,0,4.4,0c0-0.09,0-0.17,0-0.24c0-3.8,0-7.6,0-11.4c0-0.17,0.04-0.24,0.22-0.28
				c1.31-0.27,2.61-0.2,3.92-0.01C84.58,19.47,85.09,19.57,85.63,19.69z M77.76,4.32c-0.04,0.08-0.02,0.16-0.02,0.24
				c-0.02,0.92,0.04,1.84-0.03,2.76c-0.05,0.75-0.48,1.19-1.23,1.21c-0.63,0.02-1.26,0-1.89,0c-0.01,0-0.02-0.01-0.05-0.04
				c0-1.38,0-2.77,0-4.17c-0.69,0-1.35,0-2.01,0c-0.04,0.09-0.02,0.16-0.02,0.24c0,1.46,0,2.91,0,4.37c0,0.34,0,0.67-0.01,1.01
				c-0.04,0.81-0.43,1.21-1.24,1.29c-0.08,0.01-0.17-0.02-0.24,0.03c0,0.56,0,1.13,0,1.71c0.35,0,0.69-0.01,1.03-0.06
				c1.28-0.18,2.13-0.94,2.42-2.19c0.04-0.19,0.07-0.38,0.1-0.58c0.2,0,0.39,0,0.58,0c0.72-0.01,1.45,0.05,2.17-0.07
				c0.94-0.16,1.69-0.59,2.13-1.48c0.23-0.48,0.33-0.99,0.33-1.52c0.01-0.89,0-1.77,0-2.66c0-0.04,0.01-0.08-0.03-0.11
				C79.09,4.32,78.43,4.32,77.76,4.32z M70.65,9.38c0.01-0.03,0.01-0.05,0.01-0.06c0-1.49,0-2.98,0-4.47c0-0.14-0.08-0.15-0.18-0.16
				c-0.78-0.09-1.56-0.23-2.35-0.28c-0.79-0.06-1.57-0.07-2.33,0.17C64.87,4.88,64.2,5.44,64,6.46c-0.06,0.32-0.06,0.65-0.02,0.98
				c0.09,0.83,0.47,1.47,1.21,1.87c0.53,0.29,1.12,0.4,1.71,0.46C68.17,9.88,69.41,9.64,70.65,9.38z M96.2,1.05
				c0,3.04,0,6.07,0,9.09c0.07,0.04,0.14,0.02,0.2,0.03c0.54,0,1.08-0.01,1.61,0.01c0.19,0,0.23-0.06,0.23-0.24
				c-0.01-2.89,0-5.77,0-8.66c0-0.07,0.02-0.14-0.03-0.22C97.55,1.05,96.88,1.05,96.2,1.05z M59.96,8.62
				c0.46,0.46,0.93,0.94,1.39,1.39c0.45-0.45,0.92-0.92,1.36-1.36c-0.46-0.46-0.93-0.94-1.39-1.39C60.88,7.71,60.41,8.18,59.96,8.62
				z M82.89,1.45c-0.54,0-0.98,0.43-0.98,0.97c0,0.54,0.43,0.98,0.97,0.98c0.55,0,0.99-0.44,0.99-0.98
				C83.87,1.89,83.43,1.46,82.89,1.45z M77.99,12.97c0.54,0.01,0.99-0.42,1-0.95c0.01-0.54-0.42-0.99-0.95-1
				c-0.55-0.01-1,0.42-1.01,0.96C77.02,12.52,77.45,12.97,77.99,12.97z M88.38,12.01c0-0.54-0.43-0.98-0.96-0.99
				c-0.54-0.01-0.99,0.43-0.99,0.96c-0.01,0.55,0.43,0.99,0.97,0.99C87.94,12.98,88.37,12.55,88.38,12.01z M75.91,11.02
				c-0.53,0-0.98,0.44-0.99,0.97c-0.01,0.53,0.43,0.98,0.97,0.98c0.55,0.01,1-0.43,1-0.98C76.89,11.47,76.44,11.02,75.91,11.02z
				 M69.32,1.46c-0.54,0-0.98,0.43-0.98,0.96c0,0.54,0.44,0.99,0.99,0.99c0.53,0,0.98-0.45,0.99-0.97
				C70.32,1.9,69.88,1.46,69.32,1.46z M68.19,2.42c0-0.55-0.42-0.97-0.98-0.97c-0.55,0-0.98,0.43-0.98,0.97
				c0,0.55,0.44,0.98,0.99,0.98C67.76,3.41,68.19,2.97,68.19,2.42z"/>
			<path class="st1" d="M6.5,31.53c0.24-0.47,0.41-0.96,0.61-1.44c0.29-0.69,0.58-1.38,0.85-2.08c0.07-0.18,0.16-0.21,0.33-0.2
				c0.57,0.03,1.12-0.03,1.66-0.23c0.88-0.32,1.29-1.01,1.48-1.87c0.12-0.54,0.15-1.09,0.15-1.64c0-3.97,0-7.95,0-11.92
				c0-0.08,0-0.17,0-0.26c1.54,0,3.06,0,4.6,0c0,0.06,0.01,0.11,0.01,0.16c0,4.24,0,8.48-0.01,12.72c0,1.11-0.16,2.21-0.56,3.25
				c-0.61,1.58-1.75,2.61-3.32,3.2c-0.88,0.33-1.8,0.48-2.73,0.51c-0.51,0-1.02,0-1.52,0c-0.52,0-1.04-0.08-1.55-0.16
				C6.5,31.56,6.5,31.55,6.5,31.53z"/>
			<path class="st2" d="M105.56,28.27c-1.01,1.02-2.02,2.04-3.02,3.05c-1.04-1.04-2.06-2.05-3.05-3.05c1-1,2.01-2.01,3.04-3.04
				c0.52,0.53,1.06,1.07,1.6,1.61c0.42,0.43,0.85,0.85,1.28,1.27c0.04,0.04,0.07,0.11,0.15,0.12
				C105.56,28.24,105.56,28.26,105.56,28.27z"/>
			<path class="st0" d="M6.5,31.57c0.51,0.08,1.03,0.16,1.55,0.16c0.01,0.01,0.01,0.02,0.01,0.03c-0.52,0-1.04,0-1.56,0
				C6.5,31.7,6.5,31.64,6.5,31.57z"/>
			<path class="st3" d="M22.83,31.77c0-0.01,0-0.02,0-0.04c0.62,0,1.25,0,1.87,0c0,0.01,0,0.02,0,0.04
				C24.08,31.77,23.45,31.77,22.83,31.77z"/>
			<path class="st4" d="M92.69,31.73c0,0.01,0,0.02,0,0.03c-0.62,0-1.24,0-1.87,0c0-0.01,0-0.02,0-0.04
				C91.44,31.73,92.06,31.73,92.69,31.73z"/>
			<path class="st5" d="M53.44,31.73c0,0.01,0,0.03,0,0.04c-0.54,0-1.09,0-1.63,0c0-0.01,0-0.02,0-0.04
				C52.35,31.73,52.9,31.73,53.44,31.73z"/>
			<path class="st3" d="M67.4,31.77c0-0.01,0-0.02,0-0.04c0.53,0,1.06,0,1.6,0c0,0.01,0,0.03,0,0.04
				C68.47,31.77,67.94,31.77,67.4,31.77z"/>
			<path class="st3" d="M8.05,31.77c0-0.01,0-0.02-0.01-0.03c0.51,0,1.02,0,1.52,0c0,0.01,0,0.03,0,0.04
				C9.06,31.77,8.56,31.77,8.05,31.77z"/>
			<path class="st6" d="M53.44,31.73c-0.55,0-1.09,0-1.64,0c-1.91-0.1-3.65-0.65-5.1-1.94c-1.13-1.01-1.79-2.29-2.11-3.76
				c-0.41-1.93-0.38-3.85,0.29-5.72c0.64-1.76,1.74-3.17,3.42-4.06c1.25-0.66,2.58-0.93,3.99-0.85c0.99,0.06,1.94,0.23,2.84,0.65
				c1.71,0.8,2.8,2.13,3.35,3.91c0.41,1.32,0.52,2.67,0.44,4.05c-0.02,0.33-0.04,0.66-0.06,1c-3.34,0-6.66,0-10,0
				c0.03,0.42,0.15,0.79,0.34,1.14c0.49,0.87,1.28,1.35,2.21,1.61c0.92,0.26,1.86,0.23,2.8,0.17c1.5-0.1,2.9-0.61,4.3-1.13
				c0.11-0.04,0.22-0.08,0.34-0.13c0,0.07,0.01,0.12,0.01,0.17c0,1.13,0,2.25,0,3.38c0,0.14-0.05,0.21-0.16,0.27
				c-0.86,0.45-1.78,0.72-2.73,0.91C55.14,31.57,54.3,31.68,53.44,31.73z M48.9,21.99c1.93,0,3.85,0,5.78,0
				c0.03-0.17-0.01-0.32-0.03-0.47c-0.1-0.64-0.31-1.23-0.77-1.7c-0.6-0.62-1.34-0.83-2.19-0.8C50.12,19.08,49.09,20.18,48.9,21.99z
				"/>
			<path class="st2" d="M69,31.73c-0.53,0-1.06,0-1.6,0c-1.93-0.09-3.68-0.65-5.14-1.95c-0.98-0.87-1.61-1.95-1.95-3.2
				c-0.58-2.12-0.58-4.24,0.17-6.32c0.63-1.75,1.74-3.12,3.4-4.01c1.24-0.66,2.57-0.93,3.97-0.85c0.99,0.05,1.95,0.23,2.86,0.66
				c1.78,0.83,2.87,2.24,3.41,4.1c0.38,1.33,0.46,2.69,0.38,4.06c-0.02,0.26-0.04,0.52-0.06,0.79c-3.33,0-6.65,0-9.98,0
				c-0.03,0.15,0.01,0.27,0.04,0.39c0.26,1.11,1,1.8,2.02,2.21c0.57,0.23,1.17,0.31,1.78,0.35c1.84,0.12,3.57-0.32,5.27-0.96
				c0.27-0.1,0.53-0.2,0.8-0.3c0.01,0,0.02,0,0.04-0.01c0.04,0.06,0.02,0.12,0.02,0.18c0,1.11,0,2.23,0,3.34
				c0,0.14-0.05,0.22-0.17,0.28c-0.73,0.37-1.5,0.63-2.3,0.81C71,31.54,70,31.67,69,31.73z M70.27,21.99
				c-0.02-0.19-0.04-0.37-0.07-0.55c-0.11-0.67-0.36-1.28-0.88-1.75c-0.69-0.62-1.51-0.76-2.39-0.64c-0.95,0.13-1.62,0.64-2.05,1.48
				c-0.17,0.33-0.27,0.69-0.35,1.05c-0.03,0.14-0.08,0.27-0.07,0.42C66.4,21.99,68.33,21.99,70.27,21.99z"/>
			<path class="st2" d="M24.7,31.73c-0.62,0-1.25,0-1.87,0c-1.24-0.06-2.46-0.23-3.59-0.81c-1.34-0.69-2.08-1.8-2.29-3.28
				c-0.12-0.87-0.12-1.73,0.16-2.57c0.39-1.19,1.21-2,2.32-2.53c0.89-0.42,1.84-0.61,2.81-0.71c1.21-0.12,2.41-0.01,3.61,0.06
				c0.06,0,0.12,0.01,0.19,0.01c0.03-0.51,0.03-0.99-0.28-1.43c-0.42-0.6-1-0.93-1.71-1.05c-1.77-0.29-3.52-0.28-5.25,0.23
				c-0.06,0.02-0.12,0.05-0.19,0.03c-0.04-0.06-0.02-0.12-0.02-0.18c0-1.07,0-2.15-0.01-3.22c0-0.16,0.05-0.23,0.2-0.27
				c0.7-0.21,1.42-0.33,2.15-0.43c0.97-0.13,1.94-0.23,2.92-0.2c1.16,0.04,2.3,0.16,3.38,0.62c1.56,0.66,2.47,1.85,2.82,3.49
				c0.16,0.73,0.23,1.47,0.23,2.22c0,3.04,0,6.07,0,9.11c0,0.05,0,0.1,0,0.17C28.44,31.36,26.59,31.71,24.7,31.73z M26.06,28.23
				c0-1.02,0-2.02,0-3.03c0-0.12-0.06-0.13-0.15-0.15c-0.94-0.19-1.89-0.24-2.84-0.15c-0.33,0.03-0.68,0.05-0.98,0.21
				c-0.64,0.34-0.93,1-0.8,1.78c0.09,0.55,0.37,0.96,0.9,1.17c0.17,0.07,0.34,0.13,0.52,0.17c0.74,0.18,1.49,0.13,2.24,0.1
				C25.31,28.31,25.68,28.3,26.06,28.23z"/>
			<path class="st3" d="M92.69,31.73c-0.62,0-1.25,0-1.87,0c-1.15-0.06-2.28-0.21-3.34-0.69c-1.4-0.64-2.24-1.71-2.5-3.23
				c-0.14-0.84-0.15-1.69,0.07-2.52c0.31-1.17,1.04-2.02,2.09-2.6c0.86-0.47,1.8-0.7,2.77-0.83c1.12-0.15,2.25-0.09,3.37-0.01
				c0.24,0.02,0.49,0.02,0.75,0.04c0.05-0.57,0-1.11-0.39-1.58c-0.47-0.57-1.09-0.82-1.78-0.93c-1.5-0.23-3-0.21-4.49,0.12
				c-0.25,0.05-0.5,0.13-0.74,0.2c-0.07-0.07-0.05-0.15-0.05-0.22c0-1.07,0-2.14-0.01-3.2c0-0.16,0.06-0.23,0.2-0.27
				c0.6-0.19,1.22-0.3,1.84-0.39c1.08-0.15,2.17-0.28,3.27-0.24c1.17,0.04,2.32,0.17,3.41,0.65c1.51,0.67,2.4,1.83,2.75,3.43
				c0.17,0.76,0.24,1.53,0.24,2.31c0,3,0,6.01,0,9.01c0,0.06,0,0.12,0,0.2C96.44,31.37,94.58,31.7,92.69,31.73z M94.03,28.23
				c0.01-0.03,0.02-0.04,0.02-0.05c0-0.99,0-1.98,0.01-2.97c0-0.11-0.05-0.14-0.15-0.16c-1.05-0.21-2.1-0.25-3.16-0.11
				c-0.24,0.03-0.49,0.06-0.71,0.19c-0.61,0.37-0.83,0.93-0.77,1.62c0.06,0.64,0.35,1.11,0.98,1.34c0.15,0.05,0.29,0.11,0.44,0.14
				c0.75,0.18,1.51,0.13,2.26,0.1C93.31,28.31,93.67,28.32,94.03,28.23z"/>
			<path class="st7" d="M36.62,27.69c2.5,0,4.98,0,7.48,0c0,1.22,0,2.42,0,3.64c-4.28,0-8.56,0-12.84,0
				c-0.04-0.07-0.02-0.13-0.02-0.2c0-0.74,0-1.48,0-2.21c0-0.12,0.03-0.22,0.09-0.33c1.04-1.73,2.26-3.34,3.5-4.94
				c1.06-1.37,2.15-2.71,3.26-4.03c0.04-0.04,0.07-0.09,0.12-0.16c-2.22,0-4.4,0-6.6,0c0-1.22,0-2.43,0-3.65c4.11,0,8.22,0,12.34,0
				c0.04,0.06,0.02,0.12,0.02,0.19c0,0.86,0,1.72,0,2.58c0,0.13-0.04,0.22-0.12,0.31c-2,2.2-3.97,4.42-5.79,6.78
				c-0.47,0.62-0.94,1.24-1.38,1.88C36.65,27.58,36.61,27.61,36.62,27.69z"/>
			<path class="st1" d="M85.63,19.69c-0.55-0.12-1.06-0.23-1.58-0.3c-1.31-0.19-2.61-0.26-3.92,0.01c-0.18,0.04-0.22,0.11-0.22,0.28
				c0,3.8,0,7.6,0,11.4c0,0.08,0,0.15,0,0.24c-1.48,0-2.94,0-4.4,0c-0.04-0.08-0.02-0.16-0.02-0.23c0-4.74,0-9.49-0.01-14.23
				c0-0.18,0.05-0.25,0.22-0.31c1.15-0.37,2.3-0.69,3.5-0.88c1.3-0.2,2.61-0.27,3.93-0.11c0.77,0.09,1.54,0.2,2.29,0.43
				c0.15,0.05,0.21,0.11,0.21,0.28c-0.01,1.07,0,2.14,0,3.2C85.63,19.54,85.63,19.6,85.63,19.69z"/>
			<path class="st7" d="M84,8.46c0.34,0.05,0.68,0.07,1.03,0.07c1.35,0,2.7,0,4.04,0c0.03,0,0.06,0,0.12,0c0-0.35,0-0.69,0-1.03
				c0-0.17,0-0.35,0-0.52c0.01-0.38-0.18-0.65-0.51-0.82C88.37,6,88.04,5.95,87.7,5.94c-0.38-0.01-0.76-0.01-1.15,0.01
				c-0.38,0.02-0.76,0.06-1.11,0.19c-0.07-0.05-0.05-0.12-0.05-0.17c0-0.41,0.01-0.83-0.01-1.24c0-0.15,0.05-0.21,0.19-0.25
				c0.42-0.13,0.84-0.2,1.28-0.22c0.7-0.03,1.4-0.07,2.09,0.05c1.33,0.23,2.06,1.08,2.1,2.44c0.02,0.52,0.01,1.05,0.01,1.57
				c0,0.07,0,0.14,0,0.21c0.72,0.11,1.29-0.34,1.39-1.09c0.03-0.2,0.04-0.4,0.04-0.6c0-1.85,0-3.7,0-5.55c0-0.07,0-0.14,0-0.22
				c0.69,0,1.36,0,2.02,0c0.04,0.07,0.02,0.13,0.02,0.2c0,1.86,0,3.73,0,5.59c0,0.51-0.05,1.02-0.23,1.51
				c-0.38,1.03-1.17,1.56-2.22,1.74c-0.3,0.05-0.6,0.07-0.91,0.07c-2.07,0-4.13,0-6.2,0c-0.32,0-0.65-0.03-0.97-0.04
				c0-0.41,0-0.83,0-1.24C84.01,8.74,83.92,8.6,84,8.46z"/>
			<path class="st2" d="M77.76,4.32c0.66,0,1.33,0,1.99,0c0.04,0.04,0.03,0.08,0.03,0.11c0,0.89,0,1.77,0,2.66
				c0,0.53-0.1,1.04-0.33,1.52c-0.43,0.89-1.19,1.32-2.13,1.48c-0.72,0.12-1.45,0.06-2.17,0.07c-0.19,0-0.37,0-0.58,0
				c-0.03,0.2-0.06,0.39-0.1,0.58c-0.28,1.24-1.13,2.01-2.42,2.19c-0.34,0.05-0.68,0.06-1.03,0.06c0-0.58,0-1.14,0-1.71
				c0.08-0.05,0.16-0.03,0.24-0.03c0.81-0.08,1.2-0.48,1.24-1.29c0.02-0.34,0.01-0.67,0.01-1.01c0-1.46,0-2.91,0-4.37
				c0-0.08-0.02-0.15,0.02-0.24c0.66,0,1.33,0,2.01,0c0,1.39,0,2.79,0,4.17c0.03,0.02,0.04,0.04,0.05,0.04c0.63,0,1.26,0.02,1.89,0
				c0.75-0.03,1.17-0.46,1.23-1.21c0.06-0.92,0.01-1.84,0.03-2.76C77.74,4.48,77.72,4.4,77.76,4.32z"/>
			<path class="st3" d="M70.65,9.38c-1.24,0.26-2.48,0.51-3.75,0.4c-0.59-0.05-1.18-0.16-1.71-0.46c-0.74-0.41-1.12-1.05-1.21-1.87
				C63.94,7.11,63.94,6.78,64,6.46c0.2-1.02,0.87-1.58,1.81-1.88c0.76-0.24,1.54-0.23,2.33-0.17c0.79,0.06,1.57,0.19,2.35,0.28
				c0.11,0.01,0.18,0.02,0.18,0.16c0,1.49,0,2.98,0,4.47C70.67,9.33,70.66,9.34,70.65,9.38z M68.62,7.88c0-0.56,0-1.09,0-1.62
				c0-0.09-0.05-0.11-0.13-0.13c-0.62-0.12-1.23-0.13-1.85-0.02c-0.07,0.01-0.15,0.05-0.21,0.08c-0.33,0.19-0.47,0.52-0.41,0.93
				c0.06,0.42,0.33,0.65,0.72,0.74C67.35,8.01,67.97,7.93,68.62,7.88z"/>
			<path class="st6" d="M84,8.46c-0.08,0.14,0.01,0.28,0.01,0.41c0,0.41,0,0.83,0,1.24c-0.05,0.29-0.08,0.59-0.16,0.88
				c-0.36,1.16-1.2,1.75-2.36,1.93c-0.34,0.05-0.68,0.06-1.03,0.05c0-0.58,0-1.15,0-1.72c0.14-0.01,0.28-0.02,0.41-0.04
				c0.52-0.06,0.87-0.36,1.01-0.86c0.07-0.26,0.08-0.52,0.08-0.79c0-1.68,0-3.35,0-5.03c0-0.07,0-0.14,0-0.22c0.69,0,1.36,0,2.05,0
				C84,5.71,84,7.09,84,8.46z"/>
			<path class="st3" d="M96.2,1.05c0.69,0,1.35,0,2.01,0c0.05,0.07,0.03,0.15,0.03,0.22c0,2.89,0,5.77,0,8.66
				c0,0.18-0.04,0.25-0.23,0.24c-0.54-0.01-1.08,0-1.61-0.01c-0.06,0-0.13,0.02-0.2-0.03C96.2,7.12,96.2,4.09,96.2,1.05z"/>
			<path class="st2" d="M59.96,8.62c0.44-0.44,0.91-0.91,1.37-1.36c0.45,0.45,0.92,0.93,1.39,1.39c-0.44,0.44-0.91,0.91-1.36,1.36
				C60.9,9.55,60.43,9.08,59.96,8.62z"/>
			<path class="st6" d="M82.89,1.45c0.54,0,0.98,0.43,0.98,0.97c0,0.54-0.44,0.99-0.99,0.98c-0.54,0-0.97-0.45-0.97-0.98
				C81.91,1.89,82.35,1.45,82.89,1.45z"/>
			<path class="st8" d="M77.99,12.97c-0.54-0.01-0.97-0.45-0.96-0.99c0.01-0.54,0.46-0.97,1.01-0.96c0.53,0.01,0.96,0.46,0.95,1
				C78.98,12.56,78.54,12.98,77.99,12.97z"/>
			<path class="st7" d="M88.38,12.01c0,0.54-0.44,0.97-0.98,0.97c-0.55,0-0.98-0.44-0.97-0.99c0.01-0.53,0.45-0.96,0.99-0.96
				C87.95,11.03,88.38,11.47,88.38,12.01z"/>
			<path class="st8" d="M75.91,11.02c0.53,0,0.98,0.45,0.98,0.98c0,0.54-0.45,0.98-1,0.98c-0.54-0.01-0.98-0.45-0.97-0.98
				C74.93,11.46,75.37,11.02,75.91,11.02z"/>
			<path class="st3" d="M69.32,1.46c0.55,0,0.99,0.44,0.99,0.98c0,0.52-0.46,0.97-0.99,0.97c-0.54,0-0.99-0.45-0.99-0.99
				C68.34,1.89,68.78,1.46,69.32,1.46z"/>
			<path class="st3" d="M68.19,2.42c0,0.55-0.42,0.98-0.96,0.98c-0.55,0-0.99-0.43-0.99-0.98c0-0.54,0.43-0.97,0.98-0.97
				C67.77,1.46,68.19,1.87,68.19,2.42z"/>
			<path class="st0" d="M48.9,21.99c0.19-1.82,1.22-2.91,2.8-2.97c0.84-0.03,1.59,0.18,2.19,0.8c0.46,0.48,0.67,1.06,0.77,1.7
				c0.02,0.15,0.06,0.3,0.03,0.47C52.75,21.99,50.82,21.99,48.9,21.99z"/>
			<path class="st0" d="M70.27,21.99c-1.95,0-3.87,0-5.81,0c-0.01-0.15,0.04-0.28,0.07-0.42c0.08-0.36,0.18-0.72,0.35-1.05
				c0.43-0.84,1.11-1.35,2.05-1.48c0.88-0.12,1.7,0.02,2.39,0.64c0.52,0.47,0.77,1.07,0.88,1.75C70.23,21.62,70.25,21.8,70.27,21.99
				z"/>
			<path class="st0" d="M26.06,28.23c-0.38,0.08-0.75,0.09-1.12,0.1c-0.75,0.03-1.5,0.08-2.24-0.1c-0.18-0.04-0.35-0.1-0.52-0.17
				c-0.53-0.21-0.81-0.62-0.9-1.17c-0.13-0.78,0.16-1.44,0.8-1.78c0.31-0.16,0.65-0.18,0.98-0.21c0.95-0.09,1.9-0.04,2.84,0.15
				c0.09,0.02,0.15,0.03,0.15,0.15C26.06,26.2,26.06,27.2,26.06,28.23z"/>
			<path class="st0" d="M94.03,28.23c-0.36,0.09-0.72,0.09-1.08,0.1c-0.76,0.03-1.51,0.08-2.26-0.1c-0.15-0.04-0.3-0.09-0.44-0.14
				c-0.63-0.23-0.92-0.7-0.98-1.34c-0.06-0.69,0.16-1.25,0.77-1.62c0.22-0.13,0.46-0.16,0.71-0.19c1.06-0.14,2.11-0.1,3.16,0.11
				c0.1,0.02,0.15,0.05,0.15,0.16c0,0.99,0,1.98-0.01,2.97C94.05,28.18,94.04,28.2,94.03,28.23z"/>
			<path class="st0" d="M68.62,7.88c-0.65,0.06-1.27,0.13-1.89-0.02c-0.39-0.09-0.66-0.32-0.72-0.74c-0.06-0.41,0.09-0.74,0.41-0.93
				c0.07-0.04,0.14-0.07,0.21-0.08c0.62-0.11,1.24-0.09,1.85,0.02c0.08,0.02,0.13,0.04,0.13,0.13C68.62,6.78,68.62,7.31,68.62,7.88z
				"/>
		</g>
	</g>
</g>
</svg>
