<?xml version="1.0" encoding="utf-8"?>
<!-- Generator: Adobe Illustrator 26.2.1, SVG Export Plug-In . SVG Version: 6.00 Build 0)  -->
<svg version="1.1" id="Layer_1" xmlns="http://www.w3.org/2000/svg" xmlns:xlink="http://www.w3.org/1999/xlink" x="0px" y="0px"
	 viewBox="0 0 111 33" style="enable-background:new 0 0 111 33;" xml:space="preserve">
<style type="text/css">
	.st0{display:none;}
	.st1{display:inline;}
	.st2{fill:#FEFEFE;}
	.st3{fill:#38A4E2;}
	.st4{fill:#0D89CA;}
	.st5{fill:#5EB8E7;}
	.st6{fill:#B3DEF3;}
	.st7{fill:#818BAF;}
	.st8{fill:#273976;}
	.st9{fill:#1F5596;}
	.st10{fill:#3D80CA;}
	.st11{fill:#FEFDFD;}
	.st12{fill:#D7272E;}
	.st13{fill:#CE0A44;}
	.st14{fill:#F91005;}
	.st15{fill:#5D0733;}
	.st16{fill:#C3A4B4;}
	.st17{fill:#76808B;}
	.st18{fill:#535C6A;}
	.st19{fill:#FFFEFF;}
	.st20{fill:#FE0812;}
	.st21{fill:#1C1314;}
	.st22{fill:#232B5E;}
	.st23{fill:#6D7194;}
	.st24{fill:#9CA0B6;}
	.st25{fill:#0498D6;}
</style>
<g id="jazeera_logo" class="st0">
	<g class="st1">
		<g>
			<path class="st2" d="M84,8.46c0-1.38,0-2.75,0-4.14c-0.69,0-1.36,0-2.05,0c0,0.08,0,0.15,0,0.22c0,1.68,0,3.35,0,5.03
				c0,0.27-0.01,0.53-0.08,0.79c-0.14,0.5-0.48,0.8-1.01,0.86c-0.13,0.02-0.27,0.03-0.41,0.04c0,0.57,0,1.14,0,1.72
				c0.35,0.01,0.69,0,1.03-0.05c1.16-0.18,2-0.77,2.36-1.93c0.09-0.29,0.12-0.58,0.16-0.88c0.32,0.01,0.65,0.04,0.97,0.04
				c2.07,0,4.13,0,6.2,0c0.3,0,0.61-0.02,0.91-0.07c1.05-0.18,1.84-0.71,2.22-1.74c0.18-0.49,0.23-0.99,0.23-1.51
				c0-1.86,0-3.73,0-5.59c0-0.06,0.02-0.13-0.02-0.2c-0.67,0-1.34,0-2.02,0c0,0.08,0,0.15,0,0.22c0,1.85,0,3.7,0,5.55
				c0,0.2-0.01,0.4-0.04,0.6c-0.1,0.74-0.68,1.2-1.39,1.09c0-0.07,0-0.14,0-0.21c0-0.52,0.01-1.05-0.01-1.57
				c-0.04-1.36-0.78-2.2-2.1-2.44c-0.69-0.12-1.39-0.08-2.09-0.05c-0.43,0.02-0.86,0.1-1.28,0.22c-0.14,0.04-0.2,0.1-0.19,0.25
				c0.01,0.41,0,0.83,0.01,1.24c0,0.05-0.02,0.12,0.05,0.17c0.35-0.13,0.73-0.18,1.11-0.19c0.38-0.02,0.76-0.01,1.15-0.01
				c0.34,0.01,0.67,0.06,0.98,0.21c0.34,0.17,0.52,0.44,0.51,0.82c0,0.17,0,0.35,0,0.52c0,0.34,0,0.68,0,1.03c-0.05,0-0.09,0-0.12,0
				c-1.35,0-2.7,0-4.04,0C84.68,8.53,84.34,8.51,84,8.46z M36.62,27.69c-0.01-0.08,0.03-0.11,0.06-0.14
				c0.44-0.64,0.91-1.26,1.38-1.88c1.82-2.36,3.79-4.58,5.79-6.78c0.08-0.09,0.12-0.18,0.12-0.31c-0.01-0.86,0-1.72,0-2.58
				c0-0.06,0.02-0.13-0.02-0.19c-4.11,0-8.23,0-12.34,0c0,1.22,0,2.43,0,3.65c2.2,0,4.39,0,6.6,0c-0.05,0.07-0.09,0.12-0.12,0.16
				c-1.11,1.33-2.2,2.67-3.26,4.03c-1.24,1.6-2.46,3.2-3.5,4.94c-0.06,0.1-0.09,0.21-0.09,0.33c0,0.74,0,1.48,0,2.21
				c0,0.06-0.02,0.13,0.02,0.2c4.28,0,8.56,0,12.84,0c0-1.22,0-2.43,0-3.64C41.6,27.69,39.12,27.69,36.62,27.69z M85.63,19.69
				c0-0.09,0-0.16,0-0.22c0-1.07,0-2.14,0-3.2c0-0.17-0.06-0.24-0.21-0.28c-0.75-0.23-1.51-0.34-2.29-0.43
				c-1.32-0.15-2.63-0.09-3.93,0.11c-1.19,0.19-2.35,0.51-3.5,0.88c-0.18,0.06-0.22,0.13-0.22,0.31c0.01,4.74,0,9.49,0.01,14.23
				c0,0.08-0.02,0.15,0.02,0.23c1.46,0,2.92,0,4.4,0c0-0.09,0-0.17,0-0.24c0-3.8,0-7.6,0-11.4c0-0.17,0.04-0.24,0.22-0.28
				c1.31-0.27,2.61-0.2,3.92-0.01C84.58,19.47,85.09,19.57,85.63,19.69z M77.76,4.32c-0.04,0.08-0.02,0.16-0.02,0.24
				c-0.02,0.92,0.04,1.84-0.03,2.76c-0.05,0.75-0.48,1.19-1.23,1.21c-0.63,0.02-1.26,0-1.89,0c-0.01,0-0.02-0.01-0.05-0.04
				c0-1.38,0-2.77,0-4.17c-0.69,0-1.35,0-2.01,0c-0.04,0.09-0.02,0.16-0.02,0.24c0,1.46,0,2.91,0,4.37c0,0.34,0,0.67-0.01,1.01
				c-0.04,0.81-0.43,1.21-1.24,1.29c-0.08,0.01-0.17-0.02-0.24,0.03c0,0.56,0,1.13,0,1.71c0.35,0,0.69-0.01,1.03-0.06
				c1.28-0.18,2.13-0.94,2.42-2.19c0.04-0.19,0.07-0.38,0.1-0.58c0.2,0,0.39,0,0.58,0c0.72-0.01,1.45,0.05,2.17-0.07
				c0.94-0.16,1.69-0.59,2.13-1.48c0.23-0.48,0.33-0.99,0.33-1.52c0.01-0.89,0-1.77,0-2.66c0-0.04,0.01-0.08-0.03-0.11
				C79.09,4.32,78.43,4.32,77.76,4.32z M70.65,9.38c0.01-0.03,0.01-0.05,0.01-0.06c0-1.49,0-2.98,0-4.47c0-0.14-0.08-0.15-0.18-0.16
				c-0.78-0.09-1.56-0.23-2.35-0.28c-0.79-0.06-1.57-0.07-2.33,0.17C64.87,4.88,64.2,5.44,64,6.46c-0.06,0.32-0.06,0.65-0.02,0.98
				c0.09,0.83,0.47,1.47,1.21,1.87c0.53,0.29,1.12,0.4,1.71,0.46C68.17,9.88,69.41,9.64,70.65,9.38z M96.2,1.05
				c0,3.04,0,6.07,0,9.09c0.07,0.04,0.14,0.02,0.2,0.03c0.54,0,1.08-0.01,1.61,0.01c0.19,0,0.23-0.06,0.23-0.24
				c-0.01-2.89,0-5.77,0-8.66c0-0.07,0.02-0.14-0.03-0.22C97.55,1.05,96.88,1.05,96.2,1.05z M59.96,8.62
				c0.46,0.46,0.93,0.94,1.39,1.39c0.45-0.45,0.92-0.92,1.36-1.36c-0.46-0.46-0.93-0.94-1.39-1.39C60.88,7.71,60.41,8.18,59.96,8.62
				z M82.89,1.45c-0.54,0-0.98,0.43-0.98,0.97c0,0.54,0.43,0.98,0.97,0.98c0.55,0,0.99-0.44,0.99-0.98
				C83.87,1.89,83.43,1.46,82.89,1.45z M77.99,12.97c0.54,0.01,0.99-0.42,1-0.95c0.01-0.54-0.42-0.99-0.95-1
				c-0.55-0.01-1,0.42-1.01,0.96C77.02,12.52,77.45,12.97,77.99,12.97z M88.38,12.01c0-0.54-0.43-0.98-0.96-0.99
				c-0.54-0.01-0.99,0.43-0.99,0.96c-0.01,0.55,0.43,0.99,0.97,0.99C87.94,12.98,88.37,12.55,88.38,12.01z M75.91,11.02
				c-0.53,0-0.98,0.44-0.99,0.97c-0.01,0.53,0.43,0.98,0.97,0.98c0.55,0.01,1-0.43,1-0.98C76.89,11.47,76.44,11.02,75.91,11.02z
				 M69.32,1.46c-0.54,0-0.98,0.43-0.98,0.96c0,0.54,0.44,0.99,0.99,0.99c0.53,0,0.98-0.45,0.99-0.97
				C70.32,1.9,69.88,1.46,69.32,1.46z M68.19,2.42c0-0.55-0.42-0.97-0.98-0.97c-0.55,0-0.98,0.43-0.98,0.97
				c0,0.55,0.44,0.98,0.99,0.98C67.76,3.41,68.19,2.97,68.19,2.42z"/>
			<path class="st3" d="M6.5,31.53c0.24-0.47,0.41-0.96,0.61-1.44c0.29-0.69,0.58-1.38,0.85-2.08c0.07-0.18,0.16-0.21,0.33-0.2
				c0.57,0.03,1.12-0.03,1.66-0.23c0.88-0.32,1.29-1.01,1.48-1.87c0.12-0.54,0.15-1.09,0.15-1.64c0-3.97,0-7.95,0-11.92
				c0-0.08,0-0.17,0-0.26c1.54,0,3.06,0,4.6,0c0,0.06,0.01,0.11,0.01,0.16c0,4.24,0,8.48-0.01,12.72c0,1.11-0.16,2.21-0.56,3.25
				c-0.61,1.58-1.75,2.61-3.32,3.2c-0.88,0.33-1.8,0.48-2.73,0.51c-0.51,0-1.02,0-1.52,0c-0.52,0-1.04-0.08-1.55-0.16
				C6.5,31.56,6.5,31.55,6.5,31.53z"/>
			<path class="st4" d="M105.56,28.27c-1.01,1.02-2.02,2.04-3.02,3.05c-1.04-1.04-2.06-2.05-3.05-3.05c1-1,2.01-2.01,3.04-3.04
				c0.52,0.53,1.06,1.07,1.6,1.61c0.42,0.43,0.85,0.85,1.28,1.27c0.04,0.04,0.07,0.11,0.15,0.12
				C105.56,28.24,105.56,28.26,105.56,28.27z"/>
			<path class="st2" d="M6.5,31.57c0.51,0.08,1.03,0.16,1.55,0.16c0.01,0.01,0.01,0.02,0.01,0.03c-0.52,0-1.04,0-1.56,0
				C6.5,31.7,6.5,31.64,6.5,31.57z"/>
			<path class="st5" d="M22.83,31.77c0-0.01,0-0.02,0-0.04c0.62,0,1.25,0,1.87,0c0,0.01,0,0.02,0,0.04
				C24.08,31.77,23.45,31.77,22.83,31.77z"/>
			<path class="st6" d="M92.69,31.73c0,0.01,0,0.02,0,0.03c-0.62,0-1.24,0-1.87,0c0-0.01,0-0.02,0-0.04
				C91.44,31.73,92.06,31.73,92.69,31.73z"/>
			<path class="st7" d="M53.44,31.73c0,0.01,0,0.03,0,0.04c-0.54,0-1.09,0-1.63,0c0-0.01,0-0.02,0-0.04
				C52.35,31.73,52.9,31.73,53.44,31.73z"/>
			<path class="st5" d="M67.4,31.77c0-0.01,0-0.02,0-0.04c0.53,0,1.06,0,1.6,0c0,0.01,0,0.03,0,0.04
				C68.47,31.77,67.94,31.77,67.4,31.77z"/>
			<path class="st5" d="M8.05,31.77c0-0.01,0-0.02-0.01-0.03c0.51,0,1.02,0,1.52,0c0,0.01,0,0.03,0,0.04
				C9.06,31.77,8.56,31.77,8.05,31.77z"/>
			<path class="st8" d="M53.44,31.73c-0.55,0-1.09,0-1.64,0c-1.91-0.1-3.65-0.65-5.1-1.94c-1.13-1.01-1.79-2.29-2.11-3.76
				c-0.41-1.93-0.38-3.85,0.29-5.72c0.64-1.76,1.74-3.17,3.42-4.06c1.25-0.66,2.58-0.93,3.99-0.85c0.99,0.06,1.94,0.23,2.84,0.65
				c1.71,0.8,2.8,2.13,3.35,3.91c0.41,1.32,0.52,2.67,0.44,4.05c-0.02,0.33-0.04,0.66-0.06,1c-3.34,0-6.66,0-10,0
				c0.03,0.42,0.15,0.79,0.34,1.14c0.49,0.87,1.28,1.35,2.21,1.61c0.92,0.26,1.86,0.23,2.8,0.17c1.5-0.1,2.9-0.61,4.3-1.13
				c0.11-0.04,0.22-0.08,0.34-0.13c0,0.07,0.01,0.12,0.01,0.17c0,1.13,0,2.25,0,3.38c0,0.14-0.05,0.21-0.16,0.27
				c-0.86,0.45-1.78,0.72-2.73,0.91C55.14,31.57,54.3,31.68,53.44,31.73z M48.9,21.99c1.93,0,3.85,0,5.78,0
				c0.03-0.17-0.01-0.32-0.03-0.47c-0.1-0.64-0.31-1.23-0.77-1.7c-0.6-0.62-1.34-0.83-2.19-0.8C50.12,19.08,49.09,20.18,48.9,21.99z
				"/>
			<path class="st4" d="M69,31.73c-0.53,0-1.06,0-1.6,0c-1.93-0.09-3.68-0.65-5.14-1.95c-0.98-0.87-1.61-1.95-1.95-3.2
				c-0.58-2.12-0.58-4.24,0.17-6.32c0.63-1.75,1.74-3.12,3.4-4.01c1.24-0.66,2.57-0.93,3.97-0.85c0.99,0.05,1.95,0.23,2.86,0.66
				c1.78,0.83,2.87,2.24,3.41,4.1c0.38,1.33,0.46,2.69,0.38,4.06c-0.02,0.26-0.04,0.52-0.06,0.79c-3.33,0-6.65,0-9.98,0
				c-0.03,0.15,0.01,0.27,0.04,0.39c0.26,1.11,1,1.8,2.02,2.21c0.57,0.23,1.17,0.31,1.78,0.35c1.84,0.12,3.57-0.32,5.27-0.96
				c0.27-0.1,0.53-0.2,0.8-0.3c0.01,0,0.02,0,0.04-0.01c0.04,0.06,0.02,0.12,0.02,0.18c0,1.11,0,2.23,0,3.34
				c0,0.14-0.05,0.22-0.17,0.28c-0.73,0.37-1.5,0.63-2.3,0.81C71,31.54,70,31.67,69,31.73z M70.27,21.99
				c-0.02-0.19-0.04-0.37-0.07-0.55c-0.11-0.67-0.36-1.28-0.88-1.75c-0.69-0.62-1.51-0.76-2.39-0.64c-0.95,0.13-1.62,0.64-2.05,1.48
				c-0.17,0.33-0.27,0.69-0.35,1.05c-0.03,0.14-0.08,0.27-0.07,0.42C66.4,21.99,68.33,21.99,70.27,21.99z"/>
			<path class="st4" d="M24.7,31.73c-0.62,0-1.25,0-1.87,0c-1.24-0.06-2.46-0.23-3.59-0.81c-1.34-0.69-2.08-1.8-2.29-3.28
				c-0.12-0.87-0.12-1.73,0.16-2.57c0.39-1.19,1.21-2,2.32-2.53c0.89-0.42,1.84-0.61,2.81-0.71c1.21-0.12,2.41-0.01,3.61,0.06
				c0.06,0,0.12,0.01,0.19,0.01c0.03-0.51,0.03-0.99-0.28-1.43c-0.42-0.6-1-0.93-1.71-1.05c-1.77-0.29-3.52-0.28-5.25,0.23
				c-0.06,0.02-0.12,0.05-0.19,0.03c-0.04-0.06-0.02-0.12-0.02-0.18c0-1.07,0-2.15-0.01-3.22c0-0.16,0.05-0.23,0.2-0.27
				c0.7-0.21,1.42-0.33,2.15-0.43c0.97-0.13,1.94-0.23,2.92-0.2c1.16,0.04,2.3,0.16,3.38,0.62c1.56,0.66,2.47,1.85,2.82,3.49
				c0.16,0.73,0.23,1.47,0.23,2.22c0,3.04,0,6.07,0,9.11c0,0.05,0,0.1,0,0.17C28.44,31.36,26.59,31.71,24.7,31.73z M26.06,28.23
				c0-1.02,0-2.02,0-3.03c0-0.12-0.06-0.13-0.15-0.15c-0.94-0.19-1.89-0.24-2.84-0.15c-0.33,0.03-0.68,0.05-0.98,0.21
				c-0.64,0.34-0.93,1-0.8,1.78c0.09,0.55,0.37,0.96,0.9,1.17c0.17,0.07,0.34,0.13,0.52,0.17c0.74,0.18,1.49,0.13,2.24,0.1
				C25.31,28.31,25.68,28.3,26.06,28.23z"/>
			<path class="st5" d="M92.69,31.73c-0.62,0-1.25,0-1.87,0c-1.15-0.06-2.28-0.21-3.34-0.69c-1.4-0.64-2.24-1.71-2.5-3.23
				c-0.14-0.84-0.15-1.69,0.07-2.52c0.31-1.17,1.04-2.02,2.09-2.6c0.86-0.47,1.8-0.7,2.77-0.83c1.12-0.15,2.25-0.09,3.37-0.01
				c0.24,0.02,0.49,0.02,0.75,0.04c0.05-0.57,0-1.11-0.39-1.58c-0.47-0.57-1.09-0.82-1.78-0.93c-1.5-0.23-3-0.21-4.49,0.12
				c-0.25,0.05-0.5,0.13-0.74,0.2c-0.07-0.07-0.05-0.15-0.05-0.22c0-1.07,0-2.14-0.01-3.2c0-0.16,0.06-0.23,0.2-0.27
				c0.6-0.19,1.22-0.3,1.84-0.39c1.08-0.15,2.17-0.28,3.27-0.24c1.17,0.04,2.32,0.17,3.41,0.65c1.51,0.67,2.4,1.83,2.75,3.43
				c0.17,0.76,0.24,1.53,0.24,2.31c0,3,0,6.01,0,9.01c0,0.06,0,0.12,0,0.2C96.44,31.37,94.58,31.7,92.69,31.73z M94.03,28.23
				c0.01-0.03,0.02-0.04,0.02-0.05c0-0.99,0-1.98,0.01-2.97c0-0.11-0.05-0.14-0.15-0.16c-1.05-0.21-2.1-0.25-3.16-0.11
				c-0.24,0.03-0.49,0.06-0.71,0.19c-0.61,0.37-0.83,0.93-0.77,1.62c0.06,0.64,0.35,1.11,0.98,1.34c0.15,0.05,0.29,0.11,0.44,0.14
				c0.75,0.18,1.51,0.13,2.26,0.1C93.31,28.31,93.67,28.32,94.03,28.23z"/>
			<path class="st9" d="M36.62,27.69c2.5,0,4.98,0,7.48,0c0,1.22,0,2.42,0,3.64c-4.28,0-8.56,0-12.84,0
				c-0.04-0.07-0.02-0.13-0.02-0.2c0-0.74,0-1.48,0-2.21c0-0.12,0.03-0.22,0.09-0.33c1.04-1.73,2.26-3.34,3.5-4.94
				c1.06-1.37,2.15-2.71,3.26-4.03c0.04-0.04,0.07-0.09,0.12-0.16c-2.22,0-4.4,0-6.6,0c0-1.22,0-2.43,0-3.65c4.11,0,8.22,0,12.34,0
				c0.04,0.06,0.02,0.12,0.02,0.19c0,0.86,0,1.72,0,2.58c0,0.13-0.04,0.22-0.12,0.31c-2,2.2-3.97,4.42-5.79,6.78
				c-0.47,0.62-0.94,1.24-1.38,1.88C36.65,27.58,36.61,27.61,36.62,27.69z"/>
			<path class="st3" d="M85.63,19.69c-0.55-0.12-1.06-0.23-1.58-0.3c-1.31-0.19-2.61-0.26-3.92,0.01c-0.18,0.04-0.22,0.11-0.22,0.28
				c0,3.8,0,7.6,0,11.4c0,0.08,0,0.15,0,0.24c-1.48,0-2.94,0-4.4,0c-0.04-0.08-0.02-0.16-0.02-0.23c0-4.74,0-9.49-0.01-14.23
				c0-0.18,0.05-0.25,0.22-0.31c1.15-0.37,2.3-0.69,3.5-0.88c1.3-0.2,2.61-0.27,3.93-0.11c0.77,0.09,1.54,0.2,2.29,0.43
				c0.15,0.05,0.21,0.11,0.21,0.28c-0.01,1.07,0,2.14,0,3.2C85.63,19.54,85.63,19.6,85.63,19.69z"/>
			<path class="st9" d="M84,8.46c0.34,0.05,0.68,0.07,1.03,0.07c1.35,0,2.7,0,4.04,0c0.03,0,0.06,0,0.12,0c0-0.35,0-0.69,0-1.03
				c0-0.17,0-0.35,0-0.52c0.01-0.38-0.18-0.65-0.51-0.82C88.37,6,88.04,5.95,87.7,5.94c-0.38-0.01-0.76-0.01-1.15,0.01
				c-0.38,0.02-0.76,0.06-1.11,0.19c-0.07-0.05-0.05-0.12-0.05-0.17c0-0.41,0.01-0.83-0.01-1.24c0-0.15,0.05-0.21,0.19-0.25
				c0.42-0.13,0.84-0.2,1.28-0.22c0.7-0.03,1.4-0.07,2.09,0.05c1.33,0.23,2.06,1.08,2.1,2.44c0.02,0.52,0.01,1.05,0.01,1.57
				c0,0.07,0,0.14,0,0.21c0.72,0.11,1.29-0.34,1.39-1.09c0.03-0.2,0.04-0.4,0.04-0.6c0-1.85,0-3.7,0-5.55c0-0.07,0-0.14,0-0.22
				c0.69,0,1.36,0,2.02,0c0.04,0.07,0.02,0.13,0.02,0.2c0,1.86,0,3.73,0,5.59c0,0.51-0.05,1.02-0.23,1.51
				c-0.38,1.03-1.17,1.56-2.22,1.74c-0.3,0.05-0.6,0.07-0.91,0.07c-2.07,0-4.13,0-6.2,0c-0.32,0-0.65-0.03-0.97-0.04
				c0-0.41,0-0.83,0-1.24C84.01,8.74,83.92,8.6,84,8.46z"/>
			<path class="st4" d="M77.76,4.32c0.66,0,1.33,0,1.99,0c0.04,0.04,0.03,0.08,0.03,0.11c0,0.89,0,1.77,0,2.66
				c0,0.53-0.1,1.04-0.33,1.52c-0.43,0.89-1.19,1.32-2.13,1.48c-0.72,0.12-1.45,0.06-2.17,0.07c-0.19,0-0.37,0-0.58,0
				c-0.03,0.2-0.06,0.39-0.1,0.58c-0.28,1.24-1.13,2.01-2.42,2.19c-0.34,0.05-0.68,0.06-1.03,0.06c0-0.58,0-1.14,0-1.71
				c0.08-0.05,0.16-0.03,0.24-0.03c0.81-0.08,1.2-0.48,1.24-1.29c0.02-0.34,0.01-0.67,0.01-1.01c0-1.46,0-2.91,0-4.37
				c0-0.08-0.02-0.15,0.02-0.24c0.66,0,1.33,0,2.01,0c0,1.39,0,2.79,0,4.17c0.03,0.02,0.04,0.04,0.05,0.04c0.63,0,1.26,0.02,1.89,0
				c0.75-0.03,1.17-0.46,1.23-1.21c0.06-0.92,0.01-1.84,0.03-2.76C77.74,4.48,77.72,4.4,77.76,4.32z"/>
			<path class="st5" d="M70.65,9.38c-1.24,0.26-2.48,0.51-3.75,0.4c-0.59-0.05-1.18-0.16-1.71-0.46c-0.74-0.41-1.12-1.05-1.21-1.87
				C63.94,7.11,63.94,6.78,64,6.46c0.2-1.02,0.87-1.58,1.81-1.88c0.76-0.24,1.54-0.23,2.33-0.17c0.79,0.06,1.57,0.19,2.35,0.28
				c0.11,0.01,0.18,0.02,0.18,0.16c0,1.49,0,2.98,0,4.47C70.67,9.33,70.66,9.34,70.65,9.38z M68.62,7.88c0-0.56,0-1.09,0-1.62
				c0-0.09-0.05-0.11-0.13-0.13c-0.62-0.12-1.23-0.13-1.85-0.02c-0.07,0.01-0.15,0.05-0.21,0.08c-0.33,0.19-0.47,0.52-0.41,0.93
				c0.06,0.42,0.33,0.65,0.72,0.74C67.35,8.01,67.97,7.93,68.62,7.88z"/>
			<path class="st8" d="M84,8.46c-0.08,0.14,0.01,0.28,0.01,0.41c0,0.41,0,0.83,0,1.24c-0.05,0.29-0.08,0.59-0.16,0.88
				c-0.36,1.16-1.2,1.75-2.36,1.93c-0.34,0.05-0.68,0.06-1.03,0.05c0-0.58,0-1.15,0-1.72c0.14-0.01,0.28-0.02,0.41-0.04
				c0.52-0.06,0.87-0.36,1.01-0.86c0.07-0.26,0.08-0.52,0.08-0.79c0-1.68,0-3.35,0-5.03c0-0.07,0-0.14,0-0.22c0.69,0,1.36,0,2.05,0
				C84,5.71,84,7.09,84,8.46z"/>
			<path class="st5" d="M96.2,1.05c0.69,0,1.35,0,2.01,0c0.05,0.07,0.03,0.15,0.03,0.22c0,2.89,0,5.77,0,8.66
				c0,0.18-0.04,0.25-0.23,0.24c-0.54-0.01-1.08,0-1.61-0.01c-0.06,0-0.13,0.02-0.2-0.03C96.2,7.12,96.2,4.09,96.2,1.05z"/>
			<path class="st4" d="M59.96,8.62c0.44-0.44,0.91-0.91,1.37-1.36c0.45,0.45,0.92,0.93,1.39,1.39c-0.44,0.44-0.91,0.91-1.36,1.36
				C60.9,9.55,60.43,9.08,59.96,8.62z"/>
			<path class="st8" d="M82.89,1.45c0.54,0,0.98,0.43,0.98,0.97c0,0.54-0.44,0.99-0.99,0.98c-0.54,0-0.97-0.45-0.97-0.98
				C81.91,1.89,82.35,1.45,82.89,1.45z"/>
			<path class="st10" d="M77.99,12.97c-0.54-0.01-0.97-0.45-0.96-0.99c0.01-0.54,0.46-0.97,1.01-0.96c0.53,0.01,0.96,0.46,0.95,1
				C78.98,12.56,78.54,12.98,77.99,12.97z"/>
			<path class="st9" d="M88.38,12.01c0,0.54-0.44,0.97-0.98,0.97c-0.55,0-0.98-0.44-0.97-0.99c0.01-0.53,0.45-0.96,0.99-0.96
				C87.95,11.03,88.38,11.47,88.38,12.01z"/>
			<path class="st10" d="M75.91,11.02c0.53,0,0.98,0.45,0.98,0.98c0,0.54-0.45,0.98-1,0.98c-0.54-0.01-0.98-0.45-0.97-0.98
				C74.93,11.46,75.37,11.02,75.91,11.02z"/>
			<path class="st5" d="M69.32,1.46c0.55,0,0.99,0.44,0.99,0.98c0,0.52-0.46,0.97-0.99,0.97c-0.54,0-0.99-0.45-0.99-0.99
				C68.34,1.89,68.78,1.46,69.32,1.46z"/>
			<path class="st5" d="M68.19,2.42c0,0.55-0.42,0.98-0.96,0.98c-0.55,0-0.99-0.43-0.99-0.98c0-0.54,0.43-0.97,0.98-0.97
				C67.77,1.46,68.19,1.87,68.19,2.42z"/>
			<path class="st2" d="M48.9,21.99c0.19-1.82,1.22-2.91,2.8-2.97c0.84-0.03,1.59,0.18,2.19,0.8c0.46,0.48,0.67,1.06,0.77,1.7
				c0.02,0.15,0.06,0.3,0.03,0.47C52.75,21.99,50.82,21.99,48.9,21.99z"/>
			<path class="st2" d="M70.27,21.99c-1.95,0-3.87,0-5.81,0c-0.01-0.15,0.04-0.28,0.07-0.42c0.08-0.36,0.18-0.72,0.35-1.05
				c0.43-0.84,1.11-1.35,2.05-1.48c0.88-0.12,1.7,0.02,2.39,0.64c0.52,0.47,0.77,1.07,0.88,1.75C70.23,21.62,70.25,21.8,70.27,21.99
				z"/>
			<path class="st2" d="M26.06,28.23c-0.38,0.08-0.75,0.09-1.12,0.1c-0.75,0.03-1.5,0.08-2.24-0.1c-0.18-0.04-0.35-0.1-0.52-0.17
				c-0.53-0.21-0.81-0.62-0.9-1.17c-0.13-0.78,0.16-1.44,0.8-1.78c0.31-0.16,0.65-0.18,0.98-0.21c0.95-0.09,1.9-0.04,2.84,0.15
				c0.09,0.02,0.15,0.03,0.15,0.15C26.06,26.2,26.06,27.2,26.06,28.23z"/>
			<path class="st2" d="M94.03,28.23c-0.36,0.09-0.72,0.09-1.08,0.1c-0.76,0.03-1.51,0.08-2.26-0.1c-0.15-0.04-0.3-0.09-0.44-0.14
				c-0.63-0.23-0.92-0.7-0.98-1.34c-0.06-0.69,0.16-1.25,0.77-1.62c0.22-0.13,0.46-0.16,0.71-0.19c1.06-0.14,2.11-0.1,3.16,0.11
				c0.1,0.02,0.15,0.05,0.15,0.16c0,0.99,0,1.98-0.01,2.97C94.05,28.18,94.04,28.2,94.03,28.23z"/>
			<path class="st2" d="M68.62,7.88c-0.65,0.06-1.27,0.13-1.89-0.02c-0.39-0.09-0.66-0.32-0.72-0.74c-0.06-0.41,0.09-0.74,0.41-0.93
				c0.07-0.04,0.14-0.07,0.21-0.08c0.62-0.11,1.24-0.09,1.85,0.02c0.08,0.02,0.13,0.04,0.13,0.13C68.62,6.78,68.62,7.31,68.62,7.88z
				"/>
		</g>
	</g>
</g>
<g id="Emirates" class="st0">
	<g class="st1">
		<path class="st11" d="M29.62,17.67c0.12,0.42,0.18,0.8,0.32,1.14c0.29,0.7,1.02,1.08,1.59,0.73c1.07-0.66,2.08-1.43,2.65-2.6
			c0.39-0.79,0.23-1.73-0.3-2.12c-0.74-0.55-1.42-0.17-2.03,0.26c-0.51,0.35-0.95,0.79-1.4,1.16c-0.33-0.09-0.4-0.46-0.77-0.43
			c0.06,0.72,0.08,1.39-0.77,1.75c-0.72,0.31-1.41,0.23-2.07,0.17c-0.35-1.89,0.32-3.28,1.87-4.33c-0.53-0.2-0.75,0-0.98,0.21
			c-0.33,0.29-0.65,0.58-0.98,0.88c-0.94,0.84-1.94,1.62-2.18,2.97c-0.08,0.42-0.44,0.33-0.73,0.33c-3.2,0-6.4,0.01-9.61,0
			c-1.33-0.01-2.16-0.75-2.3-2.07c-0.07-0.7-0.04-1.42-0.03-2.12c0.02-0.82,0-1.64-0.15-2.44c-0.13-0.66-0.46-1.08-1.35-0.85
			c0.87,0.81,0.89,1.81,0.87,2.83c-0.02,1.2-0.06,2.4,0.15,3.59c0.32,1.79,1.56,3.7,4.24,3.59c2.38-0.11,4.76-0.04,7.14-0.03
			c0.53,0,1.09-0.1,1.69,0.15c0,1.46-0.07,2.93,0.02,4.4c0.11,1.74-0.16,3.26-1.77,4.27c-0.06,0.04-0.08,0.12-0.13,0.2
			c0.4,0.23,0.62-0.01,0.86-0.24c0.74-0.69,1.48-1.37,2.24-2.05c0.67-0.6,0.99-1.35,0.99-2.25c0.01-1.23,0.02-2.45,0.02-3.68
			c0-0.33-0.02-0.66,0.23-0.93C27.81,19.29,28.67,18.46,29.62,17.67z M57.8,23.27c-0.45-0.64-0.84-1.08-0.84-1.7
			c-0.01-1.64-0.03-3.27-0.04-4.91c0-0.38,0.06-0.76,0.39-1.03c0.43-0.36,0.91-0.52,1.45-0.32c0.53,0.2,0.85,0.61,0.86,1.18
			c0.04,1.5,0.05,3,0.06,4.5c0.02,2.21,0.12,2.32,2.3,2.29c0.26,0,0.53-0.02,0.96-0.05c-1.11-1.02-0.88-2.26-0.9-3.43
			c-0.01-1.2,0.05-2.4,0-3.6c-0.08-1.67-0.98-2.51-2.65-2.62c-1.24-0.08-2.02,0.56-2.56,1.74c-0.58-1.12-1.35-1.72-2.52-1.76
			c-1.18-0.03-1.98,0.54-2.54,1.58c-0.62-1.45-1.27-1.74-3.02-1.4c0.85,0.88,0.66,1.98,0.69,3.02c0.04,1.82-0.16,3.65,0.1,5.47
			c0.06,0.41,0.12,0.92,0.59,0.97c0.79,0.08,1.59,0.02,2.46,0.02c-0.3-0.56-0.71-0.9-0.73-1.42c-0.1-1.8-0.13-3.59-0.04-5.39
			c0.04-0.75,0.65-1.21,1.4-1.2c0.67,0.01,1.22,0.49,1.29,1.23c0.06,0.62,0.04,1.25,0.04,1.88c0.01,1.31-0.07,2.62,0.1,3.92
			c0.07,0.53,0.25,0.98,0.87,1C56.23,23.29,56.93,23.27,57.8,23.27z M13.18,13.46c-0.02,0.25-0.05,0.48-0.05,0.72
			c-0.03,1.64,0.42,2.1,2.05,2.11c1.37,0,2.73,0,4.1,0c1.27,0,3.33-1.66,3.46-2.92c0.18-1.7,0.08-3.39-1.07-4.81
			c-0.14-0.17-0.32-0.32-0.21-0.57c0.3-0.76,0.13-1.56,0.19-2.35c0-0.06,0.08-0.12,0.11-0.16c0.26,0.09,0.28,0.44,0.58,0.43
			c1.4-1.13,1.42-1.29,0.32-2.67c-0.48-0.6-0.9-1.24-1.06-2.05c-1.52,1.14-1.86,1.9-1.11,2.87c0.87,1.13,0.39,2.3,0.5,3.46
			c-0.15,0.02-0.22,0.05-0.25,0.03c-0.21-0.12-0.41-0.26-0.62-0.39c-1.75-1.07-3.58-1.1-5.39-0.27c-1.35,0.62-1.86,2.01-1.21,3.02
			c0.34,0.54,0.82,0.98,1.44,1.43c-0.03-0.59-0.06-1.04-0.07-1.5c-0.02-0.68-0.09-1.37,0.14-2.03c0.26-0.75,0.75-0.97,1.38-0.57
			c0.98,0.6,1.84,1.34,2.68,2.18c-1.07,1.28-2.21,2.41-3.35,3.55C14.73,13.97,14.44,14.02,13.18,13.46z M42.09,12.5
			c2,0.03,3.96-0.28,5.87,0.75c-0.42-1.38-1.39-2.03-3.04-2.07c-1.69-0.04-3.39-0.02-5.09-0.02c-0.39,0-0.78,0-1.34,0
			c0.93,1.02,1.03,2.1,1.04,3.2c0.02,2.18,0.02,4.36,0.04,6.54c0,0.46,0.05,0.92,0.1,1.38c0.06,0.63,0.39,1.01,1.05,1.01
			c1.97,0,3.93,0.04,5.9-0.05c1.13-0.05,1.62-0.77,1.51-1.98c-0.64,0.44-1.34,0.64-2.09,0.66c-0.87,0.02-1.75,0.01-2.62,0.03
			c-0.74,0.02-1.13-0.33-1.14-1.07c-0.02-1.23,0.01-2.45-0.04-3.68c-0.03-0.61,0.22-0.75,0.76-0.74c1.04,0.03,2.09-0.08,3.27,0.43
			c-1.01-1.73-2.5-1.67-4-1.68C42.21,14.29,42.28,13.42,42.09,12.5z M81.61,23.13c-1.17-1.01-0.82-2.31-0.84-3.54
			c-0.02-1.15,0-2.29-0.01-3.44c0-1.01-0.51-1.7-1.37-2.15c-0.87-0.45-1.78-0.49-2.71-0.26c-1.32,0.33-1.51,0.65-1.17,1.99
			c0.4-0.43,0.78-0.85,1.37-1.01c0.67-0.18,1.28-0.09,1.63,0.57c0.35,0.67,0.06,1.24-0.5,1.63c-0.44,0.31-0.96,0.52-1.45,0.76
			c-0.74,0.35-1.49,0.71-2.02,1.37c-0.7,0.88-0.9,1.88-0.44,2.91c0.46,1.03,1.38,1.3,2.44,1.31c0.81,0.01,1.4-0.36,1.87-0.98
			C78.98,23.35,79.67,23.54,81.61,23.13z M94.55,21.16c-0.28,0.25-0.46,0.45-0.68,0.61c-1.02,0.75-2.36,0.47-3.04-0.64
			c-0.62-1.01-0.48-1.31,1-2.1c0.87-0.47,1.74-0.92,2.36-1.73c0.99-1.29,0.61-2.84-0.87-3.42c-1.27-0.5-2.52-0.43-3.67,0.38
			c-1.75,1.22-2.44,4.08-1.58,6.39c0.72,1.92,2.45,2.85,4.86,2.6C94.45,23.07,94.71,22.76,94.55,21.16z M20.69,21.21
			c0,0.74,0.04,1.36-0.01,1.98c-0.06,0.69,0.15,1.22,0.72,1.62c0.62,0.44,0.92,1.02,0.64,1.77c-0.29,0.8-0.91,1.1-1.74,1.09
			c-1.4-0.01-2.79,0-4.19,0c-3.48,0-5.31-1.83-5.33-5.29c-0.01-1.11,0.1-2.23-0.13-3.34c-0.15-0.71-0.49-1.05-1.33-0.82
			c0.72,0.62,0.84,1.4,0.83,2.24c-0.01,1.36,0,2.73,0.02,4.09c0.03,2.45,1.72,4.72,3.97,5.34c0.88,0.24,1.8,0.13,2.69,0.23
			c2.09,0.23,3.62-0.64,4.89-2.23C23.38,25.81,22.99,22.83,20.69,21.21z M20.15,30.18c1.36,1.63,2.74,2.64,4.97,2.29
			c3.04-0.48,5.06-2.32,5.28-5.38c0.1-1.33,0.06-2.67,0.06-4c0-1.37-0.74-2.32-1.91-3.16c0.02,1.46-0.45,2.86,0.95,3.91
			c0.59,0.44,0.6,1.17,0.37,1.88c-0.75,2.32-3.41,4.37-5.84,4.45C22.78,30.21,21.53,30.18,20.15,30.18z M86.24,23.26
			c-0.7-0.78-0.73-1.65-0.72-2.53c0.01-0.95,0-1.91,0-2.86c0-1.03,0-2.05,0-3.04c0.79-0.23,1.43,0.11,2.11,0.16
			c0.04-0.47,0.08-0.87-0.04-1.36c-0.66,0-1.32,0-2.07,0c0-0.7,0-1.31,0-2.08c-0.65,0.71-1.12,1.33-1.75,1.81
			c-0.6,0.46-1.37,0.67-1.97,1.29c0.49,0.11,0.92-0.03,1.42,0.23c0,0.89,0,1.84,0,2.79c0,1.47-0.01,2.94-0.01,4.41
			c0,0.82,0.45,1.18,1.24,1.18C85.05,23.26,85.65,23.26,86.24,23.26z M68.11,13.65c0.81,1.21,0.56,2.56,0.56,3.87
			c0.01,1.53-0.05,3.05,0.13,4.57c0.06,0.49,0.11,1.06,0.73,1.13c0.74,0.08,1.49,0.1,2.42-0.07c-0.97-0.81-0.9-1.8-0.89-2.78
			c0.01-1.12-0.01-2.23,0.01-3.35c0.01-1.23,0.81-1.86,2.04-1.7c0.44,0.06,0.76,0.39,1.23,0.5c-0.03-0.79,0.3-1.69-0.65-2.04
			c-1.32-0.5-2.07,0.37-2.69,1.42C70.59,13.64,70.24,13.46,68.11,13.65z M63.44,13.73c0.69,0.75,0.72,1.61,0.72,2.49
			c-0.01,1.91-0.01,3.82,0.02,5.72c0.01,0.51,0.05,1.16,0.67,1.26c0.78,0.13,1.59,0.12,2.49-0.02c-0.75-0.74-0.88-1.58-0.87-2.48
			c0.03-1.5,0.02-3,0.02-4.5c0-2.28-0.5-2.75-2.78-2.58C63.67,13.64,63.62,13.67,63.44,13.73z M14.22,25.4
			c2.37-1.59,2.03-2.41,0.13-3.84c-0.61,0.55-1.21,1.09-1.85,1.65C13.22,23.86,13.79,24.58,14.22,25.4z M17.84,25.47
			c0.74-0.62,1.66-1.11,1.64-2.07c-0.02-0.95-0.95-1.42-1.49-1.89c-0.66,0.59-1.24,1.1-1.85,1.64
			C16.77,23.89,17.46,24.51,17.84,25.47z M66.48,11.69c-0.01-0.68-0.54-1.21-1.19-1.18c-0.69,0.03-1.18,0.54-1.16,1.21
			c0.02,0.66,0.49,1.12,1.15,1.12C65.97,12.85,66.49,12.35,66.48,11.69z"/>
		<path class="st12" d="M101.65,20.81c-0.4,0.5-0.57,1.15-1.09,1.59c-1.18,0.98-3.25,1.18-4.55,0.35c-0.61-0.4-0.14-1.02-0.21-1.56
			c0.64,0.67,1.27,1.24,2.27,0.98c0.69-0.18,1.19-0.56,1.35-1.27c0.14-0.66-0.25-1.09-0.74-1.43c-0.6-0.42-1.24-0.8-1.83-1.24
			c-0.98-0.72-1.37-1.8-1.08-2.88c0.27-0.99,1.19-1.68,2.42-1.76c0.43-0.03,0.88-0.01,1.31,0.07c1.37,0.27,1.57,0.56,1.43,2.08
			c-0.5-0.58-1.02-1.06-1.77-1.11c-0.54-0.04-1.08-0.01-1.32,0.58c-0.25,0.61,0.17,0.97,0.59,1.29c0.22,0.16,0.45,0.32,0.69,0.44
			c1.23,0.63,2.17,1.51,2.54,2.89C101.65,20.15,101.65,20.48,101.65,20.81z"/>
		<path class="st12" d="M28.71,1c-0.08,0.31-0.31,0.5-0.55,0.68c-1,0.74-1.4,1.76-1.39,2.98c0.01,2.04-0.03,4.09,0.01,6.13
			c0.03,1.41-0.46,2.54-1.51,3.46c-0.6,0.52-1.19,1.05-1.77,1.58c-0.23,0.21-0.47,0.37-0.79,0.2c0.01-0.2,0.15-0.31,0.28-0.39
			c1.31-0.86,1.62-2.1,1.56-3.61c-0.08-2.12,0-4.25,0.02-6.37c0.01-0.99,0.43-1.77,1.17-2.42C26.57,2.5,27.39,1.75,28.22,1
			C28.38,1,28.55,1,28.71,1z"/>
		<path class="st12" d="M29.62,17.67c-0.95,0.79-1.81,1.62-2.63,2.49c-0.25,0.26-0.23,0.6-0.23,0.93c0,1.23-0.01,2.45-0.02,3.68
			c-0.01,0.89-0.32,1.64-0.99,2.25c-0.75,0.67-1.49,1.36-2.24,2.05c-0.24,0.22-0.47,0.46-0.86,0.24c0.05-0.08,0.08-0.16,0.13-0.2
			c1.6-1.01,1.88-2.53,1.77-4.27c-0.09-1.46-0.02-2.94-0.02-4.4c-0.61-0.25-1.16-0.15-1.69-0.15c-2.38-0.01-4.77-0.08-7.14,0.03
			c-2.68,0.12-3.92-1.79-4.24-3.59c-0.22-1.19-0.17-2.39-0.15-3.59c0.01-1.02,0-2.02-0.87-2.83c0.89-0.23,1.22,0.19,1.35,0.85
			c0.16,0.81,0.17,1.62,0.15,2.44c-0.01,0.71-0.04,1.42,0.03,2.12c0.14,1.32,0.97,2.06,2.3,2.07c3.2,0.01,6.4,0.01,9.61,0
			c0.29,0,0.65,0.09,0.73-0.33c0.25-1.35,1.25-2.13,2.18-2.97c0.33-0.29,0.65-0.58,0.98-0.88c0.23-0.2,0.45-0.41,0.98-0.21
			c-1.55,1.05-2.22,2.44-1.87,4.33c0.66,0.06,1.35,0.13,2.07-0.17c0.85-0.36,0.83-1.03,0.77-1.75c0.37-0.03,0.44,0.34,0.77,0.43
			c0.44-0.37,0.89-0.81,1.4-1.16c0.62-0.42,1.29-0.81,2.03-0.26c0.53,0.39,0.69,1.33,0.3,2.12c-0.57,1.17-1.58,1.94-2.65,2.6
			c-0.57,0.35-1.3-0.03-1.59-0.73C29.8,18.47,29.74,18.1,29.62,17.67z M30.85,16.73c0.31,0.55,0.72,0.93,1.21,1.23
			c0.18,0.11,0.38,0.24,0.61,0.1c0.25-0.15,0.23-0.41,0.21-0.65C32.8,16.45,32.06,16.17,30.85,16.73z"/>
		<path class="st12" d="M57.8,23.27c-0.87,0-1.57,0.02-2.27-0.01c-0.62-0.02-0.81-0.47-0.87-1c-0.16-1.3-0.09-2.61-0.1-3.92
			c0-0.63,0.02-1.26-0.04-1.88c-0.07-0.74-0.61-1.22-1.29-1.23c-0.75-0.01-1.36,0.44-1.4,1.2c-0.09,1.8-0.06,3.59,0.04,5.39
			c0.03,0.51,0.43,0.86,0.73,1.42c-0.87,0-1.68,0.06-2.46-0.02c-0.47-0.05-0.53-0.56-0.59-0.97c-0.26-1.82-0.06-3.65-0.1-5.47
			c-0.02-1.04,0.17-2.14-0.69-3.02c1.75-0.35,2.4-0.06,3.02,1.4c0.56-1.04,1.36-1.61,2.54-1.58c1.17,0.03,1.94,0.63,2.52,1.76
			c0.54-1.18,1.31-1.82,2.56-1.74c1.67,0.11,2.57,0.94,2.65,2.62c0.05,1.2-0.01,2.4,0,3.6c0.01,1.18-0.21,2.41,0.9,3.43
			c-0.43,0.02-0.7,0.04-0.96,0.05c-2.18,0.03-2.28-0.08-2.3-2.29c-0.01-1.5-0.03-3-0.06-4.5c-0.01-0.57-0.33-0.98-0.86-1.18
			c-0.54-0.2-1.01-0.04-1.45,0.32c-0.33,0.28-0.4,0.65-0.39,1.03c0,1.64,0.02,3.27,0.04,4.91C56.96,22.18,57.35,22.62,57.8,23.27z"
			/>
		<path class="st12" d="M13.18,13.46c1.26,0.56,1.55,0.51,2.55-0.5c1.13-1.14,2.28-2.27,3.35-3.55c-0.83-0.83-1.7-1.58-2.68-2.18
			c-0.63-0.39-1.12-0.18-1.38,0.57c-0.23,0.66-0.16,1.35-0.14,2.03c0.01,0.46,0.04,0.91,0.07,1.5c-0.63-0.45-1.1-0.89-1.44-1.43
			c-0.65-1.01-0.14-2.4,1.21-3.02c1.81-0.83,3.65-0.8,5.39,0.27c0.21,0.13,0.41,0.26,0.62,0.39c0.04,0.02,0.1-0.01,0.25-0.03
			c-0.11-1.16,0.37-2.33-0.5-3.46c-0.75-0.97-0.41-1.73,1.11-2.87c0.16,0.81,0.57,1.44,1.06,2.05c1.11,1.38,1.08,1.55-0.32,2.67
			c-0.3,0.01-0.31-0.35-0.58-0.43c-0.03,0.05-0.1,0.1-0.11,0.16c-0.06,0.78,0.11,1.58-0.19,2.35c-0.1,0.25,0.08,0.4,0.21,0.57
			c1.15,1.43,1.25,3.11,1.07,4.81c-0.13,1.27-2.19,2.92-3.46,2.92c-1.37,0-2.73,0-4.1,0c-1.63,0-2.08-0.47-2.05-2.11
			C13.13,13.94,13.16,13.71,13.18,13.46z M15.62,13.96c2.03,0,3.91,0.03,5.78-0.02c0.63-0.02,0.85-0.47,0.58-1.04
			c-0.54-1.18-1.45-2.07-2.21-2.88C18.37,11.34,17.06,12.59,15.62,13.96z"/>
		<path class="st12" d="M42.09,12.5c0.18,0.92,0.12,1.79,0.18,2.72c1.5,0.02,2.99-0.05,4,1.68c-1.19-0.51-2.23-0.39-3.27-0.43
			c-0.54-0.02-0.79,0.12-0.76,0.74c0.06,1.22,0.03,2.45,0.04,3.68c0.01,0.74,0.39,1.09,1.14,1.07c0.87-0.02,1.75-0.01,2.62-0.03
			c0.75-0.02,1.45-0.22,2.09-0.66c0.1,1.21-0.38,1.93-1.51,1.98c-1.96,0.08-3.93,0.05-5.9,0.05c-0.66,0-1-0.38-1.05-1.01
			c-0.04-0.46-0.09-0.92-0.1-1.38c-0.02-2.18-0.02-4.36-0.04-6.54c-0.01-1.1-0.1-2.18-1.04-3.2c0.56,0,0.95,0,1.34,0
			c1.7,0,3.39-0.02,5.09,0.02c1.65,0.04,2.62,0.69,3.04,2.07C46.05,12.22,44.09,12.53,42.09,12.5z"/>
		<path class="st12" d="M81.61,23.13c-1.94,0.41-2.63,0.22-3.2-0.83c-0.47,0.62-1.06,0.99-1.87,0.98c-1.06-0.01-1.99-0.28-2.44-1.31
			c-0.46-1.03-0.26-2.03,0.44-2.91c0.53-0.66,1.27-1.01,2.02-1.37c0.49-0.23,1.01-0.45,1.45-0.76c0.56-0.39,0.85-0.96,0.5-1.63
			c-0.35-0.66-0.96-0.75-1.63-0.57c-0.58,0.15-0.97,0.58-1.37,1.01c-0.33-1.34-0.15-1.66,1.17-1.99c0.93-0.23,1.85-0.19,2.71,0.26
			c0.87,0.45,1.37,1.15,1.37,2.15c0,1.15-0.02,2.29,0.01,3.44C80.8,20.82,80.44,22.12,81.61,23.13z M78.42,17.7
			c-0.81,0.49-1.44,0.86-1.9,1.43c-0.51,0.63-0.69,1.37-0.49,2.15c0.16,0.65,0.67,0.92,1.31,0.87c0.5-0.04,1.04-0.17,1.07-0.79
			C78.45,20.2,78.42,19.04,78.42,17.7z"/>
		<path class="st12" d="M94.55,21.16c0.16,1.6-0.1,1.92-1.62,2.08c-2.4,0.25-4.14-0.67-4.86-2.6c-0.86-2.31-0.17-5.16,1.58-6.39
			c1.15-0.8,2.4-0.88,3.67-0.38c1.48,0.59,1.86,2.14,0.87,3.42c-0.62,0.8-1.5,1.26-2.36,1.73c-1.48,0.79-1.62,1.09-1,2.1
			c0.68,1.11,2.02,1.39,3.04,0.64C94.08,21.6,94.27,21.41,94.55,21.16z M90.34,18.76c1.29-0.74,2.21-1.61,2.3-3.11
			c0.03-0.58-0.06-1.14-0.74-1.27c-0.66-0.13-1.02,0.33-1.22,0.86C90.25,16.35,90.22,17.5,90.34,18.76z"/>
		<path class="st13" d="M20.69,21.21c2.29,1.62,2.69,4.6,1.04,6.67c-1.27,1.59-2.79,2.47-4.89,2.23c-0.89-0.1-1.81,0.02-2.69-0.23
			c-2.25-0.62-3.94-2.89-3.97-5.34c-0.02-1.36-0.03-2.73-0.02-4.09c0.01-0.84-0.11-1.62-0.83-2.24c0.84-0.23,1.18,0.11,1.33,0.82
			c0.23,1.11,0.12,2.23,0.13,3.34c0.02,3.46,1.85,5.29,5.33,5.29c1.4,0,2.79-0.01,4.19,0c0.82,0.01,1.44-0.3,1.74-1.09
			c0.28-0.75-0.02-1.33-0.64-1.77c-0.57-0.4-0.78-0.93-0.72-1.62C20.73,22.57,20.69,21.95,20.69,21.21z"/>
		<path class="st12" d="M20.15,30.18c1.38,0,2.63,0.03,3.88-0.01c2.43-0.08,5.09-2.13,5.84-4.45c0.23-0.71,0.22-1.44-0.37-1.88
			c-1.39-1.05-0.93-2.45-0.95-3.91c1.16,0.84,1.91,1.79,1.91,3.16c0,1.33,0.03,2.67-0.06,4c-0.22,3.06-2.24,4.9-5.28,5.38
			C22.89,32.82,21.5,31.81,20.15,30.18z"/>
		<path class="st12" d="M86.24,23.26c-0.6,0-1.19,0-1.79,0c-0.79,0-1.24-0.37-1.24-1.18c0-1.47,0.01-2.94,0.01-4.41
			c0-0.95,0-1.9,0-2.79c-0.51-0.27-0.93-0.12-1.42-0.23c0.59-0.61,1.37-0.83,1.97-1.29c0.63-0.48,1.1-1.1,1.75-1.81
			c0,0.76,0,1.37,0,2.08c0.74,0,1.41,0,2.07,0c0.12,0.5,0.08,0.89,0.04,1.36c-0.68-0.05-1.32-0.4-2.11-0.16c0,0.99,0,2.01,0,3.04
			c0,0.95,0.02,1.91,0,2.86C85.52,21.61,85.54,22.48,86.24,23.26z"/>
		<path class="st12" d="M68.11,13.65c2.14-0.2,2.49-0.01,2.89,1.55c0.62-1.05,1.37-1.92,2.69-1.42c0.95,0.36,0.61,1.26,0.65,2.04
			c-0.47-0.11-0.78-0.44-1.23-0.5c-1.23-0.17-2.03,0.47-2.04,1.7c-0.01,1.12,0.01,2.23-0.01,3.35c-0.01,0.98-0.08,1.97,0.89,2.78
			c-0.92,0.17-1.68,0.15-2.42,0.07c-0.61-0.07-0.67-0.64-0.73-1.13c-0.18-1.52-0.13-3.05-0.13-4.57
			C68.66,16.21,68.92,14.87,68.11,13.65z"/>
		<path class="st12" d="M63.44,13.73c0.17-0.06,0.22-0.09,0.27-0.1c2.27-0.17,2.78,0.3,2.78,2.58c0,1.5,0.01,3-0.02,4.5
			c-0.02,0.9,0.12,1.73,0.87,2.48c-0.9,0.14-1.71,0.15-2.49,0.02c-0.62-0.11-0.66-0.75-0.67-1.26c-0.03-1.91-0.03-3.82-0.02-5.72
			C64.17,15.34,64.14,14.48,63.44,13.73z"/>
		<path class="st12" d="M14.22,25.4c-0.43-0.82-1.01-1.54-1.72-2.19c0.64-0.57,1.23-1.1,1.85-1.65
			C16.26,22.99,16.59,23.81,14.22,25.4z"/>
		<path class="st12" d="M17.84,25.47c-0.37-0.97-1.07-1.59-1.71-2.32c0.61-0.54,1.19-1.06,1.85-1.64c0.54,0.48,1.47,0.95,1.49,1.89
			C19.5,24.37,18.58,24.86,17.84,25.47z"/>
		<path class="st12" d="M66.48,11.69c0.01,0.66-0.51,1.16-1.21,1.15c-0.66-0.01-1.13-0.46-1.15-1.12c-0.02-0.67,0.47-1.18,1.16-1.21
			C65.93,10.49,66.46,11.01,66.48,11.69z"/>
		<path class="st11" d="M30.85,16.73c1.21-0.55,1.96-0.28,2.03,0.69c0.02,0.24,0.03,0.5-0.21,0.65c-0.22,0.13-0.42,0.01-0.61-0.1
			C31.57,17.66,31.16,17.28,30.85,16.73z"/>
		<path class="st11" d="M15.62,13.96c1.44-1.37,2.75-2.62,4.15-3.94c0.76,0.81,1.67,1.7,2.21,2.88c0.27,0.58,0.05,1.03-0.58,1.04
			C19.52,13.99,17.65,13.96,15.62,13.96z"/>
		<path class="st11" d="M78.42,17.7c0,1.34,0.03,2.5-0.01,3.66c-0.03,0.62-0.57,0.75-1.07,0.79c-0.64,0.05-1.14-0.22-1.31-0.87
			c-0.2-0.78-0.02-1.52,0.49-2.15C76.98,18.56,77.61,18.19,78.42,17.7z"/>
		<path class="st11" d="M90.34,18.76c-0.12-1.26-0.08-2.41,0.34-3.52c0.2-0.53,0.56-0.99,1.22-0.86c0.68,0.13,0.77,0.69,0.74,1.27
			C92.55,17.15,91.63,18.03,90.34,18.76z"/>
	</g>
</g>
<g id="KHWI9X.tif" class="st0">
	<g class="st1">
		<g>
			<path class="st14" d="M99.26,3.59c0.03,0.25,0.29,0.21,0.43,0.33c0.44,0.38,0.58,0.85,0.36,1.38c-0.22,0.51-0.64,0.82-1.21,0.78
				c-0.56-0.04-0.99-0.34-1.14-0.88c-0.15-0.57,0.01-1.08,0.57-1.39c0.13-0.07,0.27-0.14,0.4-0.21C98.87,3.59,99.06,3.59,99.26,3.59
				z"/>
			<path class="st14" d="M52.18,3.59c0.55,0.28,1.08,0.57,1.03,1.31c-0.04,0.63-0.43,1-1,1.15c-0.61,0.16-1.09-0.14-1.37-0.66
				c-0.26-0.49-0.17-0.98,0.24-1.41c0.15-0.16,0.45-0.13,0.5-0.39C51.79,3.59,51.99,3.59,52.18,3.59z"/>
			<path class="st14" d="M33.41,29.12c-4.44-0.56-8.82-1.08-13.19-1.66c-3.42-0.45-6.68-1.38-9.61-3.26
				c-0.3-0.2-0.57-0.38-0.73-0.74C6.91,17,3.93,10.54,0.96,4.08C0.93,4.03,0.94,3.96,0.92,3.77c2.69,0.09,5.37-0.15,8.04,0.19
				c0.82,0.1,1.52,0.55,2.09,1.16c7.32,7.76,14.65,15.52,21.97,23.28C33.22,28.6,33.5,28.77,33.41,29.12z M8.67,7.32
				c-0.18,0.61-0.06,1,0.14,1.38c0.47,0.9,1.07,1.76,1.9,2.3c1.51,0.98,1.4,2.45,1.53,3.89c-0.62,0.33-1.27-0.06-1.88,0.25
				c0.15,0.84,0.42,1.72,1.03,2.23c0.51,0.43,1-0.54,1.6-0.56c0.45,0.5,0.85,1.02,1.33,1.45c0.55,0.48,0.79,1.01,0.78,1.76
				c-0.02,1.02,0.08,2.06,0.64,3.11c0.8-1.17,1.1-2.41,1.37-3.67c0.23-1.05,0.16-1.98-0.79-2.69c-0.32-0.25-0.69-0.59-0.48-1.06
				c0.17-0.39,0.61-0.27,0.96-0.3c0.18-0.02,0.4,0.05,0.48-0.21c-0.62-0.97-0.8-1.05-2.46-1c-0.31-0.56-0.16-1.19-0.21-1.79
				c-0.05-0.51,0.02-1.07-0.42-1.45C12.53,9.55,10.69,8.42,8.67,7.32z"/>
			<path class="st14" d="M54.89,20.73c0.61-0.18,1.17-0.34,1.89-0.55c0,1.4-0.02,2.71,0.01,4.02c0.02,1.37,0.3,1.58,1.8,1.41
				c0-2.44,0-4.88,0-7.41c0.65-0.18,1.26-0.35,1.97-0.55c0,0.99,0,1.85,0,2.73c4.48-1.22,5.84,2.34,4.78,5.17
				c1.76,0.41,2.18,0.1,2.19-1.63c0.01-1.42,0-2.85,0-4.27c0-1.66,0-1.66,1.89-1.89c0,1.71,0,3.41,0,5.11c0,0.26,0,0.52,0,0.78
				c0,2,0.17,2.15,2.28,1.99c0-2.43,0-4.88,0-7.37c0.65-0.25,1.24-0.49,1.94-0.53c0,3.16,0,6.29,0,9.59
				c-1.68-0.27-3.48,0.59-5.14-0.75c-0.42,0.63-1.12,0.75-1.89,0.74c-2.93-0.02-5.86-0.01-8.79,0c-0.75,0-1.43-0.07-1.86-0.84
				c-1.25,1.43-2.88,0.55-4.29,0.91c-0.66,2.28-2.19,2.98-4.4,1.94c0.11-0.35,0.23-0.7,0.32-0.97c0.22-0.19,0.38-0.13,0.54-0.11
				c1.31,0.13,1.53-0.07,1.53-1.41c0-2,0-4.01,0-6.08c0.64-0.18,1.25-0.35,1.93-0.54c0,1.85,0,3.59,0,5.38
				c0.84,0.18,1.65,0.13,2.44,0.06c0.78-0.07,0.83-0.73,0.85-1.31C54.91,23.14,54.89,21.95,54.89,20.73z M60.54,25.67
				c0.65,0.22,1.23,0.23,1.8,0.07c1.12-0.32,1.64-1.56,1.22-2.87c-0.35-1.09-1.37-1.6-2.48-1.23c-0.34,0.11-0.56,0.27-0.55,0.67
				C60.56,23.44,60.54,24.57,60.54,25.67z"/>
			<path class="st14" d="M82.56,25.55c0.19,0.07,0.25,0.12,0.31,0.12c2.93,0.2,2.95,0.18,2.95-2.72c0-0.23,0-0.45,0-0.68
				c0-1.68,0-1.68,1.92-2.01c0,1.32-0.01,2.63,0,3.93c0.01,1.3,0.2,1.5,1.54,1.49c0.54,0,1.1,0.09,1.72-0.11c0-1.12,0-2.24,0-3.36
				c0-1.7,0.03-1.73,1.86-1.9c0,2.28,0,4.57,0,7.01c-2-0.29-4.09,0.53-6.08-0.67c-1.1,0.88-5.85,1-6.22,0.07
				c-1.51,0.82-2.83,0.8-3.88-0.07c-1.06-0.86-1.44-2.53-0.95-4.1c0.43-1.38,1.65-2.32,3.19-2.44c0.26-0.02,0.52-0.01,0.78-0.01
				c2.56,0.03,2.87,0.34,2.87,2.82C82.56,23.8,82.56,24.66,82.56,25.55z M80.64,21.72c-2.39-0.39-3.58,0.75-3.07,2.81
				c0.19,0.76,0.66,1.24,1.51,1.26c0.86,0.02,1.32-0.42,1.48-1.23C80.76,23.63,80.65,22.7,80.64,21.72z"/>
			<path class="st14" d="M96.25,27.33c-0.51,2.26-2.19,3-4.39,1.99c0.12-0.35,0.25-0.7,0.37-1.02c0.09-0.05,0.15-0.11,0.2-0.1
				c1.7,0.18,1.87,0.04,1.87-1.65c0-1.55,0.07-3.11-0.03-4.66c-0.06-0.93,0.22-1.39,1.15-1.46c0.22-0.02,0.43-0.11,0.78-0.2
				c0,1.92,0,3.77,0,5.65c0.6,0,1.08,0,1.63,0c-0.59-1.99-0.53-3.87,1.36-5.15c1.3-0.89,2.74-0.83,4.22-0.06
				c-0.25,0.47-0.46,0.89-0.69,1.32c-0.09,0.02-0.19,0.07-0.27,0.04c-1.99-0.59-3.23,0.43-2.96,2.44c0.14,1.06,0.58,1.45,1.65,1.45
				c0.75,0,1.5,0.01,2.24-0.01c0.83-0.01,1.22-0.4,1.2-1.27c-0.04-2.13-0.01-4.26-0.01-6.39c0.63-0.24,1.2-0.48,1.89-0.51
				c0,2.53,0.08,5.05-0.03,7.55c-0.06,1.32-1.03,2.01-2.53,2.03c-2.18,0.04-4.36,0.01-6.54,0.01
				C97.01,27.33,96.66,27.33,96.25,27.33z"/>
			<path class="st14" d="M71.17,14.88c-0.66,0-1.28-0.02-1.89,0.01c-0.57,0.02-0.56-0.45-0.69-0.77c-0.66-1.66-0.65-1.67-2.42-1.67
				c-0.33,0-0.66,0.04-0.97-0.01c-1.63-0.23-2.94,0.02-3.18,1.99c-0.04,0.35-0.27,0.46-0.62,0.45c-0.55-0.02-1.1,0-1.61,0
				c-0.3-0.16-0.18-0.36-0.11-0.52c1.24-3.36,2.53-6.69,4-9.96c0.21-0.46,0.45-0.6,0.94-0.61c2.17-0.03,2.2-0.06,3.01,1.9
				c1.17,2.86,2.29,5.75,3.43,8.63C71.11,14.48,71.12,14.64,71.17,14.88z M67.15,10.29c-0.6-1.57-1.15-3.01-1.79-4.67
				c-0.64,1.68-1.19,3.13-1.78,4.67C64.81,10.29,65.89,10.29,67.15,10.29z"/>
			<path class="st14" d="M49.66,14.85c-0.25,0.02-0.37,0.03-0.5,0.03c-1.82,0.03-1.84,0.04-2.47-1.7c-0.19-0.53-0.43-0.77-1.04-0.75
				c-1.23,0.05-2.47,0.04-3.71,0.01c-0.53-0.01-0.79,0.13-0.99,0.66c-0.7,1.9-0.73,1.89-3.02,1.73c0.61-1.61,1.18-3.2,1.81-4.77
				C40.47,8.23,41.3,6.45,42,4.61c0.26-0.68,0.66-0.75,1.3-0.83c1.44-0.18,2.17,0.33,2.71,1.71C47.21,8.58,48.5,11.63,49.66,14.85z
				 M42,10.3c1.24,0,2.35,0,3.59,0c-0.59-1.53-1.15-2.99-1.8-4.68C43.14,7.31,42.6,8.74,42,10.3z"/>
			<path class="st14" d="M87.92,14.87c0-3.52,0-6.91,0-10.41c0.69-0.19,1.39-0.39,2.17-0.61c0,1.21,0,2.33,0,3.59
				c0.96-0.68,1.89-1.04,2.97-0.85c1.87,0.34,3.03,1.73,3.12,3.77c0.09,2.28-1.04,3.96-3.07,4.47C91.41,15.26,89.7,15.1,87.92,14.87
				z M90.16,13.17c3.28,0.76,4.03-1.27,3.6-3.31c-0.21-1.02-0.9-1.5-1.88-1.47c-0.97,0.03-1.62,0.57-1.71,1.64
				C90.09,11.07,90.16,12.13,90.16,13.17z"/>
			<path class="st14" d="M85.98,14.85c-2.08,0.1-2.08,0.1-2.37-0.55c-1.38,1.01-2.85,1.11-4.27,0.2c-1.51-0.97-1.85-2.5-1.63-4.18
				c0.24-1.85,1.26-3.1,3.08-3.59c1.55-0.42,3.09-0.19,4.59,0.35c0.34,0.12,0.62,0.26,0.61,0.74
				C85.96,10.14,85.98,12.46,85.98,14.85z M83.77,10.14c-0.01,0-0.03,0-0.04,0c0-0.23-0.03-0.46,0.01-0.68
				c0.16-0.95-0.24-1.23-1.18-1.2c-2.11,0.07-3.21,1.88-2.33,3.91c0.36,0.83,1.01,1.16,1.87,1.09c0.85-0.06,1.37-0.58,1.52-1.39
				C83.73,11.31,83.73,10.72,83.77,10.14z"/>
			<path class="st14" d="M109.8,14.8c-1.81,0.22-2.05,0.17-2.33-0.49c-1.52,1.06-3.07,1.11-4.56,0c-1.32-0.99-1.75-2.96-1.15-4.87
				c0.52-1.66,1.97-2.75,3.87-2.88c0.39-0.03,0.78-0.02,1.17,0c2.79,0.19,3,0.42,3,3.15C109.8,11.4,109.8,13.11,109.8,14.8z
				 M107.61,10.12c-0.01,0-0.02,0-0.03,0c0-0.39-0.02-0.78,0.01-1.16c0.04-0.46-0.18-0.65-0.61-0.67c-0.99-0.04-2-0.05-2.64,0.87
				c-0.69,0.98-0.66,2.06-0.18,3.13c0.35,0.78,1.02,1.06,1.83,0.99c0.85-0.07,1.36-0.59,1.5-1.41
				C107.57,11.29,107.56,10.7,107.61,10.12z"/>
			<path class="st14" d="M44.99,20.22c0,1.25,0.02,2.38,0,3.51c-0.05,2.28-1.31,3.64-3.38,3.68c-2.09,0.04-3.51-1.33-3.66-3.57
				c-0.03-0.51-0.01-1.03-0.01-1.56c0.59-0.31,1.22-0.42,1.93-0.6c0,0.83-0.02,1.6,0.01,2.37c0.04,1.17,0.52,1.69,1.52,1.72
				c1.11,0.03,1.6-0.44,1.68-1.65c0.04-0.74,0.1-1.49,0.02-2.22c-0.11-0.91,0.18-1.4,1.12-1.48C44.42,20.4,44.63,20.31,44.99,20.22z
				"/>
			<path class="st14" d="M60.55,6.89c-0.23,0.55-0.43,1.04-0.63,1.5c-0.12,0.03-0.18,0.06-0.24,0.05c-2.23-0.17-2.26-0.15-2.26,2.08
				c0,1.41,0,2.83,0,4.3c-0.77,0-1.47,0-2.29,0c0-1.35,0-2.72,0-4.09c0-0.55,0-1.1,0-1.65c0-1.89,0.05-1.96,1.96-2.38
				C58.24,6.45,59.38,6.37,60.55,6.89z"/>
			<path class="st14" d="M74.49,14.85c-0.77,0-1.44,0-2.21,0c0-2.37,0-4.72,0-7.06c0-0.26,0.14-0.39,0.35-0.53
				c1.25-0.81,3.57-0.99,4.96-0.35c-0.19,0.96-0.44,1.68-1.76,1.51c-1.17-0.15-1.33,0.16-1.33,1.38
				C74.49,11.45,74.49,13.1,74.49,14.85z"/>
			<path class="st14" d="M53.09,6.55c0,2.82,0,5.52,0,8.28c-0.74,0-1.43,0-2.24,0c0-2.43,0-4.85,0-7.26c0-0.34,0.18-0.44,0.46-0.51
				C51.86,6.91,52.42,6.74,53.09,6.55z"/>
			<path class="st14" d="M100,14.84c-0.76,0-1.46,0-2.26,0c0-2.45,0-4.86,0-7.26c0-0.33,0.19-0.44,0.46-0.51
				c0.59-0.16,1.17-0.33,1.81-0.51C100,9.33,100,12.03,100,14.84z"/>
			<path class="st14" d="M46.41,27.24c0-3,0-5.96,0-9.01c0.53-0.25,1.13-0.46,1.84-0.51c0,3.18,0,6.32,0,9.53
				C47.65,27.24,47.06,27.24,46.41,27.24z"/>
			<path class="st14" d="M107.93,18.23c0.58-0.24,1.15-0.46,1.83-0.5c0,3.18,0,6.33,0,9.54c-0.6,0-1.19,0-1.83,0
				C107.93,24.23,107.93,21.24,107.93,18.23z"/>
			<path class="st14" d="M89.8,29.98c-0.73,0.01-1.14-0.34-1.17-0.96c-0.03-0.67,0.42-1.1,1.08-1.1c0.62-0.01,1.05,0.42,1.06,1.03
				C90.77,29.55,90.39,29.94,89.8,29.98z"/>
			<path class="st14" d="M55.88,29.98c-0.65-0.03-1.04-0.41-1.05-1.02c-0.01-0.62,0.42-1.03,1.04-1.04
				c0.67-0.01,1.13,0.41,1.11,1.08C56.97,29.61,56.54,29.96,55.88,29.98z"/>
			<path class="st14" d="M41.37,17.55c0.7,0,1.14,0.37,1.18,0.96c0.04,0.65-0.39,1.1-1.08,1.11c-0.64,0.01-1.06-0.39-1.07-1.01
				C40.38,17.99,40.79,17.63,41.37,17.55z"/>
			<path class="st14" d="M77.78,19.5c-0.6-0.15-1.04-0.45-1.02-1.1c0.02-0.64,0.42-1.02,1.06-1.01c0.68,0.01,1.11,0.45,1.07,1.1
				C78.85,19.1,78.37,19.4,77.78,19.5z"/>
			<path class="st14" d="M53.2,29.99c-0.75-0.03-1.16-0.38-1.18-1c-0.02-0.68,0.45-1.08,1.1-1.07c0.6,0.01,1.04,0.38,1.03,1.04
				C54.15,29.62,53.72,29.91,53.2,29.99z"/>
			<path class="st14" d="M83.89,29.97c-0.56-0.11-0.94-0.46-0.87-1.11c0.06-0.63,0.5-0.99,1.12-0.95c0.61,0.04,1.05,0.46,1.01,1.07
				C85.1,29.64,84.65,30.01,83.89,29.97z"/>
			<path class="st14" d="M87.94,29.04c-0.08,0.57-0.42,0.94-1.07,0.93c-0.7-0.01-1.09-0.4-1.05-1.09c0.04-0.65,0.5-0.99,1.1-0.96
				C87.52,27.96,87.94,28.31,87.94,29.04z"/>
			<path class="st14" d="M81.69,18.39c-0.04,0.69-0.46,1.06-1.05,1.07c-0.65,0.01-1.11-0.41-1.08-1.1c0.03-0.64,0.46-1,1.09-0.98
				C81.28,17.4,81.64,17.77,81.69,18.39z"/>
		</g>
	</g>
</g>
<g id="p9U19C.tif" class="st0">
	<g class="st1">
		<g>
			<path class="st15" d="M57.9,31.62c-0.03-0.07-0.1-0.07-0.16-0.09c-0.19-0.09-0.37-0.2-0.49-0.38c0.04-0.11,0.11-0.13,0.21-0.1
				c0.14,0.03,0.28,0.05,0.43,0.03c0.34-0.05,0.6-0.28,0.66-0.62c0.01-0.08,0.02-0.16,0.02-0.24c0.01-0.75,0.03-1.5,0.04-2.25
				c0-0.02,0-0.04-0.01-0.06c-0.01-0.01-0.02-0.03-0.03-0.03c-0.08-0.02-0.18-0.03-0.2-0.13c-0.02-0.1,0.07-0.16,0.13-0.21
				c0.3-0.23,0.6-0.45,0.94-0.7c0.01,0.9,0.01,1.76,0.02,2.63c0.37,0,0.71,0,1.06,0c0.05-0.05,0.03-0.11,0.03-0.16
				c0-0.91,0-1.82,0-2.73c0-0.1-0.02-0.17-0.09-0.25c-0.1-0.1-0.09-0.2,0-0.31c0.03-0.04,0.07-0.07,0.11-0.1
				c0.27-0.2,0.54-0.39,0.81-0.59c0.02-0.01,0.04-0.02,0.08,0c0,0.76,0,1.54,0,2.35c0.4-0.29,0.84-0.28,1.27-0.28c1,0,2,0,2.99,0
				c0.2,0,0.4,0.03,0.6,0.09c0.61,0.21,0.97,0.71,0.99,1.36c0.01,0.2,0,0.4,0,0.62c0.95,0,1.9,0,2.85,0
				c0.03-0.18,0.01-0.36,0.01-0.56c-0.4,0-0.8,0-1.2,0c0-0.3-0.01-0.57,0-0.85c0.01-0.14,0.09-0.26,0.18-0.36
				c0.13-0.16,0.29-0.28,0.46-0.39c0.44-0.28,0.92-0.47,1.43-0.68c0,0.96,0,1.89,0,2.84c0.4,0,0.78,0,1.17,0c0-1.03,0-2.06,0-3.1
				c-0.01-0.03-0.05-0.03-0.09-0.04c-0.1-0.04-0.11-0.11-0.07-0.19c0.02-0.04,0.05-0.07,0.08-0.1c0.3-0.23,0.61-0.43,0.94-0.65
				c0,1.65,0,3.27,0,4.91c-4.55,0-9.1,0-13.65,0c-0.01,0.1-0.01,0.18-0.03,0.25c-0.09,0.52-0.41,0.84-0.9,1.01
				c-0.07,0.02-0.16,0.02-0.21,0.09C58.16,31.62,58.03,31.62,57.9,31.62z M61.46,29.45c1.66,0,3.3,0,4.95,0
				c0.01-0.22,0.02-0.43,0.02-0.63c0-0.04,0-0.09,0-0.13c-0.01-0.26-0.13-0.4-0.39-0.44c-0.12-0.02-0.24-0.02-0.37-0.02
				c-1.16,0-2.31,0-3.47,0c-0.12,0-0.23,0-0.35,0.02c-0.22,0.03-0.4,0.21-0.41,0.41C61.46,28.91,61.46,29.17,61.46,29.45z
				 M70.17,27.79c-0.34,0.09-0.52,0.24-0.53,0.46c0.18-0.01,0.36,0.02,0.53-0.02C70.17,28.07,70.17,27.93,70.17,27.79z"/>
			<path class="st16" d="M2.07,15.84c-0.02,0-0.05,0-0.07-0.01c0-0.42,0-0.84,0-1.26c0.02,0,0.05,0,0.07,0
				C2.07,15,2.07,15.42,2.07,15.84z"/>
			<path class="st15" d="M85.21,16.77c0.04-0.01,0.07-0.04,0.1-0.08c0.27-0.31,0.55-0.62,0.82-0.94c0.41-0.43,0.83-0.85,1.24-1.28
				c0.02-0.03,0.05-0.05,0.05-0.09c0.05-0.01,0.09-0.05,0.12-0.08c0.36-0.34,0.71-0.68,1.07-1.02c0.03-0.02,0.06-0.05,0.06-0.08
				c0.05-0.04,0.11-0.07,0.16-0.11c0.41-0.36,0.82-0.72,1.22-1.08c0.55-0.45,1.1-0.9,1.66-1.33c0.23-0.18,0.47-0.35,0.7-0.53
				c0.18-0.14,0.39-0.25,0.54-0.42c0.22-0.12,0.42-0.28,0.62-0.43c0.63-0.45,1.26-0.89,1.9-1.32c0.11-0.07,0.23-0.14,0.33-0.22
				c0.11-0.08,0.24-0.13,0.32-0.24c0.21-0.1,0.4-0.25,0.6-0.38c2.33-1.52,4.73-2.93,7.23-4.15c1.34-0.66,2.71-1.25,4.12-1.75
				c0.15-0.05,0.3-0.1,0.46-0.11c0.12-0.01,0.2,0.04,0.25,0.19c0.04,0.12,0.01,0.21-0.1,0.28c-0.08,0.05-0.16,0.1-0.25,0.13
				c-2.92,1.29-5.66,2.91-8.37,4.59c-0.34,0.21-0.68,0.41-1.01,0.64c-0.75,0.52-1.58,0.9-2.37,1.34c-1.49,0.83-2.92,1.75-4.33,2.72
				c-0.02,0.02-0.05,0.03-0.07,0.05c-0.05,0.05-0.09,0.12-0.04,0.19c0.06,0.07,0.13,0.05,0.19,0.01c0.34-0.21,0.67-0.43,1-0.64
				c2.48-1.54,5.11-2.81,7.82-3.9c2.17-0.87,4.38-1.62,6.62-2.3c0.56-0.17,1.12-0.33,1.68-0.49c0.1-0.03,0.2-0.05,0.3-0.06
				c0.13-0.01,0.21,0.05,0.25,0.16c0.05,0.14,0.02,0.25-0.1,0.32c-0.12,0.06-0.25,0.11-0.38,0.16c-2.24,0.84-4.47,1.72-6.67,2.68
				c-1.84,0.8-3.65,1.66-5.42,2.61c-0.26,0.12-0.51,0.27-0.76,0.42c-0.12,0.07-0.25,0.11-0.34,0.22c-0.04,0.02-0.08,0.03-0.12,0.05
				c-0.6,0.35-1.19,0.71-1.76,1.1c-0.15,0.1-0.28,0.22-0.31,0.42c0.05,0.1,0.14,0.1,0.23,0.1c0.87,0.03,1.73,0.05,2.6,0.08
				c0.71,0.03,1.41,0.06,2.12,0.1c0.06,0.07,0.01,0.13-0.03,0.19c-0.1,0.16-0.24,0.28-0.38,0.4c-0.63,0.46-1.35,0.63-2.11,0.64
				c-0.22,0-0.45,0-0.67,0c-0.1,0-0.19,0.01-0.24,0.11c-0.04,0.09,0,0.17,0.05,0.24c0.18,0.26,0.4,0.49,0.64,0.7
				c0.38,0.34,0.79,0.63,1.24,0.86c0.8,0.46,1.66,0.76,2.55,1c0.8,0.21,1.61,0.35,2.43,0.43c0.03,0,0.05,0.01,0.09,0.02
				c0.02,0.38,0.01,0.75,0,1.14c-0.33,0.02-0.65,0.04-0.96,0.05c-1.19,0.04-2.38,0.11-3.57,0.19c-0.81,0.06-1.62,0.11-2.41,0.25
				c-0.13,0.02-0.27,0.04-0.39,0.14c0.06,0.1,0.16,0.1,0.24,0.12c0.4,0.09,0.8,0.13,1.2,0.17c1.77,0.16,3.55,0.25,5.33,0.32
				c0.14,0.01,0.29,0.02,0.44,0.03c-0.06,0.43-0.14,0.84-0.25,1.25c-0.31,0.02-0.62,0.03-0.93,0.05c-1.34,0.06-2.67,0.13-4.01,0.23
				c-0.6,0.05-1.2,0.09-1.79,0.21c-0.12,0.02-0.26,0.03-0.36,0.14c0.08,0.09,0.18,0.1,0.28,0.12c0.41,0.09,0.83,0.13,1.24,0.17
				c1.23,0.12,2.47,0.18,3.7,0.25c0.48,0.03,0.97,0.04,1.48,0.07c-0.14,0.45-0.33,0.87-0.53,1.28c-0.09,0.04-0.19,0.04-0.28,0.04
				c-0.86,0.05-1.72,0.09-2.58,0.15c-0.79,0.06-1.57,0.11-2.35,0.25c-0.11,0.02-0.23,0.04-0.33,0.12c0.06,0.11,0.17,0.11,0.26,0.13
				c0.31,0.07,0.63,0.11,0.94,0.14c1.21,0.12,2.42,0.19,3.63,0.26c0.02,0,0.04,0.01,0.06,0.01c0.01,0.07-0.04,0.11-0.07,0.15
				c-0.25,0.4-0.54,0.79-0.83,1.16c-0.09,0.11-0.18,0.17-0.32,0.18c-0.51,0.03-1.02,0.08-1.53,0.14c-0.29,0.03-0.59,0.07-0.88,0.14
				c-0.1,0.02-0.21,0.03-0.29,0.14c0.05,0.09,0.14,0.1,0.21,0.12c0.34,0.09,0.68,0.13,1.03,0.17c0.29,0.03,0.57,0.06,0.89,0.1
				c-0.77,0.77-1.61,1.39-2.53,1.93c-0.37-0.29-0.68-0.63-1.02-0.94c-0.15-0.17-0.29-0.34-0.48-0.48c-0.09-0.15-0.21-0.27-0.33-0.4
				c-0.34-0.38-0.65-0.79-0.95-1.2c-0.05-0.06-0.08-0.14-0.15-0.18c-0.17-0.3-0.38-0.59-0.6-0.86c-0.32-0.5-0.66-0.98-1-1.46
				c-0.23-0.38-0.48-0.74-0.75-1.1c-0.09-0.16-0.21-0.29-0.34-0.42c-0.23-0.23-0.49-0.29-0.79-0.19c-0.08,0.02-0.15,0.05-0.23,0.07
				c-0.47,0.15-0.95,0.26-1.44,0.29c-0.1,0.01-0.21,0.02-0.31-0.06c0.05-0.13,0.18-0.15,0.28-0.19c0.75-0.33,1.42-0.78,1.98-1.37
				c0.59-0.62,0.99-1.34,1.12-2.2c0.14-0.94,0.05-1.87-0.18-2.79c-0.01-0.06,0-0.13-0.08-0.16c-0.17,0.62-0.42,1.21-0.93,1.68
				c0.01-0.1,0-0.15,0.01-0.19c0.06-0.33,0.06-0.66,0.03-0.99c-0.04-0.61-0.22-1.18-0.56-1.68c-0.03-0.04-0.04-0.11-0.12-0.11
				c-0.11,0.49-0.21,0.97-0.32,1.44c-0.69,0.3-1.16,0.77-1.37,1.5c0.33,0.11,0.58-0.06,0.85-0.2c-0.01,0.06-0.01,0.09-0.02,0.11
				c-0.3,1.09-0.67,2.16-1.14,3.2c-0.34,0.75-0.71,1.49-1.19,2.15c-0.01,0.01-0.03,0.03-0.04,0.04c-0.27,0.37-0.58,0.7-0.97,0.95
				c-0.27,0.17-0.55,0.3-0.86,0.39c-0.07,0-0.14,0-0.21,0c-0.09-0.05-0.18-0.07-0.26-0.15c-0.42-0.39-0.83-0.78-1.18-1.23
				c0.36-0.08,0.62-0.3,0.84-0.57c0.11-0.13,0.2-0.28,0.14-0.47c-0.1-0.01-0.14,0.06-0.19,0.1c-0.2,0.16-0.41,0.32-0.64,0.44
				c-0.27,0.14-0.49,0.11-0.7-0.08c-0.14-0.13-0.15-0.18-0.08-0.38c0.31-0.46,0.57-0.94,0.9-1.39c0.02-0.03,0.05-0.07,0.05-0.12
				c0.13-0.11,0.2-0.26,0.3-0.39c0.14-0.18,0.27-0.36,0.4-0.54c0.27-0.35,0.54-0.69,0.82-1.03C84.98,17.08,85.14,16.95,85.21,16.77z
				"/>
			<path class="st15" d="M2.07,15.84c0-0.42,0-0.84,0-1.27c0.05-0.82,0.18-1.63,0.44-2.42c0.69-2.08,2.07-3.52,4.08-4.37
				C7.48,7.41,8.42,7.2,9.38,7.12c0.87-0.08,1.73-0.07,2.6,0.05c1.6,0.23,3.08,0.76,4.34,1.82c1.13,0.95,1.86,2.15,2.19,3.58
				c0.46,1.98,0.34,3.94-0.47,5.81c-0.82,1.89-2.23,3.18-4.15,3.93c-0.05,0.02-0.09,0.04-0.18,0.07c0.85,0.54,1.68,1.04,2.51,1.56
				c0.83,0.52,1.67,1.03,2.54,1.57c-0.86,0.41-1.69,0.85-2.46,1.38c-0.09-0.01-0.14-0.08-0.2-0.13c-1.58-1.24-3.17-2.47-4.75-3.71
				c-0.13-0.1-0.26-0.15-0.43-0.14c-1.04,0.03-2.08-0.01-3.1-0.25c-1.93-0.45-3.45-1.51-4.54-3.16C2.54,18.38,2.17,17.16,2.07,15.84
				z M15.69,14.7c0-0.43-0.01-0.85-0.06-1.28c-0.1-0.89-0.33-1.74-0.74-2.54c-0.52-1.02-1.28-1.8-2.34-2.26
				c-0.88-0.38-1.79-0.49-2.74-0.38c-1.19,0.14-2.19,0.65-3,1.53c-0.68,0.74-1.09,1.63-1.34,2.59c-0.28,1.03-0.37,2.09-0.35,3.15
				c0.02,1,0.2,1.97,0.57,2.9c0.33,0.84,0.8,1.6,1.5,2.2c1.13,0.98,2.47,1.29,3.93,1.1c1.36-0.18,2.44-0.86,3.26-1.95
				c0.57-0.76,0.89-1.63,1.09-2.55C15.63,16.39,15.68,15.54,15.69,14.7z"/>
			<path class="st15" d="M62.54,7.25c0.29,0.02,0.56,0.04,0.82,0.06c0.9,0.07,1.79,0.04,2.69,0.01c0.97-0.03,1.94-0.09,2.91-0.07
				c0.61,0.02,1.21,0.09,1.79,0.3c1.37,0.51,2.25,1.78,2.27,3.23c0.01,0.82-0.18,1.59-0.64,2.28c-0.39,0.58-0.92,1.01-1.54,1.34
				c-0.48,0.25-0.98,0.43-1.5,0.54c-0.06,0.01-0.12,0.03-0.2,0.05c1.78,2.58,3.56,5.14,5.57,7.6c-0.67-0.06-1.29-0.13-1.91-0.13
				c-0.63,0-1.26,0.03-1.87,0.13c-0.09-0.06-0.13-0.15-0.17-0.23c-1.42-2.35-3.01-4.59-4.59-6.84c-0.12-0.18-0.25-0.26-0.46-0.23
				c-0.07,0.01-0.14,0-0.24,0c-0.03,2.43,0.01,4.85,0.09,7.3c-1.03-0.18-2.03-0.19-3.05,0C62.71,17.48,62.79,12.38,62.54,7.25z
				 M65.46,8.46c0,1.93,0,3.85,0,5.79c0.72,0.03,1.44,0.14,2.15,0.02c1.21-0.2,1.99-0.9,2.32-2.08c0.17-0.62,0.16-1.24,0.05-1.87
				c-0.12-0.69-0.48-1.21-1.09-1.57c-0.36-0.21-0.76-0.32-1.17-0.37c-0.57-0.08-1.14-0.03-1.71,0.02
				C65.83,8.42,65.64,8.41,65.46,8.46z"/>
			<path class="st15" d="M60.08,22.59c-0.58-0.05-1.14-0.13-1.7-0.13c-0.56,0-1.11,0.08-1.69,0.14c-0.61-1.62-1.23-3.24-1.89-4.85
				c-1.84-0.12-3.69-0.13-5.56,0c-0.65,1.59-1.29,3.18-1.79,4.84c-0.35-0.03-0.68-0.11-1.03-0.12c-0.34-0.01-0.67,0.08-1.02,0.12
				c-0.01-0.1,0.05-0.17,0.08-0.24c1.09-2.42,2.18-4.84,3.26-7.27c0.88-1.97,1.77-3.94,2.57-5.94c0.27-0.68,0.53-1.37,0.75-2.11
				c0.48,0.14,0.97,0.14,1.45,0C55.43,12.34,57.78,17.44,60.08,22.59z M52.07,10.88c-0.16,0.26-2.25,5.32-2.26,5.46
				c1.44,0.09,2.88,0.15,4.34-0.01C53.45,14.52,52.76,12.71,52.07,10.88z"/>
			<path class="st15" d="M24.3,17.75c-0.66,1.59-1.3,3.18-1.8,4.85c-0.68-0.15-1.36-0.2-2.05,0.01c0-0.12,0.06-0.19,0.09-0.27
				c1.49-3.32,3-6.64,4.47-9.98c0.59-1.35,1.19-2.71,1.7-4.1c0.15-0.4,0.28-0.8,0.43-1.23c0.47,0.12,0.95,0.15,1.44-0.01
				c1.9,5.31,4.25,10.41,6.56,15.57c-0.58-0.04-1.13-0.12-1.69-0.13c-0.57,0-1.12,0.09-1.7,0.13c-0.61-1.62-1.23-3.24-1.88-4.85
				C28.01,17.63,26.16,17.62,24.3,17.75z M29.21,16.34c-0.7-1.83-1.39-3.64-2.1-5.49c-0.77,1.86-1.52,3.67-2.28,5.49
				C26.3,16.44,27.74,16.5,29.21,16.34z"/>
			<path class="st15" d="M46.2,7.25c-0.13,0.56-0.16,1.09,0,1.65c-1.5-0.14-2.97-0.15-4.43-0.16c-0.06,0.07-0.05,0.13-0.05,0.2
				c-0.01,0.82-0.04,1.63-0.04,2.45c0,2.66,0,5.32,0,7.98c0,1.03,0.02,2.07,0.15,3.09c0.01,0.04,0,0.08,0,0.13
				c-0.53-0.04-1.05-0.11-1.57-0.12c-0.52-0.01-1.04,0.08-1.55,0.12c-0.05-0.05-0.03-0.1-0.03-0.15c0.12-2,0.24-4.01,0.21-6.02
				c-0.02-1.92-0.01-3.84-0.02-5.76c0-0.63-0.03-1.26-0.04-1.91c-1.53-0.02-3.06,0.04-4.6,0.15c0.04-0.28,0.1-0.55,0.1-0.83
				c0-0.27-0.06-0.53-0.1-0.81C38.22,7.42,42.2,7.42,46.2,7.25z"/>
			<path class="st17" d="M93.03,24.34c0.22,0.27,0.42,0.56,0.6,0.86c-0.53,0.05-1.05,0.04-1.58,0.06c-1.43,0.04-2.86,0.06-4.29,0.1
				c-0.84,0.02-1.68,0.01-2.52,0.04c-1.3,0.04-2.6,0.03-3.9,0.04c-0.36,0-0.72-0.03-1.07-0.13c-0.16-0.05-0.32-0.1-0.45-0.2
				c-0.27-0.2-0.27-0.42,0-0.61c0.24-0.17,0.53-0.23,0.81-0.28c0.25-0.04,0.5-0.05,0.76-0.05c1.17,0.01,2.34,0,3.51,0.02
				c0.87,0.02,1.74,0.01,2.6,0.04c0.77,0.03,1.53,0.02,2.3,0.04c1.01,0.03,2.02,0.05,3.03,0.08C92.9,24.34,92.97,24.34,93.03,24.34z
				"/>
			<path class="st17" d="M90.06,12.01c-0.41,0.36-0.81,0.72-1.22,1.08c-0.05,0.04-0.1,0.07-0.16,0.11c-1.15,0.02-2.3,0.03-3.45,0.06
				c-1.37,0.04-2.73,0.02-4.1,0.04c-0.45,0.01-0.9,0.01-1.34-0.01c-0.36-0.02-0.7-0.08-1.03-0.22c-0.14-0.06-0.27-0.13-0.38-0.25
				c-0.14-0.16-0.15-0.3,0-0.46c0.1-0.12,0.24-0.19,0.38-0.25c0.3-0.13,0.62-0.19,0.95-0.22c0.51-0.04,1.01-0.03,1.52-0.03
				c1.28,0.01,2.56,0.02,3.84,0.05c0.88,0.02,1.76,0.01,2.65,0.04c0.72,0.02,1.43,0.02,2.15,0.04C89.91,11.99,89.99,12,90.06,12.01z
				"/>
			<path class="st17" d="M92.97,9.73c-0.15,0.17-0.36,0.28-0.54,0.42c-0.23,0.18-0.47,0.35-0.7,0.53c-0.04-0.06-0.1-0.04-0.16-0.04
				c-1.09,0.02-2.18,0.05-3.27,0.07c-0.16,0-0.32,0.01-0.48,0.01c-2.15,0.03-4.29,0.07-6.44,0.06c-0.39,0-0.78-0.02-1.16-0.14
				c-0.15-0.05-0.28-0.1-0.41-0.19c-0.26-0.19-0.26-0.4,0-0.59c0.11-0.08,0.22-0.13,0.35-0.17c0.34-0.12,0.69-0.17,1.04-0.17
				c1.19,0,2.37,0,3.56,0.03c0.66,0.02,1.33,0,2,0.02c0.78,0.02,1.56,0.02,2.34,0.04c1.19,0.03,2.38,0.06,3.58,0.09
				C92.77,9.7,92.87,9.69,92.97,9.73z"/>
			<path class="st18" d="M30.68,25.16c0.38,0.04,0.73,0.07,1.1-0.01c0.36,1.26,0.77,2.5,1.22,3.73c0.48-1.22,0.91-2.45,1.28-3.72
				c0.21,0.04,0.42,0.07,0.65-0.01c0.39,1.27,0.78,2.52,1.27,3.8c0.27-0.65,0.46-1.27,0.67-1.88c0.21-0.62,0.37-1.26,0.57-1.9
				c0.22,0.05,0.44,0.05,0.68-0.01c-0.68,1.7-1.29,3.39-1.84,5.11c-0.2-0.04-0.4-0.04-0.61,0.01c-0.4-1.27-0.83-2.51-1.29-3.75
				c-0.47,1.23-0.92,2.47-1.3,3.74c-0.19-0.01-0.38-0.05-0.58,0.02c-0.29-0.86-0.58-1.71-0.87-2.56
				C31.33,26.87,31.01,26.03,30.68,25.16z"/>
			<path class="st17" d="M87.42,14.38c0,0.04-0.03,0.07-0.05,0.09c-0.41,0.43-0.83,0.85-1.24,1.28c-0.06-0.05-0.14-0.03-0.21-0.03
				c-0.95,0.04-1.91,0.02-2.86,0.04c-1.15,0.03-2.3,0.02-3.45,0.03c-0.49,0-0.98-0.05-1.45-0.21c-0.16-0.06-0.31-0.13-0.44-0.23
				c-0.25-0.2-0.25-0.43-0.01-0.64c0.12-0.1,0.25-0.17,0.4-0.22c0.35-0.13,0.72-0.21,1.1-0.22c1.47-0.02,2.94-0.01,4.4,0.02
				c0.61,0.01,1.23,0.02,1.84,0.03c0.61,0.01,1.23,0.02,1.84,0.04C87.34,14.36,87.38,14.37,87.42,14.38z"/>
			<path class="st15" d="M56.53,28.43c-0.27-0.19-0.27-0.27,0-0.5c0.25-0.21,0.53-0.4,0.84-0.57c0,0.98,0,1.93,0,2.9
				c-2.05,0-4.1,0-6.17,0c0.01-0.11,0.01-0.22,0.02-0.33c0.03-0.34,0.07-0.67,0.08-1.01c0.01-0.15,0.07-0.28,0.16-0.4
				c0.15-0.21,0.35-0.39,0.56-0.54c0.25-0.18,0.5-0.34,0.77-0.48c0.15-0.07,0.22-0.17,0.22-0.33c0-0.03,0.01-0.07,0.02-0.1
				c-0.08-0.08-0.21-0.09-0.24-0.24c0.31-0.35,0.69-0.67,1.07-1.04c0,1.25,0,2.45,0,3.66c0.9,0,1.78,0,2.67,0
				C56.53,29.11,56.53,28.77,56.53,28.43z M52.09,29.45c0.32,0,0.61,0,0.92,0c0-0.38,0-0.75,0-1.14c-0.28,0.12-0.51,0.25-0.73,0.4
				c-0.11,0.08-0.16,0.2-0.19,0.33C52.07,29.17,52.07,29.3,52.09,29.45z"/>
			<path class="st17" d="M96.14,7.52c-0.08,0.11-0.21,0.16-0.32,0.24c-0.11,0.08-0.22,0.15-0.33,0.22c-0.09-0.06-0.2-0.03-0.29-0.02
				c-0.5,0.04-1.01,0.03-1.52,0.06c-0.74,0.04-1.49,0.04-2.23,0.06c-1.74,0.05-3.48,0.07-5.23,0.1c-1.02,0.02-2.04,0.02-3.06,0.03
				c-0.3,0-0.59-0.04-0.87-0.13c-0.13-0.04-0.26-0.1-0.35-0.21c-0.1-0.11-0.1-0.22,0-0.33c0.08-0.09,0.2-0.15,0.31-0.19
				c0.24-0.09,0.49-0.14,0.74-0.14c1.16-0.01,2.31-0.01,3.47,0.03c0.17,0.01,0.35,0,0.52,0.01c1.21,0.02,2.41,0.04,3.62,0.06
				c1.03,0.02,2.05,0.05,3.08,0.09c0.75,0.02,1.5,0.06,2.25,0.09C96,7.49,96.07,7.48,96.14,7.52z"/>
			<path class="st17" d="M95.06,26.98c0.19,0.13,0.33,0.31,0.48,0.48c-0.52,0.06-1.04,0.05-1.56,0.07c-0.65,0.04-1.3,0.04-1.95,0.06
				c-0.86,0.02-1.72,0.03-2.58,0.06c-0.77,0.03-1.55,0.02-2.32,0.04c-1.29,0.04-2.57,0.03-3.86,0.04c-0.3,0-0.59-0.01-0.88-0.09
				c-0.14-0.04-0.27-0.09-0.39-0.18c-0.18-0.14-0.19-0.31,0-0.45c0.21-0.16,0.46-0.2,0.71-0.24c0.27-0.04,0.55-0.04,0.82-0.04
				c1.51,0.02,3.02,0.03,4.53,0.06c0.69,0.01,1.39,0.02,2.08,0.04c1.09,0.03,2.18,0.05,3.27,0.09
				C93.96,26.93,94.51,26.92,95.06,26.98z"/>
			<path class="st18" d="M27.75,27.86c-0.02,0.8,0,1.6,0.03,2.41c-0.35-0.05-0.67-0.06-1.02,0.01c0.07-1.71,0.11-3.41,0.02-5.1
				c0.04-0.01,0.06-0.02,0.08-0.02c0.59,0.07,1.18-0.01,1.78,0c0.2,0,0.4-0.01,0.61,0.03c0.54,0.11,0.92,0.45,1,0.94
				c0.09,0.56-0.11,1.04-0.59,1.34c-0.2,0.13-0.43,0.2-0.68,0.27c0.58,0.87,1.18,1.7,1.84,2.52c-0.19-0.01-0.34-0.03-0.48-0.03
				c-0.21,0-0.42-0.02-0.63,0.02c-0.12,0.03-0.18-0.02-0.24-0.12c-0.45-0.74-0.95-1.45-1.45-2.16
				C27.92,27.85,27.92,27.85,27.75,27.86z M27.75,27.49c0.25,0.02,0.5,0.05,0.74,0c0.4-0.07,0.65-0.32,0.75-0.71
				c0.04-0.17,0.04-0.34,0.02-0.52c-0.04-0.36-0.28-0.62-0.63-0.7c-0.29-0.06-0.58-0.03-0.88,0.01
				C27.75,26.21,27.75,26.84,27.75,27.49z"/>
			<path class="st17" d="M85.21,16.77c-0.07,0.19-0.23,0.31-0.35,0.46c-0.28,0.34-0.55,0.69-0.82,1.03
				c-0.05-0.07-0.12-0.04-0.18-0.04c-1.31,0.01-2.62,0.01-3.92,0.03c-0.48,0.01-0.95,0-1.43-0.06c-0.27-0.04-0.52-0.11-0.77-0.22
				c-0.11-0.05-0.21-0.11-0.29-0.18c-0.21-0.19-0.21-0.42,0-0.61c0.12-0.11,0.26-0.18,0.41-0.23c0.35-0.13,0.72-0.21,1.1-0.22
				c0.77-0.01,1.53-0.01,2.3-0.01c0.69,0,1.39,0.01,2.08,0.01c0.57,0.01,1.14,0.02,1.71,0.03C85.11,16.75,85.16,16.76,85.21,16.77z"
				/>
			<path class="st18" d="M39.7,25.08c0.17,0.05,0.32,0.04,0.48,0c0.63,1.77,1.41,3.46,2.18,5.19c-0.39-0.05-0.75-0.07-1.12,0.01
				c-0.21-0.54-0.42-1.07-0.62-1.58c-0.05-0.05-0.11-0.05-0.16-0.05c-0.51-0.03-1.03-0.03-1.54-0.01c-0.14,0-0.2,0.06-0.25,0.19
				c-0.18,0.47-0.37,0.94-0.52,1.44c-0.22-0.04-0.43-0.06-0.65-0.01c-0.03-0.1,0.03-0.16,0.06-0.23c0.57-1.27,1.14-2.52,1.69-3.8
				C39.42,25.86,39.57,25.49,39.7,25.08z M39.69,26.36c-0.26,0.64-0.51,1.23-0.76,1.83c0.5,0.02,0.96,0.06,1.45-0.01
				C40.15,27.58,39.93,27,39.69,26.36z"/>
			<path class="st18" d="M21.21,25.09c0.15,0.03,0.3,0.04,0.47-0.01c0.63,1.76,1.41,3.46,2.19,5.2c-0.4-0.06-0.75-0.06-1.1,0
				c-0.08-0.05-0.08-0.12-0.1-0.18c-0.17-0.43-0.33-0.86-0.5-1.29c-0.03-0.09-0.07-0.15-0.18-0.15c-0.56-0.03-1.13-0.04-1.69,0.01
				c-0.01,0-0.03,0.01-0.05,0.02c-0.22,0.51-0.41,1.03-0.59,1.58c-0.22-0.02-0.43-0.06-0.66,0.01c-0.02-0.08,0.02-0.12,0.04-0.17
				c0.61-1.37,1.24-2.72,1.81-4.1C20.98,25.71,21.09,25.4,21.21,25.09z M21.21,26.42c-0.02,0-0.03,0-0.05,0
				c-0.24,0.58-0.48,1.16-0.73,1.76c0.5,0.02,0.97,0.06,1.45-0.01C21.66,27.59,21.43,27,21.21,26.42z"/>
			<path class="st17" d="M83.34,19.19c0,0.05-0.02,0.08-0.05,0.12c-0.33,0.45-0.59,0.93-0.9,1.39c-0.07-0.07-0.16-0.04-0.25-0.04
				c-0.98,0-1.97,0.02-2.95,0c-0.43-0.01-0.85-0.09-1.24-0.28c-0.12-0.06-0.23-0.12-0.32-0.22c-0.15-0.17-0.15-0.33,0-0.5
				c0.09-0.1,0.2-0.16,0.32-0.22c0.32-0.15,0.67-0.22,1.02-0.26c0.55-0.06,1.1-0.03,1.65-0.03c0.86,0,1.72,0.02,2.58,0.03
				C83.25,19.18,83.3,19.18,83.34,19.19z"/>
			<path class="st18" d="M49.5,25.41c-0.1,0.24-0.17,0.47-0.23,0.69c-0.09,0.02-0.11-0.03-0.13-0.08c-0.19-0.56-1.01-0.68-1.45-0.45
				c-0.43,0.23-0.55,0.99-0.07,1.3c0.18,0.12,0.37,0.2,0.56,0.27c0.2,0.08,0.4,0.16,0.6,0.24c0.6,0.23,0.92,0.68,0.94,1.3
				c0.02,0.63-0.26,1.13-0.82,1.44c-0.19,0.11-0.4,0.16-0.61,0.2c-0.59,0.11-1.32-0.03-1.85-0.36c0.1-0.26,0.13-0.55,0.17-0.82
				c0.09-0.02,0.11,0.03,0.14,0.07c0.06,0.11,0.12,0.22,0.19,0.32c0.32,0.45,0.96,0.6,1.45,0.33c0.55-0.3,0.62-1.1,0.14-1.49
				c-0.1-0.08-0.22-0.14-0.34-0.19c-0.23-0.09-0.46-0.18-0.68-0.28c-0.05-0.02-0.11-0.05-0.16-0.07c-0.68-0.34-0.88-0.75-0.81-1.47
				c0.06-0.62,0.49-1.08,1.13-1.22C48.29,25.02,48.9,25.1,49.5,25.41z"/>
			<path class="st17" d="M91.29,21.78c0.27,0.35,0.52,0.72,0.75,1.1c-0.05,0.03-0.11,0.02-0.17,0.02c-0.56,0.01-1.13,0.03-1.69,0.04
				c-1.28,0.02-2.56,0.04-3.83,0.07c-0.56,0.01-1.11,0.03-1.67,0.02c0.31-0.09,0.59-0.22,0.86-0.39c0.39-0.25,0.7-0.58,0.97-0.95
				c0.01-0.02,0.03-0.03,0.04-0.04c0.02,0.06,0.08,0.05,0.13,0.05c0.26,0.01,0.52,0.02,0.78,0.02c1.19,0.02,2.38,0.04,3.58,0.06
				C91.12,21.79,91.2,21.83,91.29,21.78z"/>
			<path class="st17" d="M83.03,21.65c0.35,0.45,0.76,0.85,1.18,1.23c0.08,0.07,0.17,0.1,0.26,0.15c-0.1,0-0.2,0.01-0.3,0.01
				c-1.32,0.03-2.63,0.04-3.95,0.04c-0.43,0-0.85-0.04-1.26-0.17c-0.18-0.06-0.35-0.13-0.5-0.25c-0.25-0.2-0.25-0.41-0.01-0.61
				c0.21-0.17,0.47-0.25,0.73-0.31c0.33-0.08,0.66-0.1,0.99-0.1C81.12,21.65,82.07,21.65,83.03,21.65z"/>
			<path class="st18" d="M41.64,25.16c0.39,0.05,0.78,0.07,1.18-0.01c0.4,0.85,0.82,1.68,1.31,2.51c0.51-0.81,0.9-1.64,1.29-2.5
				c0.24,0.01,0.46,0.07,0.71,0c0,0.12-0.07,0.18-0.12,0.26c-0.53,0.84-1.03,1.69-1.52,2.55c-0.09,0.16-0.13,0.33-0.13,0.51
				c0,0.51,0.04,1.03,0.04,1.54c0,0.08,0.03,0.16-0.03,0.24c-0.31-0.04-0.63-0.06-0.94,0c-0.06-0.07-0.04-0.15-0.04-0.22
				c0.01-0.53,0.02-1.07,0.04-1.6c0-0.14-0.03-0.25-0.1-0.37c-0.52-0.91-1.07-1.8-1.61-2.7C41.7,25.32,41.64,25.26,41.64,25.16z"/>
			<path class="st17" d="M94.74,29.18c-0.17,0.09-0.34,0.08-0.51,0.1c-0.95,0.08-1.9,0.11-2.86,0.15c-1.16,0.04-2.33,0.07-3.49,0.09
				c-0.57,0.01-1.14,0.02-1.71,0.02c-0.2,0-0.39-0.03-0.57-0.12c-0.1-0.05-0.19-0.11-0.19-0.24c0-0.13,0.09-0.19,0.19-0.24
				c0.18-0.09,0.37-0.12,0.57-0.12c1.13,0.01,2.25,0.03,3.38,0.06c0.16,0.01,0.32,0.01,0.48,0.01c0.98,0.03,1.97,0.06,2.95,0.1
				c0.51,0.02,1.02,0.05,1.53,0.11C94.58,29.12,94.66,29.12,94.74,29.18z"/>
			<path class="st17" d="M94.74,5.76c-0.14,0.09-0.29,0.09-0.42,0.1c-0.53,0.05-1.07,0.08-1.6,0.1c-1.57,0.07-3.15,0.11-4.73,0.14
				c-0.61,0.01-1.21,0.02-1.82,0.02c-0.17,0-0.33-0.03-0.49-0.08c-0.08-0.03-0.15-0.07-0.2-0.12c-0.1-0.1-0.1-0.2-0.01-0.3
				c0.1-0.11,0.24-0.15,0.39-0.18C86,5.41,86.16,5.4,86.31,5.4c0.93,0.02,1.87,0.03,2.8,0.05c0.93,0.02,1.85,0.05,2.77,0.08
				c0.76,0.03,1.52,0.08,2.27,0.13C94.35,5.67,94.54,5.67,94.74,5.76z"/>
			<path class="st18" d="M24.45,25.15c0.37,0.06,0.7,0.06,1.04,0.01c-0.09,1.71-0.08,3.4,0,5.09c-0.18,0.04-0.34-0.04-0.51-0.02
				c-0.16,0.02-0.33,0.02-0.52,0.04c0.05-0.86,0.08-1.7,0.08-2.55C24.52,26.88,24.54,26.03,24.45,25.15z"/>
			<path class="st15" d="M74.66,30.27c-0.29,0-0.57,0-0.86,0c0-1.31,0-2.61,0-3.92c-0.05-0.02-0.08-0.03-0.11-0.05
				c-0.1-0.04-0.09-0.12-0.06-0.2c0.01-0.03,0.03-0.05,0.05-0.07c0.3-0.24,0.63-0.45,0.97-0.68C74.66,27.02,74.66,28.64,74.66,30.27
				z"/>
			<path class="st17" d="M97.74,15.45c-0.45-0.23-0.86-0.52-1.24-0.86c1.07,0.05,2.13,0.08,3.2,0.14c0.76,0.04,1.53,0.08,2.29,0.17
				c0.16,0.02,0.33,0.05,0.49,0.08c0.04,0.01,0.08,0.02,0.11,0.07c-0.09,0.08-0.21,0.08-0.32,0.1c-0.48,0.07-0.96,0.11-1.44,0.14
				c-0.98,0.06-1.96,0.12-2.94,0.14C97.83,15.41,97.78,15.4,97.74,15.45z"/>
			<path class="st17" d="M96.48,10.45c0.09-0.11,0.22-0.15,0.34-0.22c0.25-0.15,0.5-0.29,0.76-0.42c0.02,0.07,0.08,0.05,0.13,0.06
				c0.41,0.03,0.82,0.05,1.23,0.07c0.45,0.03,0.91,0.06,1.36,0.13c0.07,0.01,0.14,0.02,0.21,0.06c-0.01,0.07-0.07,0.06-0.11,0.07
				c-0.31,0.07-0.63,0.09-0.95,0.11c-0.61,0.04-1.23,0.09-1.84,0.11c-0.3,0.01-0.61,0.03-0.91,0.04
				C96.62,10.47,96.55,10.48,96.48,10.45z"/>
			<path class="st17" d="M98.83,12.89c0.14-0.12,0.28-0.24,0.38-0.4c0.04-0.06,0.09-0.12,0.03-0.19c0.37,0.02,0.75,0.05,1.12,0.07
				c0.42,0.03,0.85,0.06,1.27,0.13c0.08,0.01,0.16,0.03,0.23,0.08c-0.07,0.09-0.16,0.08-0.25,0.1c-0.37,0.07-0.74,0.09-1.12,0.12
				C99.93,12.83,99.38,12.85,98.83,12.89z"/>
			<path class="st15" d="M55.9,31.36c-0.34,0-0.47-0.15-0.42-0.46c0.03-0.18,0.1-0.26,0.29-0.3c0.14-0.03,0.29-0.01,0.42,0.04
				c0.15,0.05,0.23,0.19,0.23,0.35c0,0.15-0.08,0.27-0.24,0.32C56.09,31.35,55.99,31.37,55.9,31.36z"/>
			<path class="st15" d="M54.71,31.36c-0.1,0.01-0.21-0.01-0.29-0.06c-0.14-0.09-0.13-0.25-0.12-0.39c0.01-0.13,0.06-0.24,0.19-0.28
				c0.19-0.07,0.37-0.05,0.55,0.03c0.15,0.07,0.2,0.2,0.2,0.35c0,0.14-0.08,0.24-0.21,0.3C54.92,31.35,54.82,31.37,54.71,31.36z"/>
			<path class="st15" d="M70.44,25.94c-0.07-0.01-0.14-0.02-0.21-0.04c-0.06-0.01-0.11-0.04-0.14-0.09c-0.1-0.14-0.09-0.3-0.03-0.46
				c0.05-0.14,0.17-0.19,0.31-0.2c0.12-0.01,0.25-0.01,0.36,0.04c0.16,0.07,0.25,0.21,0.24,0.38c-0.01,0.15-0.1,0.26-0.26,0.31
				C70.61,25.91,70.52,25.92,70.44,25.94z"/>
			<path class="st15" d="M53.02,25.99c-0.37,0-0.51-0.16-0.45-0.48c0.03-0.17,0.11-0.25,0.29-0.28c0.11-0.02,0.22-0.01,0.32,0.01
				c0.2,0.04,0.32,0.18,0.33,0.37c0,0.18-0.11,0.32-0.31,0.36C53.13,25.99,53.05,25.99,53.02,25.99z"/>
			<path class="st15" d="M68.83,25.54c0-0.26,0.11-0.37,0.37-0.38c0.09,0,0.19,0,0.28,0.02c0.2,0.06,0.29,0.18,0.29,0.38
				c0,0.18-0.1,0.29-0.3,0.34c-0.09,0.02-0.18,0.03-0.28,0.03C68.92,25.91,68.83,25.81,68.83,25.54z"/>
			<path class="st15" d="M51.87,26c-0.08-0.01-0.14,0-0.19-0.02c-0.05-0.01-0.1-0.03-0.14-0.05c-0.15-0.12-0.12-0.28-0.1-0.44
				c0.02-0.13,0.1-0.22,0.24-0.25c0.13-0.03,0.26-0.02,0.38,0c0.19,0.04,0.3,0.17,0.31,0.36c0.01,0.17-0.09,0.3-0.28,0.35
				C52.01,25.99,51.93,25.99,51.87,26z"/>
			<path class="st19" d="M65.69,28.22c0.12,0,0.25,0,0.37,0.02c0.26,0.04,0.38,0.18,0.39,0.44c0,0.04,0,0.09,0,0.13
				c-0.01,0.21-0.02,0.42-0.02,0.63c-1.65,0-3.29,0-4.95,0c0-0.28-0.01-0.54,0-0.79c0.01-0.21,0.18-0.38,0.41-0.41
				c0.11-0.02,0.23-0.02,0.35-0.02"/>
		</g>
	</g>
</g>
<g id="oia1mh.tif" class="st0">
	<g class="st1">
		<g>
			<path class="st20" d="M8.19,4.2c0.32-0.21,0.66-0.35,1-0.5c0.76-0.33,1.54-0.6,2.34-0.79c0.67-0.16,1.35-0.27,2.03-0.32
				c0.46-0.04,0.92-0.06,1.39-0.05c1.06,0.03,2.1,0.17,3.13,0.44c1.64,0.44,3.15,1.15,4.53,2.15c0.84,0.61,1.61,1.31,2.3,2.09
				c0.87,0.99,1.59,2.07,2.15,3.26c0.54,1.15,0.94,2.35,1.16,3.6c0.11,0.63,0.19,1.27,0.22,1.92c0.03,0.71,0.02,1.42-0.04,2.12
				c-0.06,0.64-0.16,1.26-0.31,1.89c-0.23,0.98-0.56,1.93-0.99,2.84c-0.3,0.65-0.65,1.28-1.05,1.88c-0.83,1.24-1.82,2.32-3,3.25
				c-0.81,0.63-1.67,1.18-2.6,1.62c-1.23,0.58-2.52,0.97-3.86,1.17c-0.78,0.12-1.57,0.17-2.36,0.14c-1.61-0.06-3.18-0.38-4.68-0.99
				c-1.16-0.48-2.24-1.1-3.24-1.87c-1.06-0.82-1.98-1.77-2.77-2.85c-0.03-0.04-0.05-0.08-0.09-0.14c0.25-0.07,0.49-0.15,0.72-0.22
				c1.39-0.41,2.78-0.82,4.17-1.23c1.61-0.47,3.21-0.94,4.82-1.41c1.22-0.36,2.44-0.72,3.66-1.08c1.25-0.37,2.51-0.73,3.76-1.1
				c0.98-0.29,1.95-0.58,2.92-0.87c0.75-0.22,1.51-0.44,2.26-0.66c0.06-0.02,0.11-0.04,0.16-0.06c0.08-0.04,0.13-0.1,0.11-0.19
				c-0.02-0.1-0.09-0.16-0.2-0.15c-0.19,0.01-0.39,0.02-0.58,0.03c-0.38,0.03-0.76,0.06-1.14,0.09c-0.72,0.06-1.44,0.11-2.16,0.16
				c-0.47,0.03-0.95,0.06-1.42,0.09c-0.75,0.05-1.49,0.11-2.24,0.16c-0.6,0.04-1.19,0.08-1.79,0.12c-0.02,0-0.03,0-0.08,0
				c0.26-0.26,0.49-0.51,0.7-0.77c0.52-0.64,0.94-1.33,1.2-2.11c0.24-0.73,0.34-1.48,0.29-2.24c-0.05-0.73-0.24-1.43-0.53-2.11
				c-0.53-1.2-1.34-2.2-2.29-3.08c-0.8-0.75-1.7-1.38-2.63-1.95c-0.68-0.41-1.39-0.78-2.11-1.12C10.19,4.96,9.3,4.6,8.4,4.28
				C8.33,4.26,8.27,4.23,8.19,4.2z"/>
			<path class="st20" d="M2.96,24.31c-4.2-6.74-1.98-15.59,4.3-19.56c0.58,0.46,1.1,0.98,1.56,1.57C9.28,6.91,9.68,7.54,10,8.22
				c0.33,0.7,0.6,1.43,0.79,2.18c0.21,0.81,0.34,1.63,0.39,2.46c0.06,1.19-0.02,2.38-0.26,3.55c-0.22,1.04-0.55,2.04-1.06,2.97
				c-0.33,0.61-0.74,1.17-1.2,1.68c-0.53,0.59-1.14,1.1-1.81,1.53c-0.68,0.44-1.4,0.81-2.15,1.11C4.13,23.95,3.55,24.14,2.96,24.31z
				"/>
			<path class="st21" d="M79.39,18.54c0.65,0.01,1.29-0.02,1.93,0.02c0.14,0.01,0.27,0.05,0.4,0.09c0.59,0.19,1,0.59,1.31,1.12
				c0.59,0.99,1.21,1.97,1.8,2.97c0.73,1.23,1.53,2.43,2.17,3.72c0.06,0.12,0.1,0.26,0.22,0.39c-0.09-2.79-0.02-5.54-0.05-8.3
				c0.79,0,1.55,0,2.33,0c0,3.92,0,7.83,0,11.75c-0.03,0.03-0.07,0.02-0.1,0.02c-0.89,0-1.79,0-2.68,0c-0.09,0-0.14-0.03-0.18-0.1
				c-0.71-1.16-1.42-2.32-2.13-3.48c-0.65-1.06-1.3-2.12-1.93-3.18c-0.26-0.43-0.48-0.88-0.73-1.32c-0.02-0.03-0.02-0.08-0.08-0.09
				c0.11,2.72,0.02,5.44,0.06,8.16c-0.79,0-1.55,0-2.33,0C79.39,26.39,79.39,22.48,79.39,18.54z"/>
			<path class="st21" d="M97.66,3.18c0.88,0,1.76,0,2.65,0c0,1.56,0,3.12,0,4.68c1.62,0,3.22,0,4.83,0c0-1.56,0-3.12,0-4.68
				c0.89,0,1.78,0,2.67,0c0,3.92,0,7.84,0,11.75c-0.03,0.03-0.07,0.02-0.1,0.02c-0.81,0-1.62,0-2.43,0c-0.11,0-0.14-0.03-0.14-0.14
				c0-1.54,0-3.09,0-4.63c0-0.05,0-0.1,0-0.17c-1.61,0-3.21,0-4.82,0c0,1.64,0,3.28,0,4.93c-0.89,0-1.77,0-2.66,0
				C97.66,11.02,97.66,7.11,97.66,3.18z"/>
			<path class="st21" d="M60.07,3.17c0.45,0,0.9,0,1.35,0c1.19,0,2.37-0.01,3.56,0c0.68,0.01,1.33,0.13,1.94,0.46
				c0.8,0.43,1.31,1.09,1.54,1.96c0.22,0.84,0.21,1.66-0.12,2.48c-0.32,0.8-0.91,1.32-1.67,1.68c-0.03,0.01-0.07,0.02-0.09,0.06
				c1.06,1.7,2.13,3.4,3.21,5.13c-0.26,0-0.48,0-0.71,0c-0.42-0.01-0.85,0.03-1.27-0.02c-0.78-0.09-1.35-0.48-1.75-1.15
				c-0.63-1.07-1.27-2.14-1.89-3.21c-0.11-0.19-0.23-0.25-0.43-0.24c-0.33,0.02-0.66,0-1.02,0c0,1.54,0,3.07,0,4.61
				c-0.89,0-1.76,0-2.64,0C60.07,11.03,60.07,7.11,60.07,3.17z M62.72,8.57c0.68-0.04,1.35,0.05,2.01-0.06
				c0.5-0.08,0.84-0.37,1.05-0.82c0.15-0.32,0.17-0.66,0.14-1c-0.07-0.77-0.53-1.36-1.4-1.42c-0.6-0.04-1.2-0.01-1.81-0.01
				C62.72,6.36,62.72,7.45,62.72,8.57z"/>
			<path class="st21" d="M57.03,30.31c-0.89,0-1.76,0-2.65,0c0-3.92,0-7.84,0-11.77c0.04,0,0.08,0,0.11,0c1.59,0,3.19,0,4.78,0
				c0.64,0,1.26,0.12,1.84,0.39c0.94,0.45,1.49,1.21,1.71,2.21c0.2,0.9,0.11,1.77-0.32,2.6c-0.28,0.54-0.71,0.92-1.23,1.21
				c-0.13,0.07-0.26,0.14-0.4,0.22c1.07,1.71,2.13,3.41,3.2,5.11c-0.01,0.02-0.02,0.03-0.02,0.03c-0.62,0.01-1.25,0.03-1.87-0.01
				c-0.83-0.06-1.43-0.5-1.85-1.21c-0.64-1.1-1.29-2.19-1.93-3.28c-0.04-0.07-0.08-0.11-0.18-0.11c-0.36,0.01-0.73,0-1.09,0
				c-0.03,0-0.06,0.01-0.11,0.01C57.03,27.25,57.03,28.77,57.03,30.31z M57.02,22.28c0,0.5,0,1.01,0,1.51c0,0.07-0.01,0.15,0.1,0.14
				c0.59-0.01,1.18,0.03,1.77-0.03c0.39-0.04,0.73-0.18,0.99-0.5c0.33-0.41,0.4-0.88,0.35-1.38c-0.08-0.82-0.61-1.35-1.44-1.39
				c-0.55-0.02-1.11-0.01-1.66-0.01c-0.11,0-0.11,0.05-0.11,0.13C57.02,21.26,57.02,21.77,57.02,22.28z"/>
			<path class="st21" d="M43.45,18.54c1.42,3.92,2.83,7.84,4.25,11.78c-0.24,0-0.46,0-0.68,0c-0.69,0-1.37,0-2.06,0
				c-0.11,0-0.15-0.03-0.18-0.13c-0.2-0.65-0.4-1.3-0.61-1.94c-0.02-0.07-0.05-0.1-0.13-0.1c-1.51,0-3.03,0-4.54,0.01
				c0,0-0.01,0-0.02,0c-0.14,0.43-0.28,0.87-0.42,1.3c-0.17,0.56-0.58,0.86-1.16,0.86c-0.6,0-1.21,0-1.82,0
				c0-0.12,0.05-0.21,0.09-0.3c0.42-1.15,0.84-2.29,1.27-3.44c0.41-1.12,0.82-2.23,1.23-3.35c0.5-1.35,0.99-2.69,1.49-4.04
				c0.07-0.19,0.14-0.37,0.2-0.56c0.02-0.06,0.04-0.08,0.11-0.08C41.47,18.54,42.46,18.54,43.45,18.54z M43.46,26.02
				c-0.53-1.64-1.12-3.23-1.61-4.87c-0.51,1.64-1.11,3.24-1.67,4.87C41.28,26.02,42.36,26.02,43.46,26.02z"/>
			<path class="st21" d="M81.51,14.95c-0.4,0-0.78,0-1.15,0c-0.4-0.01-0.8,0.02-1.2-0.02c-0.66-0.06-1.18-0.38-1.57-0.9
				c-0.63-0.82-1.25-1.65-1.87-2.47c-0.49-0.65-0.98-1.29-1.47-1.94c-0.03-0.04-0.06-0.07-0.11-0.14c0,1.84,0,3.64,0,5.46
				c-0.9,0-1.77,0-2.66,0c0-3.92,0-7.83,0-11.76c0.88,0,1.75,0,2.65,0c0,1.71,0,3.42,0,5.13c0.01,0,0.02,0.01,0.04,0.01
				c0.09-0.12,0.18-0.24,0.27-0.36c0.56-0.78,1.13-1.56,1.69-2.34c0.57-0.79,1.13-1.57,1.69-2.36c0.05-0.07,0.1-0.09,0.18-0.09
				c0.87,0,1.74,0,2.65,0c-1.36,1.8-2.71,3.57-4.06,5.35C78.21,10.66,79.85,12.79,81.51,14.95z"/>
			<path class="st21" d="M47.98,3.18c0.9,0,1.77,0,2.64,0c0.03,0.06,0.02,0.11,0.02,0.16c0,2.43,0,4.86,0,7.29
				c0,0.57,0.15,1.11,0.5,1.57c0.28,0.36,0.65,0.56,1.09,0.65c0.48,0.1,0.95,0.09,1.43-0.03c0.71-0.19,1.12-0.68,1.33-1.36
				c0.1-0.32,0.14-0.65,0.14-0.98c0-2.42,0-4.84,0-7.26c0-0.01,0-0.02,0.01-0.04c0.82,0,1.64,0,2.46,0
				c0.03,0.04,0.01,0.09,0.01,0.14c0,2.47,0,4.94,0,7.4c0,0.81-0.13,1.61-0.51,2.34c-0.49,0.95-1.27,1.53-2.29,1.8
				c-0.84,0.22-1.7,0.27-2.57,0.21c-0.68-0.05-1.34-0.17-1.96-0.44c-1.16-0.51-1.84-1.41-2.13-2.63c-0.1-0.43-0.15-0.87-0.15-1.31
				c0-2.1,0-4.2,0-6.3C47.98,3.99,47.98,3.59,47.98,3.18z"/>
			<path class="st21" d="M94.6,28.12c1.51,0,3.01,0,4.52,0c0,0.73,0,1.46,0,2.19c-2.39,0-4.78,0-7.18,0c0-3.92,0-7.83,0-11.75
				c2.39,0,4.78,0,7.19,0c0,0.25,0,0.51,0,0.77c0,0.17,0.01,0.34-0.02,0.51c-0.11,0.54-0.56,0.9-1.11,0.9c-1.08,0-2.16,0-3.24,0
				c-0.05,0-0.09,0-0.15,0c0,0.84,0,1.68,0,2.53c1.28,0,2.55,0,3.84,0c0,0.66,0,1.3,0,1.96c-1.28,0-2.55,0-3.84,0
				C94.6,26.2,94.6,27.15,94.6,28.12z"/>
			<path class="st21" d="M108.26,21.07c-0.26-0.1-0.52-0.2-0.78-0.28c-0.7-0.23-1.43-0.35-2.17-0.32c-0.4,0.02-0.79,0.09-1.12,0.35
				c-0.49,0.39-0.49,1.26,0.01,1.64c0.37,0.28,0.8,0.42,1.22,0.61c0.74,0.32,1.48,0.63,2.17,1.07c0.75,0.48,1.16,1.17,1.31,2.04
				c0.12,0.73,0.07,1.45-0.2,2.14c-0.34,0.85-0.96,1.41-1.78,1.77c-0.88,0.38-1.8,0.44-2.75,0.39c-0.75-0.04-1.49-0.15-2.21-0.38
				c-0.21-0.07-0.42-0.16-0.63-0.23c-0.09-0.03-0.08-0.1-0.08-0.16c0-0.63,0-1.26,0-1.89c0-0.08,0-0.15,0-0.24
				c0.22,0.09,0.42,0.18,0.63,0.26c0.91,0.36,1.85,0.59,2.84,0.51c0.33-0.03,0.64-0.11,0.94-0.25c0.73-0.36,0.85-1.58,0.07-2.03
				c-0.36-0.21-0.74-0.37-1.12-0.52c-0.58-0.24-1.17-0.47-1.71-0.8c-0.84-0.52-1.4-1.25-1.56-2.23c-0.16-0.95-0.07-1.87,0.49-2.69
				c0.39-0.57,0.93-0.92,1.57-1.15c0.54-0.19,1.09-0.27,1.66-0.3c1.06-0.04,2.07,0.13,3.07,0.47c0.1,0.03,0.15,0.07,0.15,0.19
				c-0.01,0.64,0,1.28,0,1.93C108.26,20.99,108.26,21.03,108.26,21.07z"/>
			<path class="st21" d="M94.78,5.71c-0.33-0.14-0.66-0.27-1.01-0.36c-0.72-0.19-1.45-0.31-2.19-0.22
				c-0.25,0.03-0.49,0.11-0.71,0.23c-0.62,0.33-0.72,1.37-0.04,1.81c0.34,0.22,0.72,0.36,1.09,0.52c0.8,0.35,1.62,0.67,2.35,1.18
				c0.65,0.46,1.02,1.1,1.15,1.88c0.11,0.69,0.11,1.37-0.12,2.04c-0.31,0.91-0.95,1.53-1.81,1.92c-0.77,0.35-1.59,0.43-2.43,0.41
				c-1.05-0.02-2.07-0.19-3.05-0.56c-0.15-0.06-0.22-0.12-0.21-0.3c0.01-0.67,0.01-1.35,0.01-2.04c0.23,0.1,0.45,0.2,0.68,0.28
				c0.84,0.33,1.7,0.54,2.61,0.5c0.34-0.01,0.68-0.06,1-0.2c0.46-0.2,0.7-0.55,0.73-1.04c0.03-0.51-0.2-0.87-0.64-1.11
				c-0.56-0.31-1.17-0.52-1.76-0.77c-0.55-0.24-1.07-0.51-1.52-0.9c-0.62-0.55-0.95-1.25-1.04-2.07c-0.07-0.66-0.02-1.31,0.24-1.92
				c0.35-0.82,0.98-1.32,1.79-1.63c0.74-0.28,1.52-0.35,2.31-0.32c0.76,0.03,1.49,0.17,2.22,0.38c0.4,0.12,0.41,0.11,0.41,0.53
				c0,0.56,0,1.12,0,1.68C94.8,5.63,94.81,5.66,94.78,5.71z"/>
			<path class="st21" d="M46.13,3.18c0,0.42,0.04,0.83-0.02,1.23c-0.08,0.57-0.55,0.96-1.15,0.96c-0.6,0-1.21,0-1.81,0
				c-0.05,0-0.1,0-0.16,0c0,3.19,0,6.38,0,9.57c-0.89,0-1.76,0-2.65,0c0-3.19,0-6.37,0-9.57c-1.04,0-2.07,0-3.11,0
				c0-0.74,0-1.46,0-2.2C40.19,3.18,43.15,3.18,46.13,3.18z"/>
			<path class="st21" d="M68.36,28.2c1.42,0,2.82,0,4.23,0c0,0.7,0,1.4,0,2.11c-2.29,0-4.58,0-6.87,0c0-3.92,0-7.84,0-11.75
				c0.49,0,0.98-0.03,1.46,0.01c0.69,0.06,1.19,0.68,1.19,1.4c0,2.68,0,5.37,0,8.05C68.36,28.07,68.36,28.13,68.36,28.2z"/>
			<path class="st21" d="M85.61,14.95c-0.73,0-1.43,0-2.13,0c-0.12,0-0.25-0.01-0.37,0c-0.13,0.01-0.17-0.04-0.15-0.16
				c0-0.01,0-0.02,0-0.03c0-3.81,0-7.61,0-11.42c0-0.05,0-0.1,0-0.17c0.89,0,1.77,0,2.66,0C85.61,7.1,85.61,11.02,85.61,14.95z"/>
			<path class="st21" d="M51.94,30.31c-0.88,0-1.76,0-2.64,0c0-3.92,0-7.84,0-11.76c0.88,0,1.75,0,2.64,0
				C51.94,22.47,51.94,26.38,51.94,30.31z"/>
			<path class="st21" d="M74.31,18.55c0.88,0,1.75,0,2.63,0c0,3.92,0,7.84,0,11.76c-0.88,0-1.75,0-2.63,0
				C74.31,26.39,74.31,22.48,74.31,18.55z"/>
		</g>
	</g>
</g>
<g id="qnFSLw.tif">
	<g>
		<g>
			<path class="st22" d="M98.43,23.01c-0.28,0.01-0.36-0.15-0.42-0.4c-0.16-0.66-0.34-0.8-1.03-0.85c-0.32-0.02-0.65-0.05-1,0
				c0,2.28,0,4.55,0,6.84c-0.45,0-0.87,0-1.31,0c0-2.29,0-4.56,0-6.85c-0.46-0.04-0.9-0.03-1.32,0.04
				c-0.49,0.08-0.65,0.47-0.72,0.89c-0.04,0.23-0.12,0.37-0.4,0.26c0-0.61,0-1.23,0-1.88c2.05,0,4.09,0,6.14,0
				c0,0.32-0.01,0.65,0.01,0.97c0.02,0.28-0.08,0.57,0.07,0.84C98.43,22.91,98.43,22.96,98.43,23.01z"/>
			<path class="st22" d="M98.43,6.51c-0.17,0.28-0.14,0.6-0.14,0.9c0,1.02,0.11,2.03,0,3.05c-0.1,0.96-0.31,1.88-0.74,2.75
				c-0.04,0.08-0.08,0.15-0.13,0.22c-0.07,0.1-0.15,0.22-0.29,0.17c-0.15-0.06-0.1-0.21-0.08-0.32c0.13-0.57,0.24-1.13,0.3-1.71
				c0.09-0.95,0.01-1.89-0.06-2.83c-0.07-0.91,0.2-1.72,0.67-2.47c0.11-0.18,0.23-0.36,0.46-0.12C98.43,6.27,98.43,6.39,98.43,6.51z
				"/>
			<path class="st22" d="M76.9,32.45c-0.17-0.72-0.33-1.44-0.67-2.1c0.09-0.03,0.23-0.02,0.39,0.01c0.14,0.45,0.28,0.91,0.43,1.39
				c0.45-0.76,0.49-1.14,0.16-1.39c0.34-0.12,0.52-0.01,0.6,0.35c0.08,0.35,0.23,0.68,0.36,1.06c0.25-0.49,0.27-1.02,0.52-1.46
				c0.03,0.01,0.06,0.02,0.09,0.03c-0.19,0.7-0.38,1.4-0.57,2.09c-0.05,0-0.1,0-0.15,0c-0.11-0.48-0.31-0.93-0.5-1.5
				c-0.2,0.57-0.36,1.04-0.52,1.5C76.99,32.45,76.94,32.45,76.9,32.45z"/>
			<path class="st22" d="M69.84,32.45c-0.06-0.7,0.08-1.41-0.09-2.11c0.15,0,0.39,0,0.63,0c0.32,0,0.66,0.02,0.76,0.4
				c0.1,0.37-0.09,0.6-0.45,0.69c0.18,0.4,0.47,0.69,0.69,1.02c-0.15,0-0.29,0-0.44,0c-0.18-0.39-0.4-0.75-0.76-1.09
				c-0.11,0.42,0.04,0.77-0.12,1.09C69.98,32.45,69.91,32.45,69.84,32.45z M70.14,31.3c0.25,0,0.51,0.06,0.65-0.21
				c0.08-0.15,0.07-0.31-0.02-0.45c-0.16-0.22-0.39-0.18-0.63-0.16C70.14,30.77,70.14,31.03,70.14,31.3z"/>
			<path class="st22" d="M83.66,32.45c0.15-0.58,0.43-1.12,0.63-1.68c0.04-0.12,0.22-0.28-0.06-0.39c0.31-0.12,0.43,0,0.53,0.26
				c0.24,0.61,0.44,1.24,0.78,1.81c-0.15,0-0.29,0-0.44,0c0.02-0.23-0.1-0.42-0.2-0.61c-0.13-0.25-0.38-0.09-0.58-0.12
				c-0.12-0.02-0.27-0.06-0.32,0.13c-0.06,0.2-0.14,0.4-0.21,0.59C83.76,32.45,83.71,32.45,83.66,32.45z M84.15,31.57
				c0.24,0,0.44,0,0.67,0c-0.11-0.28-0.21-0.53-0.32-0.81C84.33,31.02,84.26,31.28,84.15,31.57z"/>
			<path class="st22" d="M97.41,32.45c-0.26-0.09-0.42-0.23-0.32-0.58c0.12,0.23,0.27,0.4,0.52,0.42c0.19,0.02,0.37-0.03,0.45-0.22
				c0.09-0.2,0.01-0.35-0.16-0.47c-0.13-0.09-0.27-0.17-0.4-0.24c-0.28-0.15-0.48-0.36-0.37-0.7c0.12-0.35,0.43-0.36,0.74-0.35
				c0,0.04,0,0.08-0.01,0.08c-0.19,0.07-0.45,0.05-0.49,0.3c-0.04,0.29,0.22,0.37,0.42,0.48c0.26,0.14,0.48,0.3,0.63,0.55
				c0,0.1,0,0.19,0,0.29c-0.15,0.21-0.33,0.36-0.58,0.44C97.7,32.45,97.56,32.45,97.41,32.45z"/>
			<path class="st22" d="M91.01,32.45c0.15-1.16-0.29-1.56-0.8-2.09c0.27-0.07,0.48-0.03,0.62,0.26c0.11,0.22,0.27,0.42,0.41,0.64
				c0.27-0.3,0.38-0.68,0.71-0.9c-0.35,0.66-0.91,1.27-0.51,2.1C91.3,32.45,91.16,32.45,91.01,32.45z"/>
			<path class="st2" d="M83.81,32.45c0.07-0.2,0.15-0.39,0.21-0.59c0.06-0.19,0.21-0.15,0.32-0.13c0.2,0.03,0.45-0.13,0.58,0.12
				c0.09,0.19,0.22,0.38,0.2,0.61C84.68,32.45,84.24,32.45,83.81,32.45z"/>
			<path class="st2" d="M77.04,32.45c0.16-0.46,0.32-0.92,0.52-1.5c0.19,0.57,0.39,1.02,0.5,1.5
				C77.72,32.45,77.38,32.45,77.04,32.45z"/>
			<path class="st2" d="M70.06,32.45c0.16-0.32,0.01-0.67,0.12-1.09c0.36,0.33,0.58,0.69,0.76,1.09
				C70.64,32.45,70.35,32.45,70.06,32.45z"/>
			<path class="st23" d="M98.43,22.86c-0.14-0.27-0.05-0.56-0.07-0.84c-0.02-0.32-0.01-0.65-0.01-0.97c0.03,0,0.05-0.01,0.08-0.01
				C98.43,21.65,98.43,22.26,98.43,22.86z"/>
			<path class="st2" d="M97.85,32.45c0.25-0.07,0.44-0.23,0.58-0.44c0,0.15,0,0.29,0,0.44C98.24,32.45,98.04,32.45,97.85,32.45z"/>
			<path class="st24" d="M63.95,32.45c0.02-0.02,0.05-0.05,0.07-0.07c0.09-0.01,0.18-0.01,0.27-0.02c0.01,0.03,0.02,0.06,0.03,0.09
				C64.19,32.45,64.07,32.45,63.95,32.45z"/>
			<path class="st25" d="M29.92,12.61c1.11-0.41,2.24-0.7,3.41-0.89c1.05-0.17,2.09-0.24,3.14-0.2c2.69,0.1,5.27,0.71,7.8,1.58
				c1.49,0.51,2.93,1.14,4.32,1.89c0.1,0.06,0.2,0.12,0.26,0.25c-0.31-0.1-0.63-0.2-0.94-0.31c-3.23-1.03-6.56-1.53-9.95-1.5
				c-2.41,0.02-4.67,0.61-6.71,1.95c-0.28,0.19-0.56,0.38-0.81,0.67c0.3,0.46,0.69,0.82,1.11,1.15c3.14,2.42,6.78,3.8,10.5,4.99
				c3.5,1.11,7.08,1.9,10.7,2.51c0.1,0.02,0.21,0.03,0.3,0.11c-6.17,0.43-12.15-0.43-17.98-2.47c-2.18-0.76-4.31-1.65-6.39-2.65
				c-0.09-0.04-0.17-0.09-0.25-0.14c0.05-0.69-0.01-1.37,0.07-2.06c0.13-1.09,0.37-2.15,0.73-3.19
				C29.45,13.72,29.77,13.2,29.92,12.61z"/>
			<path class="st22" d="M87.96,9.13c0.19,0.19,0.12,0.4,0.05,0.56c-0.36,0.89-0.8,1.74-1.49,2.42c-0.25,0.25-0.54,0.44-0.89,0.54
				c-0.58,0.16-0.94-0.04-1.11-0.6c-0.02-0.08-0.05-0.16-0.08-0.26c-1.31,0.63-2.63,1.19-3.99,1.66c-2.35,0.81-4.75,1.43-7.25,1.57
				c-2.72,0.15-5.32-0.44-7.83-1.42c-0.53-0.21-1.05-0.43-1.57-0.71c-0.3,0.35-0.55,0.72-0.87,1.03c-0.45,0.43-0.93,0.77-1.57,0.82
				c-0.42,0.03-0.72-0.13-0.95-0.47c-0.5-0.72-0.96-0.81-1.72-0.36c-0.53,0.31-0.88,0.78-1.21,1.28c-0.18,0.28-0.3,0.6-0.57,0.81
				c-0.11-0.11-0.04-0.2-0.02-0.29c0.32-1.34,0.94-2.51,2.05-3.37c0.15-0.12,0.31-0.23,0.48-0.32c0.8-0.44,1.32-0.35,1.93,0.32
				c0.04,0.04,0.08,0.09,0.12,0.14c0.56,0.67,0.96,0.71,1.66,0.18c0.3-0.23,0.54-0.52,0.76-0.83c0.18-0.26,0.35-0.51,0.54-0.78
				c1.5,1.43,3.41,1.75,5.3,2.07c3.27,0.55,6.5,0.1,9.7-0.55c1.57-0.32,3.1-0.75,4.54-1.47c0.36-0.18,0.58-0.41,0.66-0.82
				c0.07-0.35,0.21-0.69,0.33-1.04c0.07-0.21,0.18-0.4,0.33-0.56c0.09-0.09,0.18-0.23,0.33-0.14c0.13,0.07,0.08,0.22,0.06,0.33
				c-0.07,0.4-0.17,0.81-0.24,1.21c-0.05,0.26-0.1,0.55,0.13,0.75c0.25,0.2,0.55,0.15,0.83,0.05c0.44-0.16,0.67-0.54,0.92-0.89
				C87.53,9.7,87.66,9.35,87.96,9.13z"/>
			<path class="st22" d="M29.92,12.61c-0.15,0.59-0.46,1.11-0.66,1.67c-0.36,1.04-0.6,2.1-0.73,3.19c-0.08,0.69-0.02,1.37-0.07,2.06
				c-2.05-0.94-4.03-2.03-5.99-3.15c-3.23-1.83-6.35-3.85-9.52-5.78c-0.41-0.25-0.83-0.48-1.27-0.74c0.14-0.11,0.23,0,0.3,0.04
				c1.34,0.66,2.62,1.45,3.99,2.07c0.07,0.03,0.13,0.06,0.2,0.1c0.7,0.37,1.41,0.59,2.24,0.5c0.96-0.1,1.91,0.14,2.78,0.55
				c2.31,1.08,4.63,1,6.97,0.11C28.73,13.01,29.31,12.76,29.92,12.61z"/>
			<path class="st22" d="M92.56,12.11c-0.82,0.67-1.49,1.37-1.91,2.27c-0.08,0.18-0.15,0.36-0.22,0.54c-0.3,0.74-0.83,1.22-1.6,1.41
				c-0.64,0.16-1.3,0.28-1.95,0.42c-0.06,0.01-0.12,0.02-0.18-0.08c0-0.22,0.21-0.27,0.37-0.36c0.92-0.51,1.83-1.04,2.7-1.64
				c0.14-0.1,0.31-0.18,0.37-0.37c-0.13-0.14-0.26-0.06-0.38-0.04c-0.35,0.05-0.69,0.11-1.04-0.02c-0.62-0.23-0.89-0.72-0.73-1.35
				c0.16-0.62,0.46-1.17,0.86-1.67c0.54-0.68,1.23-0.65,1.75,0.05c0.24,0.33,0.41,0.69,0.51,1.11c0.58-0.27,1.06-0.63,1.41-1.16
				c0.12-0.18,0.12-0.39,0.13-0.59c0.04-1.16-0.05-2.32,0.04-3.49c0.05-0.75,0.26-1.41,0.71-2.02c0.94-1.31,1.95-2.56,2.98-3.8
				c0.09-0.11,0.17-0.24,0.38-0.24c0.05,0.75,0.11,1.49-0.39,2.14c-0.94,1.23-1.87,2.48-2.86,3.67c-0.15,0.18-0.23,0.35-0.23,0.59
				c-0.03,1.22-0.05,2.45,0.22,3.65c0.06,0.26,0.09,0.58,0.42,0.66c0.37,0.09,0.7-0.02,0.96-0.3c0.39-0.43,0.56-0.96,0.58-1.53
				c0.03-0.82,0.05-1.65,0.05-2.47c0-1.33,0.63-2.43,1.3-3.52c0.03-0.05,0.08-0.09,0.13-0.12c0.01-0.01,0.05,0,0.09,0
				c0.13,0.2,0.04,0.4-0.05,0.57c-0.46,0.87-0.52,1.79-0.51,2.75c0.01,1.46-0.1,2.9-0.56,4.3c-0.16,0.5-0.38,0.97-0.72,1.37
				c-0.36,0.43-0.8,0.7-1.36,0.75c-0.52,0.05-0.83-0.13-1-0.63C92.71,12.71,92.65,12.45,92.56,12.11z"/>
			<path class="st22" d="M79.34,26.19c0.52-1.76,1.01-3.44,1.5-5.13c0.26,0,0.51,0,0.77,0c0.06,0.14-0.02,0.25-0.05,0.37
				c-0.67,2.32-1.35,4.64-2.02,6.96c-0.05,0.18-0.07,0.34-0.33,0.33c-0.24,0-0.36-0.06-0.44-0.3c-0.52-1.54-1.07-3.08-1.61-4.62
				c-0.15,0.08-0.14,0.23-0.18,0.34c-0.5,1.42-1.01,2.85-1.49,4.28c-0.09,0.28-0.25,0.29-0.48,0.3c-0.26,0.02-0.29-0.15-0.35-0.32
				c-0.57-1.92-1.13-3.85-1.7-5.77c-0.04-0.15-0.09-0.3-0.15-0.45c-0.17-0.42-0.43-0.73-0.93-0.72c-0.08-0.13-0.04-0.25-0.04-0.39
				c0.66,0,1.31,0,1.98,0c0.5,1.65,0.99,3.31,1.49,4.98c0.16-0.04,0.14-0.19,0.18-0.29c0.35-0.99,0.7-1.98,1.04-2.97
				c0.2-0.58-0.14-1.18-0.75-1.3c-0.09-0.02-0.19-0.02-0.28-0.03c-0.08-0.12-0.03-0.24-0.05-0.41c0.68,0,1.34,0,2,0
				c0.21,0,0.18,0.21,0.22,0.33c0.52,1.49,1.03,2.99,1.54,4.49C79.25,25.94,79.28,26.02,79.34,26.19z"/>
			<path class="st22" d="M63.27,21.05c-1.06,1.11-2.05,2.16-3.04,3.2c-0.01,0.12,0.07,0.17,0.12,0.23c0.77,0.92,1.54,1.83,2.32,2.74
				c0.43,0.5,0.89,0.97,1.61,1c0.05,0.14,0.05,0.25,0,0.4c-0.63,0-1.27,0-1.91,0c-0.18,0-0.24-0.14-0.33-0.25
				c-0.87-1.02-1.74-2.05-2.61-3.07c-0.07-0.08-0.14-0.16-0.26-0.28c0,1.22,0,2.39,0,3.57c-0.45,0-0.86,0-1.28,0
				c-0.07-0.13-0.04-0.27-0.04-0.4c0-1.85,0-3.7,0-5.56c0-1.08-0.02-1.07-0.99-1.2c-0.06-0.11-0.03-0.23-0.01-0.37
				c0.76,0,1.51,0,2.3,0c0,1.03,0,2.05,0,3.1c0.22-0.21,0.42-0.38,0.6-0.57c0.7-0.72,1.4-1.44,2.08-2.19
				c0.25-0.28,0.5-0.43,0.87-0.37C62.86,21.07,63.02,21.05,63.27,21.05z"/>
			<path class="st22" d="M89,28.62c-0.61,0-1.16-0.01-1.72,0c-0.19,0-0.24-0.09-0.3-0.24c-0.25-0.64-0.52-1.27-0.76-1.92
				c-0.07-0.19-0.16-0.28-0.38-0.28c-0.71,0.02-1.43,0.01-2.14,0c-0.21,0-0.32,0.06-0.39,0.26c-0.22,0.59-0.48,1.16-0.68,1.76
				c-0.11,0.33-0.28,0.47-0.62,0.41c-0.09-0.02-0.19,0-0.3,0c-0.02-0.17,0.06-0.29,0.11-0.42c0.79-1.97,1.58-3.94,2.36-5.92
				c0.27-0.68,0.21-0.76-0.52-0.81c-0.05,0-0.09-0.01-0.13-0.02c-0.07-0.13-0.03-0.25-0.03-0.41c0.62,0,1.22,0,1.82,0
				c0.21,0,0.19,0.19,0.24,0.31c0.76,1.88,1.5,3.77,2.25,5.65c0.06,0.15,0.12,0.29,0.18,0.44c0.19,0.43,0.43,0.8,0.96,0.76
				C89.04,28.35,88.99,28.47,89,28.62z M85.82,25.49c-0.36-0.89-0.69-1.73-1.06-2.66c-0.37,0.93-0.71,1.78-1.06,2.66
				C84.42,25.49,85.09,25.49,85.82,25.49z"/>
			<path class="st22" d="M64.33,21.46c0-0.14,0-0.25,0-0.38c0.76,0,1.52,0,2.28,0c0.07,0.12,0.03,0.25,0.03,0.38
				c0,1.43,0,2.86,0,4.29c0,0.4,0.04,0.8,0.15,1.18c0.2,0.67,0.66,1.05,1.33,1.09c0.88,0.06,1.46-0.22,1.76-0.87
				c0.16-0.34,0.25-0.71,0.25-1.09c0.01-1.53,0.01-3.05,0.02-4.58c0-0.13,0-0.26,0-0.42c0.26,0,0.5,0,0.76,0
				c0.01,0.05,0.02,0.11,0.02,0.16c0,1.51,0,3.03,0,4.54c0,0.47-0.07,0.94-0.22,1.39c-0.26,0.77-0.77,1.27-1.56,1.47
				c-0.67,0.17-1.34,0.17-2.01-0.01c-1.08-0.29-1.57-1.06-1.72-2.1c-0.05-0.35-0.07-0.7-0.07-1.05c-0.01-1.05,0-2.11,0-3.16
				c0-0.67-0.13-0.81-0.8-0.84C64.48,21.47,64.42,21.47,64.33,21.46z"/>
			<path class="st22" d="M91.3,28.61c-0.43,0-0.83,0-1.22,0c-0.09-0.13-0.05-0.26-0.05-0.39c0-1.9,0-3.8,0-5.7
				c0-0.93-0.04-0.97-0.96-1.06c-0.08-0.12-0.06-0.24-0.02-0.39c0.75,0,1.49,0,2.26,0C91.3,23.57,91.3,26.08,91.3,28.61z"/>
			<path class="st22" d="M81.39,7.15c0.26-0.3,0.52-0.59,0.77-0.88c0.17-0.2,0.35-0.24,0.57-0.09c0.38,0.25,0.78,0.49,1.09,0.84
				c0.24,0.27,0.25,0.52,0,0.8c-0.33,0.37-0.7,0.7-1.1,1.06C82.5,8.19,82,7.89,81.39,7.67c-0.38,0.43-0.76,0.82-1.23,1.19
				c-0.21-0.65-0.7-0.96-1.28-1.18c-0.21-0.08-0.22-0.21-0.13-0.37c0.26-0.45,0.62-0.8,0.98-1.16c0.14-0.14,0.3-0.06,0.43,0.02
				C80.61,6.44,81.04,6.72,81.39,7.15z"/>
			<path class="st22" d="M83.25,15.56c0.27-0.3,0.53-0.59,0.77-0.88c0.17-0.2,0.35-0.23,0.57-0.08c0.37,0.25,0.76,0.47,1.06,0.81
				c0.28,0.32,0.28,0.51,0.01,0.82c-0.32,0.37-0.68,0.71-1.09,1.05c-0.17-0.56-0.58-0.86-1.05-1.1c-0.18-0.09-0.31-0.09-0.46,0.09
				c-0.29,0.37-0.65,0.68-1.04,1.01c-0.21-0.64-0.69-0.96-1.26-1.17c-0.21-0.08-0.27-0.2-0.16-0.38c0.26-0.44,0.62-0.8,0.98-1.16
				c0.14-0.14,0.29-0.06,0.43,0.02C82.47,14.85,82.89,15.15,83.25,15.56z"/>
			<path class="st22" d="M60.48,7.15c0.28-0.32,0.54-0.62,0.81-0.92c0.11-0.13,0.24-0.22,0.41-0.12c0.44,0.25,0.88,0.52,1.21,0.91
				c0.26,0.31,0.25,0.49-0.01,0.8c-0.32,0.37-0.69,0.71-1.09,1.05c-0.22-0.67-0.71-0.99-1.33-1.2c-0.37,0.43-0.77,0.82-1.23,1.2
				c-0.18-0.62-0.62-0.92-1.13-1.13c-0.37-0.16-0.42-0.25-0.17-0.58c0.24-0.32,0.51-0.61,0.77-0.91c0.16-0.19,0.33-0.21,0.54-0.08
				C59.7,6.44,60.14,6.72,60.48,7.15z"/>
			<path class="st22" d="M65.61,17.3c-0.18-0.65-0.64-0.92-1.15-1.15c-0.17-0.08-0.24,0.02-0.33,0.12
				c-0.31,0.36-0.67,0.69-1.06,1.02c-0.19-0.64-0.65-0.95-1.2-1.15c-0.29-0.11-0.32-0.26-0.17-0.49c0.25-0.39,0.58-0.71,0.89-1.05
				c0.14-0.15,0.3-0.11,0.46-0.02c0.45,0.27,0.88,0.55,1.24,0.98c0.26-0.3,0.52-0.58,0.76-0.88c0.18-0.22,0.36-0.24,0.6-0.09
				c0.36,0.24,0.74,0.46,1.04,0.79c0.31,0.34,0.31,0.51,0.02,0.85C66.38,16.61,66.02,16.94,65.61,17.3z"/>
			<path class="st22" d="M57.28,31.74c-0.16,0.19-0.15,0.47-0.34,0.66c-0.12-0.11-0.02-0.19,0.01-0.27
				c0.18-0.47,0.37-0.94,0.56-1.41c0.06-0.15,0.1-0.28-0.11-0.35c0.34-0.12,0.47,0.04,0.58,0.33c0.22,0.56,0.38,1.16,0.73,1.68
				c-0.16,0-0.34,0.1-0.44-0.13c-0.08-0.17-0.08-0.45-0.25-0.5C57.8,31.68,57.53,31.74,57.28,31.74z M58.01,31.58
				c-0.12-0.29-0.22-0.54-0.34-0.86c-0.13,0.32-0.23,0.58-0.34,0.86C57.56,31.58,57.75,31.58,58.01,31.58z"/>
			<path class="st22" d="M64.28,32.36c-0.09,0.01-0.18,0.01-0.27,0.02c-0.07-0.53-0.01-1.05-0.03-1.58
				c-0.01-0.16,0.03-0.34-0.25-0.44c0.21,0,0.36,0,0.55,0C64.28,31.03,64.28,31.69,64.28,32.36z"/>
			<path class="st2" d="M70.14,31.3c0-0.27,0-0.53,0-0.81c0.24-0.03,0.47-0.06,0.63,0.16c0.1,0.13,0.11,0.29,0.02,0.45
				C70.65,31.36,70.4,31.3,70.14,31.3z"/>
			<path class="st2" d="M84.15,31.57c0.11-0.29,0.18-0.56,0.35-0.81c0.11,0.28,0.21,0.53,0.32,0.81
				C84.59,31.57,84.39,31.57,84.15,31.57z"/>
			<path class="st2" d="M58.01,31.58c-0.26,0-0.45,0-0.69,0c0.11-0.28,0.21-0.54,0.34-0.86C57.79,31.04,57.89,31.29,58.01,31.58z"/>
		</g>
	</g>
</g>
</svg>
